<svg width="22" height="35" viewBox="0 0 22 35" fill="none" xmlns="http://www.w3.org/2000/svg">
<path d="M12.8333 9.226V0.102661H1.375C0.613021 0.102661 0 0.820453 0 1.71266V32.8394C0 33.7316 0.613021 34.4494 1.375 34.4494H20.625C21.387 34.4494 22 33.7316 22 32.8394V10.836H14.2083C13.4521 10.836 12.8333 10.1115 12.8333 9.226ZM16.5676 23.7167H12.8333V29.0834C12.8333 29.6764 12.4231 30.1567 11.9167 30.1567H10.0833C9.57687 30.1567 9.16667 29.6764 9.16667 29.0834V23.7167H5.4324C4.61427 23.7167 4.20578 22.5568 4.78672 21.8813L10.3108 15.4614C10.6918 15.018 11.3071 15.018 11.6881 15.4614L17.2121 21.8813C17.7936 22.5568 17.3857 23.7167 16.5676 23.7167ZM21.599 7.14642L15.9901 0.572245C15.7323 0.27037 15.3828 0.102661 15.0161 0.102661H14.6667V8.68933H22V8.28013C22 7.8575 21.8568 7.44829 21.599 7.14642Z" fill="#FFC32D"/>
</svg>
