<svg width="334" height="319" viewBox="0 0 334 319" fill="none" xmlns="http://www.w3.org/2000/svg">
<path d="M332.519 1.87039V317.124C332.519 317.609 332.198 317.993 331.806 317.993C332.02 317.993 332.191 317.609 332.191 317.124C332.191 316.646 332.02 316.254 331.806 316.254L331.093 316.033V3.6159C331.328 3.60165 331.571 3.60163 331.806 3.60163C332.02 3.60163 332.191 3.21676 332.191 2.73922C332.191 2.25455 332.02 1.86967 331.806 1.86967C331.571 1.86967 331.328 1.86966 331.093 1.88392V1.86967C331.093 1.385 331.414 1.00012 331.806 1.00012C332.198 1.00012 332.519 1.38572 332.519 1.87039Z" fill="#FFC32D"/>
<path d="M331.806 1.8703C332.02 1.8703 332.191 2.25518 332.191 2.73985C332.191 3.21739 332.02 3.60226 331.806 3.60226C331.571 3.60226 331.328 3.60225 331.093 3.61651V1.88455C331.328 1.87029 331.571 1.8703 331.806 1.8703Z" fill="#FFC32D"/>
<path d="M331.806 316.255C332.02 316.255 332.191 316.647 332.191 317.125C332.191 317.609 332.02 317.994 331.806 317.994L331.478 317.895C331.25 317.752 331.093 317.466 331.093 317.125V316.034L331.806 316.255Z" fill="#FFC32D"/>
<path d="M331.478 317.893L331.805 317.993C331.684 317.993 331.578 317.957 331.478 317.893Z" fill="#FFC32D"/>
<path d="M331.478 317.893L274.544 300.067V298.87H274.494C274.53 298.777 274.544 298.67 274.544 298.557V298.329L331.093 316.033V317.124C331.093 317.466 331.25 317.751 331.478 317.893Z" fill="#FFC32D"/>
<path d="M331.093 3.61658V316.033L274.544 298.329V134.405C274.544 133.942 274.252 133.571 273.888 133.543C274.095 65.162 299.618 4.51463 331.093 3.61658ZM326.654 291.686V36.2745C326.654 35.8825 326.397 35.576 326.075 35.576C325.763 35.576 325.505 35.8825 325.505 36.2745V36.2816C299.618 37.0229 278.65 88.0553 278.65 144.369C278.65 144.419 278.65 144.462 278.657 144.512V277.011C278.657 277.032 278.657 277.046 278.665 277.068C278.657 277.132 278.65 277.196 278.65 277.267C278.65 277.652 278.792 277.965 278.963 277.965L325.826 292.306C325.904 292.355 325.983 292.384 326.075 292.384C326.396 292.385 326.654 292.071 326.654 291.686Z" fill="#FFC32D"/>
<path d="M331.093 1.88477V3.61673C299.618 4.51478 274.095 65.1621 273.888 133.543C273.867 133.536 273.853 133.536 273.831 133.536C273.824 133.536 273.824 133.536 273.817 133.536C273.802 129.865 273.646 126.23 273.367 122.638C273.367 122.631 273.367 122.616 273.367 122.609C276.083 57.8779 300.873 2.74006 331.093 1.88477Z" fill="#FFC32D"/>
<path d="M326.653 36.2738V291.685C326.653 292.07 326.397 292.384 326.075 292.384C326.246 292.384 326.389 292.07 326.389 291.685C326.389 291.293 326.246 290.98 326.075 290.98L325.505 290.809V37.6857C325.698 37.6786 325.883 37.6786 326.075 37.6786C326.246 37.6786 326.389 37.365 326.389 36.973C326.389 36.5881 326.246 36.2745 326.075 36.2745C325.883 36.2745 325.698 36.2745 325.505 36.2816V36.2745C325.505 35.8825 325.762 35.576 326.075 35.576C326.396 35.5753 326.653 35.8818 326.653 36.2738Z" fill="#FFC32D"/>
<path d="M326.075 36.2747C326.246 36.2747 326.389 36.5883 326.389 36.9732C326.389 37.3652 326.246 37.6788 326.075 37.6788C325.883 37.6788 325.698 37.6788 325.505 37.686V36.2819C325.698 36.2747 325.884 36.2747 326.075 36.2747Z" fill="#FFC32D"/>
<path d="M326.075 290.98C326.246 290.98 326.389 291.294 326.389 291.686C326.389 292.071 326.246 292.385 326.075 292.385L325.826 292.306C325.633 292.199 325.505 291.965 325.505 291.686V290.81L326.075 290.98Z" fill="#FFC32D"/>
<path d="M325.826 292.307L326.068 292.383C325.978 292.383 325.902 292.355 325.826 292.307Z" fill="#FFC32D"/>
<path d="M325.826 292.306L278.963 277.966C278.792 277.966 278.65 277.653 278.65 277.268C278.65 277.196 278.657 277.133 278.665 277.069C278.685 277.432 278.928 277.717 279.228 277.717C279.548 277.717 279.805 277.404 279.805 277.012V276.819L325.506 290.81V291.686C325.505 291.965 325.633 292.199 325.826 292.306Z" fill="#FFC32D"/>
<path d="M325.505 36.2814V37.6855C300.067 38.4196 279.44 88.4043 279.276 143.678C279.262 143.67 279.241 143.67 279.227 143.67C278.913 143.67 278.656 143.984 278.656 144.369V144.511C278.649 144.462 278.649 144.419 278.649 144.369C278.649 88.0551 299.618 37.0226 325.505 36.2814Z" fill="#FFC32D"/>
<path d="M279.804 276.819V277.012C279.804 277.404 279.547 277.717 279.226 277.717C278.927 277.717 278.684 277.432 278.663 277.069C278.699 276.776 278.82 276.562 278.963 276.562L279.804 276.819Z" fill="#FFC32D"/>
<path d="M279.804 144.369V276.819L278.962 276.562C278.82 276.562 278.699 276.776 278.663 277.068C278.655 277.047 278.655 277.033 278.655 277.011V144.512C278.684 144.833 278.813 145.075 278.962 145.075C279.134 145.075 279.269 144.755 279.269 144.37C279.269 144.142 279.269 143.907 279.276 143.679C279.575 143.706 279.804 144.006 279.804 144.369Z" fill="#FFC32D"/>
<path d="M279.276 143.678C279.269 143.906 279.269 144.141 279.269 144.369C279.269 144.754 279.134 145.075 278.962 145.075C278.813 145.075 278.684 144.832 278.655 144.512V144.369C278.655 143.984 278.912 143.671 279.226 143.671C279.24 143.671 279.262 143.671 279.276 143.678Z" fill="#FFC32D"/>
<path d="M274.544 300.068V314.081H273.831V313.211H273.118V299.74H273.497L274.544 300.068Z" fill="#FFC32D"/>
<path d="M274.543 298.871V300.068L273.496 299.74H273.831V299.427C274.13 299.427 274.387 299.199 274.494 298.871H274.543V298.871Z" fill="#FFC32D"/>
<path d="M274.548 298.33V298.559C274.548 298.673 274.534 298.781 274.498 298.874H273.831V298.107L274.548 298.33Z" fill="#FFC32D"/>
<path d="M274.543 134.405V298.329L273.831 298.108V298.001H273.823V134.862C273.859 134.733 273.881 134.576 273.881 134.405C273.881 134.12 273.881 133.828 273.888 133.543C274.251 133.572 274.543 133.942 274.543 134.405Z" fill="#FFC32D"/>
<path d="M273.831 298.871H274.486C274.381 299.195 274.127 299.42 273.831 299.42V298.871Z" fill="#FFC32D"/>
<path d="M273.888 133.542C273.881 133.827 273.881 134.12 273.881 134.405C273.881 134.576 273.86 134.733 273.824 134.861V134.398C273.824 134.112 273.824 133.82 273.817 133.535C273.824 133.535 273.824 133.535 273.831 133.535C273.854 133.535 273.867 133.535 273.888 133.542Z" fill="#FFC32D"/>
<path d="M273.831 314.08V314.951L57.3423 315.042V314.173H58.055V313.303L273.118 313.211V314.08H273.831Z" fill="#FFC32D"/>
<path d="M273.835 313.211H273.118V314.085H273.835V313.211Z" fill="#FFC32D"/>
<path d="M273.824 299.425V299.734H273.493C273.373 299.734 273.268 299.614 273.197 299.418C273.296 299.41 273.388 299.368 273.472 299.305C273.571 299.382 273.69 299.425 273.824 299.425Z" fill="#FFC32D"/>
<path d="M273.827 298.871V299.42C273.693 299.42 273.574 299.377 273.475 299.3C273.609 299.209 273.715 299.053 273.771 298.871H273.827Z" fill="#FFC32D"/>
<path d="M273.832 298.108V298.875H273.774C273.81 298.782 273.824 298.674 273.824 298.567V298.101L273.832 298.108Z" fill="#FFC32D"/>
<path d="M273.831 298.001V298.117L273.824 298.11V298.001H273.831Z" fill="#FFC32D"/>
<path d="M273.828 298.101V298.567C273.828 298.674 273.813 298.782 273.778 298.875H273.169C273.147 298.804 273.125 298.732 273.125 298.646C273.169 298.273 273.32 298.002 273.499 298.002L273.828 298.101Z" fill="#FFC32D"/>
<path d="M273.823 298.001V298.101L273.497 298.001H273.823Z" fill="#FFC32D"/>
<path d="M273.825 134.861V298.001H273.497H273.119V135.267C273.204 135.267 273.276 135.253 273.354 135.21C273.354 135.217 273.361 135.21 273.361 135.21C273.405 135.253 273.447 135.274 273.497 135.274C273.631 135.274 273.753 135.11 273.825 134.861Z" fill="#FFC32D"/>
<path d="M273.827 134.397V134.863C273.754 135.114 273.633 135.279 273.497 135.279C273.447 135.279 273.404 135.257 273.361 135.214C273.633 135.1 273.827 134.777 273.827 134.397Z" fill="#FFC32D"/>
<path d="M273.819 133.535C273.826 133.822 273.826 134.116 273.826 134.403C273.826 134.094 273.683 133.815 273.482 133.657C273.583 133.578 273.697 133.535 273.819 133.535Z" fill="#FFC32D"/>
<path d="M273.169 298.871H273.767C273.711 299.054 273.606 299.209 273.472 299.3C273.33 299.209 273.225 299.054 273.169 298.871Z" fill="#FFC32D"/>
<path d="M273.482 133.657C273.681 133.813 273.824 134.091 273.824 134.398C273.824 134.776 273.631 135.096 273.36 135.21C273.36 135.21 273.353 135.217 273.353 135.21C273.232 135.103 273.147 134.868 273.118 134.576V134.405C273.118 134.077 273.261 133.792 273.482 133.657Z" fill="#FFC32D"/>
<path d="M273.367 122.637C273.646 126.229 273.802 129.864 273.817 133.535C273.695 133.535 273.582 133.578 273.482 133.656L273.474 133.649C273.368 133.571 273.246 133.535 273.118 133.535C273.125 129.864 273.204 126.222 273.367 122.609C273.367 122.616 273.367 122.63 273.367 122.637Z" fill="#FFC32D"/>
<path d="M273.118 298.001H273.491C273.315 298.001 273.167 298.269 273.124 298.634C273.117 298.606 273.117 298.578 273.117 298.55V298.001H273.118Z" fill="#FFC32D"/>
<path d="M273.492 299.736H273.119V299.427C273.147 299.427 273.175 299.427 273.196 299.42C273.266 299.616 273.372 299.736 273.492 299.736Z" fill="#FFC32D"/>
<path d="M273.475 133.649L273.482 133.656C273.261 133.792 273.119 134.077 273.119 134.405V134.576C273.112 134.526 273.112 134.462 273.112 134.405C273.112 134.112 273.112 133.827 273.119 133.535C273.247 133.535 273.368 133.571 273.475 133.649Z" fill="#FFC32D"/>
<path d="M273.47 299.3C273.386 299.363 273.294 299.405 273.195 299.413C273.16 299.307 273.131 299.187 273.118 299.046V298.87H273.167C273.224 299.054 273.329 299.209 273.47 299.3Z" fill="#FFC32D"/>
<path d="M273.35 135.203C273.273 135.245 273.203 135.259 273.118 135.259V134.576C273.146 134.864 273.231 135.097 273.35 135.203Z" fill="#FFC32D"/>
<path d="M273.196 299.416C273.175 299.423 273.147 299.423 273.119 299.423V299.05C273.132 299.19 273.16 299.31 273.196 299.416Z" fill="#FFC32D"/>
<path d="M273.169 298.868H273.12V299.044C273.113 298.987 273.113 298.931 273.113 298.868C273.113 298.79 273.12 298.713 273.127 298.642C273.126 298.727 273.147 298.797 273.169 298.868Z" fill="#FFC32D"/>
<path d="M273.368 122.609C273.205 126.223 273.126 129.865 273.119 133.536H273.111C272.719 133.536 272.399 133.92 272.399 134.398C272.399 65.1549 224.324 8.81966 165.223 8.81966C106.13 8.81966 58.0553 65.1549 58.0553 134.398H57.3425C57.3425 130.392 57.2642 126.415 57.1002 122.474C62.2462 57.8422 108.774 7.08057 165.223 7.08057C221.723 7.08057 268.273 57.9206 273.368 122.609Z" fill="#FFC32D"/>
<path d="M273.118 298.558C273.118 298.586 273.118 298.614 273.125 298.643C273.118 298.715 273.111 298.792 273.111 298.871C273.111 298.935 273.111 298.992 273.118 299.049V299.427H273.111C272.719 299.427 272.398 299.035 272.398 298.564V298.001H273.118V298.558Z" fill="#FFC32D"/>
<path d="M273.119 299.74V313.211L58.0555 313.304V299.74H63.1517L63.0946 299.904L63.7931 300.232C66.2592 301.365 70.5784 300.553 74.7551 299.769L74.9191 299.74H85.04C86.4655 301.479 87.6344 302.335 88.5895 302.335C88.7819 302.335 88.9672 302.3 89.1383 302.228C89.8653 301.944 90.3143 301.124 90.4854 299.819C90.4925 299.798 90.4925 299.769 90.4925 299.741H113.985H220.739H242.77C242.898 300.247 243.091 300.767 243.39 301.273C244.331 302.792 245.293 303.091 246.412 303.091C246.74 303.091 247.089 303.062 247.453 303.041L248.501 302.97L248.615 302.314C248.686 301.915 248.707 301.302 248.743 300.589C248.758 300.318 248.764 300.033 248.779 299.741H255.65C256.106 299.998 256.555 300.226 256.975 300.418C258.372 301.081 264.238 301.893 265.856 300.347L266.063 300.147L266.113 299.826C266.12 299.806 266.12 299.769 266.127 299.741H273.119V299.74Z" fill="#FFC32D"/>
<path d="M273.118 299.427V299.74H266.126C266.176 299.34 266.105 298.921 265.92 298.472C265.855 298.314 265.777 298.158 265.685 298.001H272.399V298.564C272.399 299.035 272.719 299.427 273.111 299.427H273.118Z" fill="#FFC32D"/>
<path d="M273.118 135.267V298H272.398V134.397C272.398 134.889 272.719 135.267 273.111 135.267H273.118Z" fill="#FFC32D"/>
<path d="M273.118 134.576V135.267H273.111C272.719 135.267 272.398 134.889 272.398 134.398C272.398 133.92 272.719 133.535 273.111 133.535H273.118C273.111 133.827 273.111 134.112 273.111 134.405C273.112 134.462 273.112 134.526 273.118 134.576Z" fill="#FFC32D"/>
<path d="M272.399 134.398V298.001H265.685C264.352 295.756 260.111 292.834 255.492 289.805C254.202 288.957 253.083 288.222 252.669 287.866C249.498 285.15 247.317 281.822 245.015 278.3C244.602 277.666 244.189 277.032 243.76 276.384C236.597 265.614 231.744 254.681 229.342 243.876C228.316 239.293 228.109 235.529 228.109 230.576C228.109 229.656 228.13 228.723 228.152 227.797C228.166 226.963 228.187 226.115 228.187 225.281C228.187 225.081 228.187 224.875 228.187 224.675C228.187 223.534 228.166 222.665 228.109 221.867C227.696 215.331 226.905 209.928 224.367 204.804C223.134 202.302 221.865 199.715 220.497 197.214C219.649 195.653 218.708 194.37 217.71 193.03C217.268 192.417 216.819 191.811 216.37 191.155C213.141 186.48 208.701 182.439 202.393 178.433C201.438 177.82 200.405 177.327 199.407 176.836C199.05 176.665 198.694 176.494 198.359 176.316C197.055 175.66 195.38 174.991 193.883 174.549C193.006 174.285 192.137 174.314 191.296 174.327L191.089 174.335C190.868 174.335 190.647 174.335 190.419 174.32C189.97 174.306 189.521 174.249 189.101 174.092C188.145 173.744 187.162 173.009 186.299 172.354C185.416 171.691 184.468 170.301 184.525 169.453C184.532 169.332 184.56 168.947 185.216 168.626C185.687 168.398 186.684 168.548 187.483 168.669C188.031 168.747 188.545 168.819 188.979 168.819C189.763 168.79 190.547 168.733 191.303 168.669C191.959 168.619 192.607 168.562 193.27 168.541C195.494 168.434 197.197 167.792 199.165 166.31L199.257 166.246C202.842 163.559 205.437 161.613 207.938 157.301C214.396 146.139 213.655 131.286 206.171 121.984C205.765 121.478 205.358 120.958 204.959 120.423C204.154 119.376 203.334 118.292 202.422 117.337C201.075 115.94 194.952 111.592 192.9 111.065C184.468 108.891 172.629 110.295 165.181 118.356C162.159 121.628 160.626 126.696 159.393 130.765C158.374 134.129 156.984 139.133 156.649 143.844C156.343 148.113 157.041 154.051 159.914 157.899C161.054 159.439 162.501 160.829 163.905 162.183C164.183 162.447 164.454 162.71 164.718 162.974C164.753 163.003 164.789 163.038 164.825 163.074C165.131 163.373 165.473 163.801 165.83 164.243C166.393 164.941 166.963 165.661 167.576 166.132C167.604 166.773 167.69 167.386 167.775 167.971C167.832 168.341 167.882 168.698 167.911 169.047C165.922 169.09 163.763 168.954 161.033 168.64C159.964 168.534 158.902 168.398 157.833 168.263C153.485 167.721 148.987 167.165 144.504 167.636C138.966 168.206 134.041 172.774 131.604 175.44C126.942 180.535 123.564 187.143 120.292 193.529C118.468 197.086 116.586 200.763 114.54 204.035C113.129 206.308 111.846 208.803 110.62 211.654C110.549 211.825 110.471 211.996 110.407 212.167C108.539 216.565 107.028 221.247 105.574 225.774L104.861 227.976C103.151 233.221 100.849 238.211 98.6249 243.044C97.2565 246.002 95.8452 249.059 94.5765 252.16C93.4433 254.932 92.4241 257.812 91.4405 260.607C89.5945 265.83 87.6772 271.226 84.9616 276.044L84.8262 275.98C84.8191 276.015 84.8048 276.052 84.7906 276.072L84.7549 276.165C82.802 281.646 79.0601 284.94 75.3111 287.691C72.845 289.487 70.7566 290.734 68.3476 291.845C65.9884 292.929 64.8124 295.345 63.7931 298.004H58.0555V134.401C58.0555 65.158 106.13 8.82269 165.224 8.82269C224.324 8.81984 272.399 65.1551 272.399 134.398Z" fill="#FFC32D"/>
<path d="M265.92 298.472C266.105 298.921 266.176 299.341 266.126 299.74H265.285V298.001H265.684C265.777 298.158 265.855 298.315 265.92 298.472Z" fill="#FFC32D"/>
<path d="M265.286 299.74H266.127C266.119 299.769 266.119 299.805 266.112 299.826L266.062 300.146L265.856 300.346C264.238 301.893 258.372 301.079 256.975 300.417C256.554 300.225 256.105 299.997 255.65 299.74H255.793V298.002L255.828 297.945C255.914 297.987 255.991 298.03 256.07 298.073C256.562 298.344 257.04 298.586 257.496 298.793C258.708 299.377 263.105 299.841 264.616 299.199C263.675 297.154 257.923 293.376 254.823 291.338C253.376 290.39 252.329 289.705 251.851 289.3C248.508 286.427 246.27 283.006 243.904 279.378C243.491 278.751 243.077 278.123 242.657 277.483C235.365 266.521 230.419 255.366 227.967 244.325C226.898 239.564 226.684 235.679 226.684 230.576C226.684 229.636 226.705 228.702 226.727 227.754C226.734 227.405 226.741 227.049 226.748 226.7C227.019 226.158 227.276 225.659 227.575 225.281H228.188C228.188 226.115 228.167 226.963 228.152 227.797C228.131 228.724 228.11 229.657 228.11 230.576C228.11 235.53 228.316 239.293 229.343 243.876C231.745 254.681 236.598 265.615 243.761 276.384C244.189 277.033 244.602 277.667 245.016 278.301C247.317 281.822 249.499 285.15 252.67 287.866C253.083 288.223 254.202 288.956 255.492 289.805C260.111 292.834 264.353 295.757 265.685 298.002H265.286V299.74Z" fill="#FFC32D"/>
<path d="M255.827 297.944L255.792 298.001H252.413C251.223 297.466 249.441 297.153 249.021 297.722C249.021 297.737 248.992 297.801 248.956 298.001H248.122V299.739H248.777C248.763 300.031 248.757 300.317 248.742 300.587C248.706 301.3 248.685 301.913 248.614 302.312L248.5 302.968L247.452 303.039C247.088 303.061 246.739 303.089 246.411 303.089C245.292 303.089 244.33 302.79 243.389 301.272C243.09 300.766 242.897 300.245 242.769 299.739H243.304V298.001L243.853 297.894C243.867 297.937 243.874 297.987 243.882 298.029C243.917 298.236 243.953 298.45 244.003 298.657C244.109 299.198 244.245 299.754 244.53 300.232C245.271 301.429 245.869 301.415 247.281 301.308C247.295 301.052 247.302 300.773 247.316 300.503C247.338 299.94 247.366 299.334 247.417 298.785C247.509 297.623 247.666 296.96 247.959 296.561C249.255 294.823 252.563 296.156 253.382 296.605L254.195 297.054C254.743 297.359 255.293 297.659 255.827 297.944Z" fill="#FFC32D"/>
<path d="M255.792 298.001V299.74H255.65C255.6 299.719 255.549 299.69 255.5 299.662C254.887 299.355 254.245 298.998 253.604 298.636L252.799 298.194C252.678 298.129 252.556 298.065 252.414 298.001H255.792Z" fill="#FFC32D"/>
<path d="M255.65 299.74H248.778C248.793 299.484 248.807 299.214 248.828 298.963C248.864 298.493 248.914 298.194 248.957 298.001H252.414C252.557 298.065 252.678 298.129 252.799 298.194L253.604 298.636C254.245 298.999 254.887 299.355 255.5 299.662C255.549 299.69 255.599 299.719 255.65 299.74Z" fill="#FFC32D"/>
<path d="M248.122 298.001H248.956C248.913 298.194 248.863 298.492 248.828 298.963C248.806 299.214 248.792 299.484 248.778 299.74H248.122V298.001Z" fill="#FFC32D"/>
<path d="M243.853 297.894L243.304 298.001H242.406C242.292 297.366 242.149 296.789 241.857 296.312C241.166 295.171 239.377 294.337 238.072 293.717C237.837 293.617 237.616 293.51 237.41 293.404C229.484 289.555 221.644 282.912 214.723 274.224C210.867 269.37 209.27 263.269 207.731 257.368C206.783 253.719 205.799 249.955 204.288 246.548C204.082 246.085 203.825 245.529 203.547 244.988C202.656 243.27 202.015 241.688 201.38 239.748C201.687 239.363 201.958 238.993 202.207 238.636C202.293 238.501 202.385 238.38 202.464 238.251C202.528 238.515 202.599 238.758 202.678 239.007C203.283 240.889 203.904 242.407 204.752 244.068C204.916 244.381 205.072 244.702 205.215 245.008C205.101 245.065 204.987 245.122 204.873 245.179L205.4 246.798C205.564 246.72 205.728 246.634 205.892 246.548C207.275 249.856 208.194 253.404 209.092 256.833C210.646 262.806 212.121 268.451 215.749 273.012C222.527 281.529 230.197 288.023 237.944 291.786C238.144 291.893 238.358 291.985 238.586 292.099C240.132 292.827 242.064 293.724 243.005 295.271C243.504 296.098 243.696 297.046 243.853 297.894Z" fill="#FFC32D"/>
<path d="M243.304 298.001V299.739H242.77C242.706 299.519 242.656 299.29 242.613 299.084C242.57 298.856 242.528 298.628 242.484 298.4C242.463 298.265 242.435 298.136 242.406 298H243.304V298.001Z" fill="#FFC32D"/>
<path d="M242.77 299.74H220.739V299.071L222.122 298.671C222.079 298.45 222.036 298.222 221.986 298.002H242.406C242.435 298.136 242.463 298.265 242.484 298.401C242.528 298.629 242.57 298.858 242.613 299.085C242.656 299.291 242.706 299.519 242.77 299.74Z" fill="#FFC32D"/>
<path d="M242.406 298.001H221.986C221.337 294.829 220.454 291.964 219.285 289.248C217.332 284.722 214.395 280.432 210.554 276.505C209.684 275.621 208.779 274.794 207.902 273.995C205.771 272.056 203.761 270.232 202.293 267.588C199.777 263.069 198.074 257.659 197.482 252.364C196.869 246.776 197.567 244.232 200.732 240.54C200.967 240.269 201.181 239.998 201.381 239.748C202.015 241.688 202.656 243.269 203.547 244.988C203.825 245.529 204.082 246.085 204.289 246.548C205.8 249.955 206.783 253.719 207.731 257.368C209.271 263.269 210.867 269.371 214.723 274.224C221.644 282.912 229.484 289.555 237.41 293.404C237.617 293.511 237.837 293.618 238.073 293.717C239.377 294.337 241.166 295.171 241.857 296.312C242.15 296.789 242.292 297.367 242.406 298.001Z" fill="#FFC32D"/>
<path d="M228.187 224.674C228.187 224.873 228.187 225.08 228.187 225.28H227.574L226.761 224.346V224.338C226.754 223.412 226.733 222.686 226.69 222.015C226.291 215.714 225.535 210.533 223.14 205.7C221.922 203.213 220.66 200.647 219.306 198.181C218.515 196.719 217.61 195.487 216.654 194.182C216.198 193.562 215.735 192.935 215.279 192.279C212.178 187.781 207.873 183.869 201.73 179.963C200.846 179.4 199.848 178.922 198.886 178.452C198.515 178.274 198.152 178.096 197.802 177.925C196.569 177.29 194.973 176.657 193.54 176.236C192.949 176.058 192.321 176.05 191.659 176.058L191.787 175.409L191.801 175.188L191.074 175.195L190.397 174.996L190.418 174.319C190.646 174.334 190.867 174.334 191.088 174.334L191.295 174.326C192.136 174.312 193.006 174.283 193.882 174.548C195.379 174.989 197.054 175.659 198.358 176.314C198.693 176.493 199.05 176.664 199.406 176.835C200.404 177.326 201.437 177.818 202.392 178.431C208.7 182.436 213.141 186.478 216.369 191.154C216.818 191.81 217.267 192.415 217.709 193.028C218.707 194.368 219.648 195.651 220.496 197.212C221.865 199.714 223.133 202.301 224.366 204.803C226.904 209.927 227.695 215.33 228.108 221.865C228.165 222.664 228.187 223.534 228.187 224.674Z" fill="#FFC32D"/>
<path d="M226.761 224.346L227.573 225.28C227.274 225.657 227.018 226.156 226.747 226.698C226.761 226.021 226.768 225.35 226.761 224.674V224.346Z" fill="#FFC32D"/>
<path d="M226.762 224.674C226.769 225.35 226.762 226.021 226.748 226.698C226.741 226.712 226.733 226.727 226.726 226.741C226.463 227.275 226.185 227.825 225.842 228.316C224.759 229.899 223.49 231.324 221.972 232.678L221.816 232.813C219.378 234.972 217.069 237.011 214.98 239.492C212.571 242.357 209.521 244.723 205.893 246.547C205.786 246.276 205.665 245.998 205.544 245.728C205.444 245.5 205.337 245.258 205.216 245.008C208.73 243.254 211.687 240.981 213.99 238.252C216.149 235.679 218.494 233.604 220.974 231.409L221.131 231.274C222.557 229.998 223.74 228.665 224.752 227.204C225.023 226.804 225.265 226.335 225.515 225.836C225.814 225.229 226.135 224.603 226.534 224.082L226.762 224.338V224.346V224.674Z" fill="#FFC32D"/>
<path d="M221.986 298.001C222.036 298.222 222.078 298.45 222.121 298.67L220.739 299.07C220.667 298.714 220.596 298.358 220.518 298.001H221.986Z" fill="#FFC32D"/>
<path d="M221.986 298.001H220.518C219.898 295.128 219.085 292.52 218.023 290.06C216.156 285.735 213.333 281.614 209.634 277.837C208.8 276.982 207.909 276.177 207.047 275.393C204.916 273.453 202.713 271.451 201.11 268.565C198.48 263.825 196.684 258.158 196.071 252.592C195.401 246.477 196.256 243.362 199.741 239.285C200.162 238.793 200.518 238.337 200.846 237.895L200.86 237.902L200.981 238.331C201.096 238.765 201.21 239.193 201.345 239.634C201.359 239.671 201.366 239.713 201.381 239.748C201.181 239.998 200.967 240.269 200.732 240.539C197.567 244.231 196.869 246.776 197.482 252.364C198.073 257.66 199.777 263.07 202.293 267.588C203.761 270.232 205.771 272.057 207.902 273.995C208.779 274.793 209.684 275.62 210.554 276.504C214.395 280.432 217.332 284.722 219.285 289.248C220.454 291.965 221.337 294.829 221.986 298.001Z" fill="#FFC32D"/>
<path d="M220.739 299.07V299.74H113.984V298.941C114.006 298.628 114.034 298.314 114.063 298.001H220.518C220.597 298.358 220.668 298.714 220.739 299.07Z" fill="#FFC32D"/>
<path d="M206.17 121.982C213.654 131.283 214.395 146.136 207.938 157.298C205.436 161.61 202.842 163.556 199.256 166.243L199.164 166.307C197.197 167.79 195.493 168.431 193.269 168.538C192.607 168.559 191.958 168.616 191.302 168.666C190.547 168.73 189.763 168.787 188.979 168.816C188.544 168.816 188.031 168.745 187.482 168.666C186.684 168.545 185.686 168.395 185.215 168.623C184.56 168.944 184.531 169.329 184.524 169.45C184.467 170.298 185.415 171.688 186.299 172.351C187.161 173.007 188.145 173.741 189.1 174.089C189.52 174.247 189.969 174.304 190.418 174.318L190.397 174.995L190.19 176.057H190.183C189.691 176.02 189.193 175.943 188.686 175.749C187.56 175.344 186.491 174.546 185.55 173.839C184.538 173.07 182.97 171.167 183.106 169.299C183.149 168.686 183.384 167.895 184.196 167.303C184.196 167.517 184.218 167.738 184.253 167.966L185.657 167.66C185.607 167.346 185.607 167.047 185.65 166.769C186.277 166.726 186.976 166.833 187.66 166.94C188.152 167.011 188.615 167.083 188.943 167.075C189.699 167.047 190.468 166.99 191.21 166.926C191.88 166.876 192.55 166.826 193.22 166.797C195.194 166.712 196.655 166.156 198.415 164.83L198.508 164.759C202.079 162.086 204.438 160.311 206.776 156.299C212.834 145.821 212.15 131.894 205.151 123.206C204.737 122.679 204.324 122.144 203.911 121.602C203.141 120.59 202.343 119.543 201.495 118.659C200.155 117.269 194.303 113.199 192.607 112.764C184.524 110.676 173.199 111.995 166.128 119.657C163.37 122.629 161.909 127.468 160.733 131.367C159.742 134.624 158.388 139.485 158.067 143.997C157.803 147.717 158.402 153.291 160.968 156.733C161.83 157.895 162.921 159.007 164.026 160.083C164.154 161.851 164.453 162.571 164.731 162.956L164.717 162.97C164.453 162.706 164.182 162.443 163.904 162.179C162.5 160.825 161.053 159.435 159.913 157.895C157.041 154.046 156.342 148.109 156.649 143.84C156.984 139.129 158.374 134.125 159.393 130.761C160.626 126.691 162.158 121.624 165.18 118.352C172.628 110.291 184.467 108.887 192.899 111.061C194.952 111.588 201.074 115.936 202.421 117.333C203.333 118.288 204.153 119.371 204.958 120.419C205.358 120.955 205.764 121.475 206.17 121.982Z" fill="#FFC32D"/>
<path d="M205.892 246.548C205.728 246.633 205.564 246.719 205.4 246.798L204.873 245.179C204.987 245.122 205.101 245.065 205.215 245.008C205.336 245.259 205.443 245.5 205.543 245.729C205.664 245.999 205.785 246.277 205.892 246.548Z" fill="#FFC32D"/>
<path d="M205.166 223.307C205.957 229.806 205.173 234.176 202.464 238.253C202.421 238.103 202.379 237.953 202.336 237.804L202.215 237.355L200.861 237.903L200.846 237.896C200.939 237.768 201.032 237.64 201.117 237.511C203.776 233.698 204.51 229.785 203.754 223.563C203.712 223.2 203.626 222.765 203.533 222.302C203.22 220.798 202.842 218.909 203.712 217.476L204.852 218.509C204.382 219.286 204.652 220.605 204.916 221.88C205.017 222.386 205.109 222.857 205.166 223.307Z" fill="#FFC32D"/>
<path d="M202.335 237.802C202.378 237.952 202.421 238.102 202.464 238.251C202.385 238.38 202.292 238.501 202.207 238.636C201.957 238.992 201.687 239.363 201.38 239.748C201.366 239.712 201.359 239.67 201.345 239.634C201.209 239.193 201.095 238.764 200.981 238.33L200.86 237.902L202.214 237.353L202.335 237.802Z" fill="#FFC32D"/>
<path d="M195.75 154.041C195.936 158.254 192.728 160.399 189.906 162.288C187.468 163.92 185.865 165.117 185.651 166.771C185.302 166.799 184.981 166.871 184.689 167.006C184.503 167.099 184.339 167.199 184.197 167.306C184.097 164.198 186.699 162.459 189.222 160.77C191.837 159.009 194.318 157.349 194.332 154.398C194.567 154.498 194.81 154.547 195.052 154.555C195.137 154.555 195.23 154.547 195.316 154.533L195.251 154.077L195.75 154.041Z" fill="#FFC32D"/>
<path d="M195.251 154.077L195.315 154.533C195.23 154.547 195.137 154.554 195.051 154.554C194.809 154.547 194.567 154.497 194.332 154.397C194.332 154.312 194.332 154.226 194.324 154.134L195.251 154.077Z" fill="#FFC32D"/>
<path d="M195.067 152.815L195.252 154.076L194.326 154.133C194.333 154.226 194.333 154.311 194.333 154.397C192.088 153.477 190.406 148.581 188.745 143.185C188.41 142.095 188.032 140.869 187.847 140.484C187.897 140.513 187.947 140.534 187.989 140.563L188.303 139.764L188.674 139.037C189.073 139.344 189.308 140.078 190.078 142.572C191.096 145.88 193.213 152.765 195.067 152.815Z" fill="#FFC32D"/>
<path d="M191.801 175.188L191.787 175.41L191.659 176.058C191.552 176.058 191.438 176.058 191.324 176.066L191.103 176.073C190.804 176.073 190.497 176.073 190.191 176.058L190.397 174.996L191.074 175.196L191.801 175.188Z" fill="#FFC32D"/>
<path d="M188.744 143.186C190.405 148.582 192.087 153.478 194.332 154.398C194.318 157.348 191.837 159.009 189.222 160.769C186.698 162.459 184.097 164.198 184.197 167.305C183.384 167.897 183.149 168.688 183.106 169.301C182.971 171.168 184.539 173.071 185.551 173.841C186.492 174.547 187.561 175.345 188.687 175.751C189.193 175.944 189.692 176.022 190.184 176.059H190.191L190.177 176.136C189.371 180.206 188.794 183.142 186.477 184.924C183.712 187.048 179.507 189.529 175.152 189.358C170.156 189.123 165.965 186.799 163.349 182.822C161.339 179.772 160.762 175.823 161.546 170.449C164.368 170.741 166.592 170.834 168.666 170.763H168.83V170.193L169.364 170.257C169.379 170.128 169.379 170.007 169.379 169.915C169.393 169.116 169.286 168.382 169.179 167.67C169.079 166.971 168.98 166.308 169.001 165.645L169.022 165.054L168.58 164.819C168.053 164.519 167.44 163.764 166.849 163.03C166.514 162.609 166.164 162.181 165.815 161.832C165.808 161.825 165.801 161.811 165.794 161.797C165.63 161.511 165.074 160 165.601 152.944C165.772 150.635 166.064 147.228 166.727 144.292C167.383 141.376 169.094 138.803 170.747 136.323L171.538 135.111C172.586 133.501 174.118 131.127 175.594 130.443C176.321 132.089 177.39 133.158 178.438 134.199C178.88 134.641 179.336 135.104 179.771 135.61C181.082 137.121 183.52 138.319 185.665 139.366C186.47 139.766 187.233 140.136 187.846 140.485C188.031 140.87 188.409 142.096 188.744 143.186Z" fill="#FFC32D"/>
<path d="M191.658 176.057L191.558 176.548C190.746 180.668 190.04 184.232 187.239 186.399C184.409 188.572 180.14 191.103 175.621 191.103C175.45 191.103 175.272 191.103 175.101 191.088C169.684 190.838 165.115 188.287 162.236 183.911C159.342 179.506 159.549 174.196 160.119 170.283C160.376 170.319 160.639 170.355 160.903 170.376C161.124 170.405 161.338 170.419 161.544 170.447C160.76 175.821 161.338 179.77 163.348 182.82C165.963 186.797 170.154 189.121 175.151 189.356C179.506 189.527 183.711 187.047 186.476 184.922C188.793 183.141 189.37 180.204 190.175 176.134L190.19 176.057C190.496 176.071 190.803 176.071 191.102 176.071L191.323 176.064C191.437 176.057 191.551 176.057 191.658 176.057Z" fill="#FFC32D"/>
<path d="M187.831 140.442C187.831 140.449 187.838 140.463 187.845 140.484C187.232 140.135 186.47 139.764 185.664 139.365C183.519 138.318 181.082 137.12 179.77 135.609C179.335 135.103 178.879 134.64 178.437 134.198C177.389 133.157 176.32 132.088 175.593 130.442C175.729 130.37 175.864 130.328 176 130.292L175.8 129.102L176.52 128.717L176.548 128.802C176.57 128.867 176.584 128.931 176.613 128.995C177.204 130.72 178.195 131.71 179.342 132.858C179.806 133.321 180.283 133.799 180.754 134.348C181.866 135.631 184.168 136.757 186.199 137.755C187.083 138.189 187.917 138.596 188.601 138.995L188.302 139.764L187.917 140.513C187.881 140.491 187.853 140.463 187.831 140.442Z" fill="#FFC32D"/>
<path d="M187.918 140.518L188.305 139.765L187.99 140.568C187.947 140.539 187.896 140.518 187.846 140.489C187.839 140.467 187.832 140.453 187.832 140.446C187.853 140.467 187.882 140.496 187.918 140.518Z" fill="#FFC32D"/>
<path d="M185.658 167.662L184.253 167.968C184.218 167.74 184.196 167.519 184.196 167.305C184.339 167.198 184.503 167.098 184.688 167.006C184.98 166.87 185.301 166.799 185.65 166.771C185.608 167.049 185.608 167.348 185.658 167.662Z" fill="#FFC32D"/>
<path d="M175.8 129.102L176 130.292C175.864 130.328 175.729 130.371 175.593 130.442C175.494 130.214 175.401 129.971 175.315 129.715C175.287 129.651 175.251 129.537 175.216 129.408L175.8 129.102Z" fill="#FFC32D"/>
<path d="M175.715 128.589L175.8 129.102L175.216 129.409C175.251 129.537 175.287 129.651 175.315 129.715C175.401 129.972 175.494 130.214 175.593 130.442C174.118 131.126 172.586 133.5 171.538 135.11L170.747 136.322C169.093 138.802 167.383 141.376 166.727 144.291C166.064 147.227 165.772 150.634 165.601 152.943C165.073 159.999 165.629 161.511 165.793 161.796C165.765 161.767 165.743 161.746 165.715 161.724C165.415 161.418 165.102 161.126 164.781 160.819C164.532 160.577 164.275 160.335 164.026 160.085C163.904 158.574 163.919 156.293 164.182 152.794C164.353 150.42 164.66 146.899 165.351 143.834C166.085 140.563 167.974 137.726 169.635 135.225L170.419 134.034C171.766 131.953 173.612 129.102 175.715 128.589Z" fill="#FFC32D"/>
<path d="M169.179 167.669C169.286 168.382 169.393 169.116 169.379 169.914C169.379 170.007 169.379 170.128 169.364 170.256L168.83 170.192V169.023H168.645C168.402 169.03 168.153 169.045 167.91 169.045C167.882 168.695 167.832 168.339 167.775 167.968C167.689 167.384 167.604 166.771 167.575 166.13C166.962 165.659 166.392 164.939 165.829 164.241C165.473 163.799 165.131 163.371 164.824 163.072C164.789 163.036 164.753 163.001 164.717 162.972L164.732 162.958L165.815 161.832C166.164 162.181 166.513 162.609 166.848 163.029C167.44 163.763 168.053 164.519 168.58 164.818L169.022 165.053L169.001 165.645C168.979 166.308 169.079 166.971 169.179 167.669Z" fill="#FFC32D"/>
<path d="M168.83 170.192V170.762H168.666C166.592 170.833 164.368 170.74 161.545 170.448C161.581 170.199 161.624 169.942 161.667 169.686L160.27 169.336C160.22 169.643 160.17 169.956 160.12 170.284C159.307 170.199 158.495 170.092 157.69 169.985C153.406 169.457 148.973 168.909 144.625 169.358C139.5 169.899 134.86 174.211 132.551 176.735C128.047 181.66 124.718 188.167 121.496 194.447C119.665 198.039 117.762 201.753 115.68 205.088C114.362 207.205 113.157 209.529 112.003 212.18C111.988 212.087 111.967 211.987 111.953 211.888L110.556 212.23L110.406 212.165C110.47 211.995 110.549 211.824 110.62 211.652C111.846 208.801 113.129 206.306 114.54 204.033C116.586 200.761 118.467 197.084 120.292 193.528C123.563 187.141 126.942 180.534 131.603 175.438C134.041 172.772 138.966 168.204 144.504 167.634C148.987 167.163 153.484 167.719 157.832 168.261C158.901 168.396 159.963 168.532 161.032 168.639C163.762 168.952 165.922 169.088 167.91 169.045C167.946 169.33 167.96 169.608 167.953 169.893V170.085L168.83 170.192Z" fill="#FFC32D"/>
<path d="M168.83 169.023V170.192L167.954 170.085V169.893C167.961 169.608 167.946 169.33 167.911 169.045C168.153 169.045 168.403 169.03 168.645 169.023H168.83Z" fill="#FFC32D"/>
<path d="M165.793 161.796C165.8 161.81 165.807 161.824 165.814 161.831L164.731 162.957C164.453 162.573 164.154 161.853 164.025 160.085C164.275 160.335 164.531 160.577 164.781 160.819C165.102 161.126 165.415 161.418 165.715 161.724C165.743 161.746 165.764 161.767 165.793 161.796Z" fill="#FFC32D"/>
<path d="M160.269 169.336L161.666 169.685C161.623 169.942 161.581 170.199 161.545 170.448C161.338 170.419 161.124 170.405 160.903 170.377C160.64 170.355 160.376 170.32 160.119 170.284C160.169 169.956 160.219 169.643 160.269 169.336Z" fill="#FFC32D"/>
<path d="M133.478 250.86C133.571 253.099 133.692 256.17 132.437 258.429C131.254 260.547 129.715 262.442 128.218 264.267C127.106 265.635 125.951 267.039 124.989 268.508C122.666 272.063 120.47 276.063 118.467 280.382C116.066 285.592 114.619 291.357 114.063 298.001H112.63C113.193 291.045 114.697 284.993 117.227 279.534C119.266 275.122 121.504 271.059 123.877 267.424C124.882 265.878 126.065 264.431 127.206 263.042C128.653 261.274 130.149 259.441 131.254 257.453C132.166 255.8 132.152 253.44 132.06 250.938C131.953 248.23 131.19 245.693 130.285 243.148C130.363 243.076 130.449 243.013 130.527 242.949C130.698 242.806 130.869 242.664 131.047 242.507L131.126 242.435L131.539 242.286C132.523 245.045 133.364 247.809 133.478 250.86Z" fill="#FFC32D"/>
<path d="M132.059 250.939C132.151 253.44 132.166 255.799 131.253 257.453C130.149 259.442 128.652 261.273 127.205 263.042C126.065 264.431 124.881 265.878 123.876 267.424C121.503 271.06 119.265 275.122 117.227 279.534C114.696 284.993 113.192 291.045 112.629 298.001H90.5985C90.5985 297.273 90.5415 296.64 90.4987 296.112C90.2992 293.981 90.2208 293.09 95.8586 289.641L95.5378 288.871L95.9441 289.584C101.66 284.695 106.407 278.779 110.292 273.632C111.411 272.15 112.587 270.682 113.72 269.256C116.329 265.992 119.023 262.613 121.275 258.843C122.387 256.983 123.328 254.923 124.233 252.934C125.117 250.996 126.029 248.986 127.091 247.204C127.968 245.714 128.859 244.539 129.799 243.591C129.942 243.441 130.106 243.292 130.284 243.149C131.189 245.693 131.952 248.23 132.059 250.939Z" fill="#FFC32D"/>
<path d="M130.477 210.299L131.845 210.776C131.553 212.023 131.225 213.285 130.897 214.561C129.479 220.092 128.011 225.815 128.452 231.367C128.702 234.539 129.764 237.426 130.883 240.476L131.246 241.481C131.346 241.752 131.446 242.023 131.539 242.286L131.125 242.436L130.249 241.06L130.177 241.132C130.035 241.253 129.885 241.381 129.728 241.51C129.721 241.517 129.714 241.517 129.707 241.53L129.579 241.189C128.46 238.138 127.305 234.981 127.034 231.531C126.564 225.63 128.075 219.75 129.536 214.04C129.864 212.785 130.184 211.517 130.477 210.299Z" fill="#FFC32D"/>
<path d="M130.248 241.06L131.125 242.436L131.047 242.507C130.869 242.664 130.698 242.806 130.526 242.949C130.448 243.013 130.363 243.077 130.284 243.149C130.177 242.821 130.056 242.5 129.942 242.179L129.707 241.531C129.714 241.516 129.721 241.516 129.728 241.51C129.885 241.381 130.035 241.253 130.177 241.132L130.248 241.06Z" fill="#FFC32D"/>
<path d="M129.942 242.179C130.057 242.5 130.178 242.82 130.285 243.148C130.106 243.291 129.942 243.44 129.8 243.59C128.859 244.538 127.968 245.713 127.091 247.203C126.03 248.985 125.117 250.995 124.233 252.933C123.328 254.922 122.387 256.982 121.276 258.842C119.023 262.612 116.329 265.991 113.72 269.255C112.587 270.681 111.411 272.149 110.292 273.631C106.408 278.778 101.661 284.694 95.9446 289.583L95.5383 288.87L95.2176 288.093C95.1962 288.1 95.1891 288.122 95.1677 288.129C100.756 283.339 105.417 277.523 109.244 272.456C110.378 270.959 111.561 269.476 112.701 268.044C115.274 264.823 117.933 261.495 120.128 257.816C121.183 256.042 122.102 254.038 122.986 252.086C123.777 250.361 124.583 248.579 125.516 246.919C125.702 247.089 125.894 247.246 126.087 247.396C126.129 247.439 126.165 247.467 126.186 247.482L126.699 246.47L127.013 246.077L126.899 245.963C126.714 245.814 126.528 245.663 126.35 245.507C127.17 244.217 128.004 243.147 128.888 242.25C129.137 241.986 129.429 241.743 129.707 241.529L129.942 242.179Z" fill="#FFC32D"/>
<path d="M127.014 246.078L126.7 246.47L126.187 247.482C126.165 247.467 126.13 247.439 126.087 247.397C125.895 247.247 125.702 247.09 125.517 246.919C125.652 246.677 125.795 246.427 125.937 246.185C126.073 245.957 126.215 245.729 126.351 245.508C126.529 245.665 126.714 245.815 126.899 245.965L127.014 246.078Z" fill="#FFC32D"/>
<path d="M126.35 245.507C126.215 245.729 126.072 245.956 125.937 246.184C125.794 246.427 125.652 246.676 125.517 246.918C118.517 240.995 113.87 230.682 110.977 214.667V214.659C111.262 213.918 111.568 213.184 111.882 212.457C111.925 212.364 111.96 212.271 112.003 212.179C114.783 228.979 119.358 239.606 126.35 245.507Z" fill="#FFC32D"/>
<path d="M114.063 298.001C114.034 298.314 114.006 298.628 113.984 298.941L112.566 298.792C112.587 298.521 112.601 298.265 112.63 298.001H114.063Z" fill="#FFC32D"/>
<path d="M113.984 298.942V299.74H90.4921C90.5348 299.456 90.5562 299.185 90.5705 298.942C90.5919 298.614 90.599 298.301 90.599 298.002H112.63C112.601 298.265 112.587 298.521 112.566 298.792L113.984 298.942Z" fill="#FFC32D"/>
<path d="M111.953 211.887C111.967 211.987 111.989 212.086 112.003 212.179C111.96 212.272 111.925 212.364 111.882 212.457C111.568 213.185 111.262 213.919 110.977 214.659C110.827 213.862 110.691 213.056 110.556 212.23L111.953 211.887Z" fill="#FFC32D"/>
<path d="M110.976 214.66V214.668C109.451 218.495 108.161 222.5 106.899 226.406L106.18 228.609C104.44 233.969 102.117 239.016 99.8646 243.897C98.5104 246.834 97.1063 249.877 95.8519 252.935C94.74 255.665 93.7279 258.523 92.7515 261.289C90.8698 266.598 88.924 272.093 86.1087 277.062L86.0089 276.976C86.0232 276.955 86.0374 276.919 86.0445 276.891C86.0873 276.791 86.1301 276.691 86.1586 276.599L84.9612 276.043C87.6767 271.224 89.594 265.829 91.44 260.605C92.4236 257.811 93.4428 254.931 94.5761 252.159C95.8448 249.058 97.256 246 98.6245 243.043C100.848 238.21 103.15 233.221 104.861 227.975L105.574 225.773C107.028 221.246 108.539 216.564 110.406 212.166L110.556 212.231C110.691 213.056 110.827 213.862 110.976 214.66Z" fill="#FFC32D"/>
<path d="M95.5382 288.871L95.859 289.64C90.2212 293.09 90.2996 293.981 90.4992 296.112C90.5419 296.64 90.599 297.274 90.599 298.001H89.8577V299.739H90.492C90.492 299.768 90.492 299.796 90.4849 299.818C90.3139 301.122 89.8648 301.942 89.1378 302.227C88.9668 302.299 88.7815 302.334 88.589 302.334C87.6339 302.334 86.465 301.478 85.0396 299.739H85.289V298H74.8046C79.3875 297.145 83.7139 296.353 85.7167 298.178C85.8236 298.256 85.9447 298.392 86.0303 298.491C87.5627 300.359 88.4251 300.679 88.6959 300.58C88.8599 300.516 89.0024 300.117 89.0808 299.54C89.1165 299.276 89.1378 299.026 89.1521 298.806C89.2162 297.801 89.145 297.002 89.0808 296.304C88.7957 293.189 89.2305 291.771 95.1605 288.128C95.1534 288.136 95.1392 288.143 95.132 288.157L95.5382 288.871Z" fill="#FFC32D"/>
<path d="M95.218 288.093L95.5405 288.875L95.132 288.158C95.1391 288.143 95.1534 288.137 95.1606 288.129H95.1678C95.1893 288.122 95.1965 288.1 95.218 288.093Z" fill="#FFC32D"/>
<path d="M89.8574 298.001H90.5987C90.5987 298.301 90.5915 298.613 90.5702 298.941C90.5559 299.184 90.5345 299.455 90.4918 299.74H89.8574V298.001Z" fill="#FFC32D"/>
<path d="M84.9611 276.041L86.1585 276.597C86.13 276.69 86.0872 276.79 86.0444 276.889C86.0373 276.918 86.0231 276.954 86.0088 276.975L84.9397 276.069C84.9475 276.063 84.954 276.049 84.9611 276.041Z" fill="#FFC32D"/>
<path d="M84.9394 276.07L86.0085 276.976C83.8845 282.834 79.9644 286.305 76.0443 289.17C73.4998 291.03 71.3473 292.321 68.8456 293.468C66.9426 294.345 65.9661 296.404 65.0395 298.857C66.8285 299.298 69.537 298.95 72.3737 298.451V299.741H74.9182L74.7542 299.769C70.5776 300.554 66.2583 301.366 63.7922 300.232L63.0938 299.905L63.1508 299.741H64.0488V298.002H63.7922C64.8115 295.344 65.9875 292.928 68.3467 291.843C70.7558 290.732 72.8441 289.484 75.3102 287.689C79.0592 284.938 82.8011 281.645 84.754 276.163L84.7897 276.07C84.8039 276.05 84.8182 276.013 84.8253 275.978L84.9607 276.042C84.9536 276.049 84.9472 276.063 84.9394 276.07Z" fill="#FFC32D"/>
<path d="M85.2893 298.001V299.739H85.0398C85.0327 299.732 85.0327 299.732 85.0256 299.725C84.9757 299.661 84.9329 299.632 84.9044 299.604C83.3292 298.163 78.8889 299.005 74.9688 299.732L74.9189 299.739H72.3744V298.449C73.0871 298.328 73.8141 298.186 74.534 298.057L74.755 298.014C74.7692 298.014 74.7906 298 74.8048 298H85.2893V298.001Z" fill="#FFC32D"/>
<path d="M85.039 299.74H74.9181L74.968 299.732C78.8881 299.005 83.3284 298.164 84.9036 299.604C84.9321 299.633 84.9749 299.661 85.0248 299.725C85.0319 299.732 85.0319 299.732 85.039 299.74Z" fill="#FFC32D"/>
<path d="M72.3744 298.001H74.8048C74.7906 298.001 74.7692 298.015 74.755 298.015L74.534 298.059C73.8141 298.187 73.0871 298.33 72.3744 298.451V298.001Z" fill="#FFC32D"/>
<path d="M64.0489 298.001V299.74H63.1509L63.3932 299.07C63.4502 298.906 63.5072 298.75 63.5643 298.593C63.6355 298.393 63.7139 298.208 63.7923 298.001H64.0489Z" fill="#FFC32D"/>
<path d="M58.055 298.001H63.7926C63.7142 298.208 63.6358 298.393 63.5645 298.593C63.5075 298.75 63.4505 298.906 63.3935 299.07L63.1511 299.74H58.055V298.87H57.3423V298.564H58.055V298.001Z" fill="#FFC32D"/>
<path d="M58.0591 313.304H57.3423V314.178H58.0591V313.304Z" fill="#FFC32D"/>
<path d="M58.0552 299.74V313.304H57.3425V314.173H56.6298V299.854L56.9719 299.74C57.1786 299.74 57.3425 299.355 57.3425 298.871V299.74H58.0552Z" fill="#FFC32D"/>
<path d="M58.0591 298.871H57.3423V299.745H58.0591V298.871Z" fill="#FFC32D"/>
<path d="M58.0465 298.001V298.558H57.3423V298.551V298.001H58.0465Z" fill="#FFC32D"/>
<path d="M58.055 134.397V298H57.3423V135.267C57.7343 135.267 58.055 134.889 58.055 134.397Z" fill="#FFC32D"/>
<path d="M57.3423 134.397H58.0591C58.0591 134.892 57.7365 135.272 57.3423 135.272V134.404V134.397Z" fill="#FFC32D"/>
<path d="M57.3425 298.558V298.565H57.3211C57.2641 298.237 57.1287 298.002 56.9719 298.002L56.6298 298.116V134.741C56.6868 135.054 56.8151 135.275 56.9719 135.275C57.0146 135.275 57.0645 135.254 57.1002 135.218C57.1714 135.254 57.257 135.268 57.3425 135.268V298.002V298.558Z" fill="#FFC32D"/>
<path d="M57.3439 134.405V135.273C57.2579 135.273 57.1719 135.258 57.1002 135.223C57.2436 135.101 57.3439 134.778 57.3439 134.405Z" fill="#FFC32D"/>
<path d="M57.3466 134.397V134.404C57.3466 134.777 57.2462 135.1 57.1029 135.221C56.8233 135.1 56.6298 134.791 56.6298 134.404V134.397H57.3466Z" fill="#FFC32D"/>
<path d="M57.3438 298.564C57.3438 298.61 57.3438 298.648 57.3362 298.687C57.3285 298.64 57.3208 298.602 57.3208 298.564H57.3438Z" fill="#FFC32D"/>
<path d="M57.3466 134.403H56.6298C56.6298 134.116 56.6297 133.822 56.6369 133.535C57.024 133.542 57.3466 133.922 57.3466 134.403Z" fill="#FFC32D"/>
<path d="M57.3411 298.866H57.2922C57.3132 298.81 57.3271 298.748 57.3341 298.678C57.3411 298.741 57.3411 298.803 57.3411 298.866Z" fill="#FFC32D"/>
<path d="M57.2926 298.871H57.3425C57.3425 299.355 57.1786 299.74 56.9719 299.74L56.6298 299.854V299.427C56.9291 299.427 57.1857 299.198 57.2926 298.871Z" fill="#FFC32D"/>
<path d="M57.3213 298.564C57.3213 298.599 57.3285 298.635 57.3356 298.678C57.3285 298.749 57.3142 298.813 57.2928 298.87H56.63V299.426C56.238 299.426 55.9172 299.034 55.9172 298.557V298.35L56.63 298.115V298.564H57.3213Z" fill="#FFC32D"/>
<path d="M57.3129 298.558H56.6298V298.114L56.9678 298.001C57.1227 298.001 57.2565 298.234 57.3129 298.558Z" fill="#FFC32D"/>
<path d="M56.6298 298.871H57.2847C57.1791 299.195 56.9255 299.42 56.6298 299.42V298.871Z" fill="#FFC32D"/>
<path d="M57.1003 122.474C57.2642 126.415 57.3426 130.392 57.3426 134.398C57.3426 133.92 57.0218 133.542 56.637 133.535C56.6512 129.829 56.808 126.173 57.0931 122.552C57.0931 122.523 57.1003 122.502 57.1003 122.474Z" fill="#FFC32D"/>
<path d="M57.0999 122.474C57.0999 122.502 57.0928 122.524 57.0928 122.552C56.8077 126.173 56.6509 129.829 56.6366 133.535H56.6295C56.6152 133.535 56.6081 133.535 56.5938 133.535C56.3943 64.9196 32.2822 4.09406 1.7411 3.6094V2.73985C1.7411 2.25518 1.57718 1.8703 1.37048 1.8703C30.8424 1.8703 54.4984 57.2861 57.0999 122.474Z" fill="#FFC32D"/>
<path d="M57.1029 135.223C57.067 135.258 57.0168 135.28 56.9738 135.28C56.8161 135.28 56.6871 135.058 56.6298 134.742V134.405C56.6298 134.793 56.8233 135.101 57.1029 135.223Z" fill="#FFC32D"/>
<path d="M56.6369 133.535C56.6298 133.82 56.6298 134.112 56.6298 134.398V134.405V134.74C56.6084 134.64 56.6013 134.526 56.6013 134.405C56.6013 134.112 56.6012 133.827 56.5941 133.535C56.6084 133.535 56.6155 133.535 56.6298 133.535H56.6369Z" fill="#FFC32D"/>
<path d="M56.6297 299.426V299.854L1.47046 317.958C1.62726 317.865 1.7413 317.529 1.7413 317.124V316.132L55.9169 298.35V298.557C55.9169 299.035 56.2377 299.426 56.6297 299.426Z" fill="#FFC32D"/>
<path d="M56.63 134.74V298.115L55.9172 298.35V134.405C55.9172 133.934 56.2166 133.557 56.5943 133.535C56.6015 133.827 56.6015 134.112 56.6015 134.405C56.6022 134.526 56.6086 134.64 56.63 134.74Z" fill="#FFC32D"/>
<path d="M56.5938 133.535C56.2161 133.557 55.9167 133.934 55.9167 134.405V298.351L1.74109 316.133V3.60913C32.2821 4.0938 56.3943 64.9193 56.5938 133.535ZM51.5048 274.83V142.474C51.5048 85.8604 32.1681 34.5928 7.52143 34.5928C7.3575 34.5928 7.22922 34.9064 7.22922 35.2984V289.47C7.22922 289.854 7.3575 290.168 7.52143 290.168L7.59271 290.146L51.2126 275.785C51.3765 275.785 51.5048 275.472 51.5048 275.087C51.5048 275.03 51.5048 274.973 51.4977 274.923C51.5048 274.894 51.5048 274.859 51.5048 274.83Z" fill="#FFC32D"/>
<path d="M51.5054 142.473V274.83C51.5054 274.858 51.5054 274.894 51.4983 274.922C51.4698 274.609 51.3557 274.388 51.2132 274.388L50.3793 274.659V142.473C50.3793 142.096 50.6216 141.789 50.9138 141.768C50.921 142.003 50.921 142.238 50.921 142.473C50.921 142.858 51.0493 143.172 51.2132 143.172C51.3771 143.172 51.5054 142.858 51.5054 142.473Z" fill="#FFC32D"/>
<path d="M51.4975 274.922C51.5047 274.971 51.5047 275.028 51.5047 275.085C51.5047 275.47 51.3764 275.784 51.2124 275.784L7.59253 290.145C7.72082 290.067 7.81348 289.796 7.81348 289.468V288.67L50.3785 274.658V274.829C50.3785 275.213 50.6351 275.526 50.9416 275.526C51.2267 275.528 51.4619 275.264 51.4975 274.922Z" fill="#FFC32D"/>
<path d="M51.5055 142.473C51.5055 142.858 51.3772 143.172 51.2133 143.172C51.0494 143.172 50.9211 142.858 50.9211 142.473C50.9211 142.238 50.9211 142.003 50.9139 141.768C50.9211 141.768 50.9353 141.768 50.9425 141.768C51.2568 141.768 51.5055 142.081 51.5055 142.473Z" fill="#FFC32D"/>
<path d="M51.2132 274.388C51.3557 274.388 51.4698 274.609 51.4983 274.923C51.4626 275.264 51.2274 275.529 50.9423 275.529C50.6359 275.529 50.3793 275.216 50.3793 274.831V274.66L51.2132 274.388Z" fill="#FFC32D"/>
<path d="M51.5045 142.473C51.5045 142.081 51.2551 141.768 50.9415 141.768C50.9343 141.768 50.9201 141.768 50.913 141.768C50.7633 86.4372 31.897 36.4026 7.81335 36.0035V35.2979C7.81335 34.9059 7.68505 34.5923 7.52112 34.5923C32.1678 34.5923 51.5045 85.8599 51.5045 142.473Z" fill="#FFC32D"/>
<path d="M7.81441 288.671V289.47C7.81441 289.797 7.72176 290.068 7.59346 290.146L7.52219 290.167C7.35826 290.167 7.22998 289.854 7.22998 289.47C7.22998 289.077 7.35826 288.764 7.52219 288.764L7.81441 288.671Z" fill="#FFC32D"/>
<path d="M7.81441 36.0032V288.671L7.52219 288.763C7.35826 288.763 7.22998 289.076 7.22998 289.469V35.2976C7.22998 35.6825 7.35826 35.9961 7.52219 35.9961C7.62197 35.9961 7.71463 35.9961 7.81441 36.0032Z" fill="#FFC32D"/>
<path d="M7.81441 35.2979V36.0035C7.71463 35.9964 7.62197 35.9964 7.52219 35.9964C7.35826 35.9964 7.22998 35.6828 7.22998 35.2979C7.22998 34.9059 7.35826 34.5923 7.52219 34.5923C7.68612 34.5923 7.81441 34.9059 7.81441 35.2979Z" fill="#FFC32D"/>
<path d="M1.74126 316.133V317.125C1.74126 317.53 1.62722 317.866 1.47041 317.959L1.37064 317.994C1.16394 317.994 1 317.609 1 317.125C1 316.647 1.16394 316.254 1.37064 316.254L1.74126 316.133Z" fill="#FFC32D"/>
<path d="M1.74126 3.60923V316.132L1.37064 316.253C1.16394 316.253 1 316.646 1 317.124V2.73969C1 3.21722 1.16394 3.6021 1.37064 3.6021C1.49181 3.6021 1.62009 3.60211 1.74126 3.60923Z" fill="#FFC32D"/>
<path d="M1.74126 2.73985V3.6094C1.62009 3.60227 1.49181 3.60226 1.37064 3.60226C1.16394 3.60226 1 3.21739 1 2.73985C1 2.25518 1.16394 1.8703 1.37064 1.8703C1.57734 1.8703 1.74126 2.25518 1.74126 2.73985Z" fill="#FFC32D"/>
<path d="M1.37048 317.997L1.47901 317.958C1.448 317.982 1.40925 317.997 1.37048 317.997Z" fill="#FFC32D"/>
<path d="M273.118 313.213V299.742" stroke="#FFC32D" stroke-miterlimit="10"/>
<path d="M274.544 300.07V314.082H273.831" fill="#FFC32D"/>
<path d="M274.544 300.07V314.082H273.831" stroke="#FFC32D" stroke-miterlimit="10"/>
<path d="M57.3423 298.003H58.0465" stroke="#FFC32D" stroke-miterlimit="10"/>
<path d="M57.3423 298.871V298.566" stroke="#FFC32D" stroke-miterlimit="10"/>
<path d="M63.1517 299.742H58.0555" stroke="#FFC32D" stroke-miterlimit="10"/>
<path d="M72.3744 298.452V298.003H74.8048" fill="#FFC32D"/>
<path d="M72.3744 298.452V298.003H74.8048" stroke="#FFC32D" stroke-miterlimit="10"/>
<path d="M85.039 299.742H74.9181" stroke="#FFC32D" stroke-miterlimit="10"/>
<path d="M114.062 298.003H220.518" stroke="#FFC32D" stroke-miterlimit="10"/>
<path d="M242.77 299.742H220.739H113.984H90.4921" fill="#FFC32D"/>
<path d="M242.77 299.742H220.739H113.984H90.4921" stroke="#FFC32D" stroke-miterlimit="10"/>
<path d="M248.956 298.003H252.414" stroke="#FFC32D" stroke-miterlimit="10"/>
<path d="M255.65 299.742H248.778" stroke="#FFC32D" stroke-miterlimit="10"/>
<path d="M272.399 298.003H273.11" stroke="#FFC32D" stroke-miterlimit="10"/>
<path d="M273.496 299.742H273.118H266.126" fill="#FFC32D"/>
<path d="M273.496 299.742H273.118H266.126" stroke="#FFC32D" stroke-miterlimit="10"/>
<path d="M57.3423 298.872H58.055V299.742V313.305" fill="#FFC32D"/>
<path d="M57.3423 298.872H58.055V299.742V313.305" stroke="#FFC32D" stroke-miterlimit="10"/>
<path d="M57.3425 314.175H56.6298V299.856" fill="#FFC32D"/>
<path d="M57.3425 314.175H56.6298V299.856" stroke="#FFC32D" stroke-miterlimit="10"/>
<path d="M273.831 314.082V314.952L57.3423 315.044V314.175V313.305H58.055L273.118 313.213H273.831V314.082Z" fill="#FFC32D" stroke="#FFC32D" stroke-miterlimit="10"/>
<path d="M126.349 245.509C127.169 244.219 128.003 243.15 128.886 242.253C129.136 241.989 129.428 241.746 129.706 241.532" fill="#FFC32D"/>
<path d="M126.349 245.509C127.169 244.219 128.003 243.15 128.886 242.253C129.136 241.989 129.428 241.746 129.706 241.532" stroke="#FFC32D" stroke-miterlimit="10"/>
<path d="M95.1677 288.132C100.756 283.342 105.417 277.526 109.244 272.459C110.378 270.962 111.561 269.479 112.701 268.048C115.274 264.826 117.933 261.498 120.128 257.82C121.183 256.045 122.102 254.041 122.986 252.089C123.777 250.364 124.583 248.582 125.516 246.922" fill="#FFC32D"/>
<path d="M95.1677 288.132C100.756 283.342 105.417 277.526 109.244 272.459C110.378 270.962 111.561 269.479 112.701 268.048C115.274 264.826 117.933 261.498 120.128 257.82C121.183 256.045 122.102 254.041 122.986 252.089C123.777 250.364 124.583 248.582 125.516 246.922" stroke="#FFC32D" stroke-miterlimit="10"/>
<path d="M110.977 214.667C109.451 218.495 108.161 222.5 106.9 226.406L106.18 228.609C104.441 233.969 102.117 239.015 99.865 243.897C98.5108 246.833 97.1067 249.877 95.8522 252.934C94.7404 255.664 93.7283 258.522 92.7518 261.289C90.8702 266.598 88.9244 272.093 86.1091 277.062L86.0093 276.976" fill="#FFC32D"/>
<path d="M110.977 214.667C109.451 218.495 108.161 222.5 106.9 226.406L106.18 228.609C104.441 233.969 102.117 239.015 99.865 243.897C98.5108 246.833 97.1067 249.877 95.8522 252.934C94.7404 255.664 93.7283 258.522 92.7518 261.289C90.8702 266.598 88.9244 272.093 86.1091 277.062L86.0093 276.976" stroke="#FFC32D" stroke-miterlimit="10"/>
<path d="M160.12 170.284C159.307 170.199 158.495 170.092 157.689 169.985C153.406 169.458 148.972 168.909 144.625 169.358C139.5 169.899 134.86 174.212 132.551 176.735C128.046 181.66 124.718 188.167 121.496 194.447C119.664 198.039 117.761 201.753 115.68 205.088C114.362 207.205 113.157 209.529 112.002 212.18" stroke="#FFC32D" stroke-miterlimit="10"/>
<path d="M168.829 170.192V170.762H168.665C166.591 170.833 164.368 170.741 161.545 170.449" fill="#FFC32D"/>
<path d="M168.829 170.192V170.762H168.665C166.591 170.833 164.368 170.741 161.545 170.449" stroke="#FFC32D" stroke-miterlimit="10"/>
<path d="M221.986 298.001C222.036 298.222 222.079 298.45 222.121 298.67L220.739 299.07C220.667 298.714 220.596 298.357 220.518 298.001C219.898 295.129 219.085 292.52 218.023 290.06C216.156 285.735 213.333 281.614 209.634 277.837C208.8 276.982 207.909 276.177 207.047 275.393C204.916 273.453 202.713 271.451 201.11 268.565C198.48 263.825 196.684 258.158 196.071 252.592C195.401 246.477 196.256 243.362 199.741 239.285C200.162 238.793 200.518 238.337 200.846 237.895C200.939 237.767 201.031 237.639 201.117 237.51C203.775 233.697 204.51 229.784 203.754 223.562C203.711 223.198 203.626 222.764 203.533 222.3C203.219 220.797 202.842 218.908 203.711 217.474L204.852 218.508C204.381 219.285 204.652 220.603 204.916 221.879C205.016 222.385 205.108 222.855 205.165 223.305C205.956 229.804 205.172 234.174 202.464 238.251" fill="#FFC32D"/>
<path d="M221.986 298.001C222.036 298.222 222.079 298.45 222.121 298.67L220.739 299.07C220.667 298.714 220.596 298.357 220.518 298.001C219.898 295.129 219.085 292.52 218.023 290.06C216.156 285.735 213.333 281.614 209.634 277.837C208.8 276.982 207.909 276.177 207.047 275.393C204.916 273.453 202.713 271.451 201.11 268.565C198.48 263.825 196.684 258.158 196.071 252.592C195.401 246.477 196.256 243.362 199.741 239.285C200.162 238.793 200.518 238.337 200.846 237.895C200.939 237.767 201.031 237.639 201.117 237.51C203.775 233.697 204.51 229.784 203.754 223.562C203.711 223.198 203.626 222.764 203.533 222.3C203.219 220.797 202.842 218.908 203.711 217.474L204.852 218.508C204.381 219.285 204.652 220.603 204.916 221.879C205.016 222.385 205.108 222.855 205.165 223.305C205.956 229.804 205.172 234.174 202.464 238.251" stroke="#FFC32D" stroke-miterlimit="10"/>
<path d="M130.285 243.148C130.178 242.82 130.057 242.5 129.942 242.179L129.707 241.53L129.579 241.189C128.46 238.138 127.305 234.981 127.034 231.531C126.564 225.63 128.075 219.75 129.536 214.04C129.864 212.785 130.185 211.517 130.477 210.299L131.845 210.776C131.553 212.023 131.225 213.285 130.898 214.561C129.479 220.092 128.011 225.815 128.453 231.367C128.702 234.539 129.764 237.426 130.883 240.476L131.247 241.481C131.347 241.752 131.446 242.023 131.539 242.286C132.523 245.045 133.364 247.81 133.478 250.86C133.57 253.099 133.692 256.17 132.437 258.429C131.254 260.547 129.714 262.442 128.218 264.267C127.106 265.635 125.951 267.039 124.989 268.508C122.665 272.063 120.47 276.063 118.467 280.382C116.065 285.592 114.619 291.357 114.063 298.001C114.034 298.314 114.006 298.628 113.984 298.941L112.566 298.791C112.587 298.521 112.601 298.265 112.63 298.001" fill="#FFC32D"/>
<path d="M130.285 243.148C130.178 242.82 130.057 242.5 129.942 242.179L129.707 241.53L129.579 241.189C128.46 238.138 127.305 234.981 127.034 231.531C126.564 225.63 128.075 219.75 129.536 214.04C129.864 212.785 130.185 211.517 130.477 210.299L131.845 210.776C131.553 212.023 131.225 213.285 130.898 214.561C129.479 220.092 128.011 225.815 128.453 231.367C128.702 234.539 129.764 237.426 130.883 240.476L131.247 241.481C131.347 241.752 131.446 242.023 131.539 242.286C132.523 245.045 133.364 247.81 133.478 250.86C133.57 253.099 133.692 256.17 132.437 258.429C131.254 260.547 129.714 262.442 128.218 264.267C127.106 265.635 125.951 267.039 124.989 268.508C122.665 272.063 120.47 276.063 118.467 280.382C116.065 285.592 114.619 291.357 114.063 298.001C114.034 298.314 114.006 298.628 113.984 298.941L112.566 298.791C112.587 298.521 112.601 298.265 112.63 298.001" stroke="#FFC32D" stroke-miterlimit="10"/>
<path d="M126.35 245.507C126.529 245.664 126.714 245.814 126.899 245.964L127.013 246.077L126.7 246.47L126.186 247.482C126.165 247.467 126.13 247.439 126.087 247.397C125.894 247.247 125.702 247.09 125.517 246.919C118.517 240.996 113.87 230.683 110.977 214.668V214.66C110.827 213.862 110.691 213.056 110.556 212.23L111.953 211.888C111.967 211.988 111.989 212.087 112.003 212.18C114.783 228.979 119.358 239.606 126.35 245.507Z" fill="#FFC32D" stroke="#FFC32D" stroke-miterlimit="10"/>
<path d="M95.5385 288.872L95.9448 289.585C101.661 284.697 106.408 278.781 110.292 273.634C111.411 272.152 112.587 270.683 113.721 269.258C116.329 265.993 119.023 262.615 121.276 258.845C122.388 256.985 123.328 254.924 124.234 252.936C125.117 250.997 126.03 248.987 127.092 247.205C127.968 245.716 128.859 244.541 129.8 243.593C129.943 243.443 130.107 243.293 130.285 243.151C131.19 245.694 131.953 248.233 132.06 250.941C132.152 253.443 132.166 255.802 131.254 257.455C130.149 259.444 128.653 261.276 127.206 263.044C126.065 264.433 124.882 265.88 123.877 267.427C121.504 271.062 119.266 275.124 117.227 279.536C114.697 284.996 113.193 291.047 112.63 298.003H90.5992" fill="#FFC32D"/>
<path d="M95.5385 288.872L95.9448 289.585C101.661 284.697 106.408 278.781 110.292 273.634C111.411 272.152 112.587 270.683 113.721 269.258C116.329 265.993 119.023 262.615 121.276 258.845C122.388 256.985 123.328 254.924 124.234 252.936C125.117 250.997 126.03 248.987 127.092 247.205C127.968 245.716 128.859 244.541 129.8 243.593C129.943 243.443 130.107 243.293 130.285 243.151C131.19 245.694 131.953 248.233 132.06 250.941C132.152 253.443 132.166 255.802 131.254 257.455C130.149 259.444 128.653 261.276 127.206 263.044C126.065 264.433 124.882 265.88 123.877 267.427C121.504 271.062 119.266 275.124 117.227 279.536C114.697 284.996 113.193 291.047 112.63 298.003H90.5992" stroke="#FFC32D" stroke-miterlimit="10"/>
<path d="M84.9607 276.043L86.1581 276.599C86.1296 276.692 86.0869 276.792 86.0441 276.891C86.037 276.92 86.0227 276.955 86.0085 276.977C83.8845 282.836 79.9644 286.307 76.0443 289.171C73.4998 291.031 71.3473 292.322 68.8456 293.469C66.9426 294.346 65.9661 296.405 65.0395 298.858C66.8285 299.299 69.537 298.951 72.3737 298.452C73.0864 298.331 73.8134 298.188 74.5333 298.06L74.7542 298.016C74.7685 298.016 74.7899 298.002 74.8041 298.002C79.3871 297.147 83.7134 296.355 85.7162 298.18C85.8232 298.258 85.9443 298.394 86.0299 298.493C87.5623 300.36 88.4247 300.681 88.6955 300.582C88.8594 300.518 89.002 300.119 89.0804 299.542C89.116 299.278 89.1374 299.028 89.1517 298.807C89.2158 297.802 89.1445 297.004 89.0804 296.306C88.7953 293.191 89.2301 291.773 95.1601 288.13H95.1672C95.1886 288.123 95.1957 288.101 95.2171 288.094L95.5378 288.871L95.8586 289.641C90.2208 293.09 90.2992 293.981 90.4987 296.112C90.5415 296.64 90.5985 297.274 90.5985 298.001C90.5985 298.301 90.5914 298.613 90.57 298.941C90.5558 299.184 90.5344 299.455 90.4916 299.74C90.4916 299.768 90.4916 299.797 90.4845 299.818C90.3134 301.122 89.8644 301.942 89.1374 302.227C88.9663 302.299 88.781 302.334 88.5886 302.334C87.6335 302.334 86.4646 301.479 85.0391 299.739C85.032 299.732 85.032 299.732 85.0249 299.725C84.975 299.66 84.9322 299.632 84.9037 299.603C83.3285 298.163 78.8881 299.005 74.9681 299.732L74.9182 299.739L74.7542 299.767C70.5776 300.552 66.2583 301.364 63.7922 300.231L63.0938 299.903L63.1508 299.739L63.3931 299.07C63.4501 298.906 63.5071 298.749 63.5642 298.592C63.6354 298.393 63.7138 298.207 63.7922 298.001" fill="#FFC32D"/>
<path d="M84.9607 276.043L86.1581 276.599C86.1296 276.692 86.0869 276.792 86.0441 276.891C86.037 276.92 86.0227 276.955 86.0085 276.977C83.8845 282.836 79.9644 286.307 76.0443 289.171C73.4998 291.031 71.3473 292.322 68.8456 293.469C66.9426 294.346 65.9661 296.405 65.0395 298.858C66.8285 299.299 69.537 298.951 72.3737 298.452C73.0864 298.331 73.8134 298.188 74.5333 298.06L74.7542 298.016C74.7685 298.016 74.7899 298.002 74.8041 298.002C79.3871 297.147 83.7134 296.355 85.7162 298.18C85.8232 298.258 85.9443 298.394 86.0299 298.493C87.5623 300.36 88.4247 300.681 88.6955 300.582C88.8594 300.518 89.002 300.119 89.0804 299.541C89.116 299.278 89.1374 299.028 89.1517 298.807C89.2158 297.802 89.1445 297.004 89.0804 296.306C88.7953 293.191 89.2301 291.773 95.1601 288.13H95.1672C95.1886 288.123 95.1957 288.101 95.2171 288.094L95.5378 288.871L95.8586 289.641C90.2208 293.09 90.2992 293.981 90.4987 296.112C90.5415 296.64 90.5985 297.274 90.5985 298.001C90.5985 298.301 90.5914 298.613 90.57 298.941C90.5558 299.184 90.5344 299.455 90.4916 299.74C90.4916 299.768 90.4916 299.797 90.4845 299.818C90.3134 301.122 89.8644 301.942 89.1374 302.227C88.9663 302.299 88.781 302.334 88.5886 302.334C87.6335 302.334 86.4646 301.479 85.0391 299.739C85.032 299.732 85.032 299.732 85.0249 299.725C84.975 299.66 84.9322 299.632 84.9037 299.603C83.3285 298.163 78.8881 299.005 74.9681 299.732L74.9182 299.739L74.7542 299.767C70.5776 300.552 66.2583 301.364 63.7922 300.231L63.0938 299.903L63.1508 299.739L63.3931 299.07C63.4501 298.906 63.5071 298.749 63.5642 298.592C63.6354 298.393 63.7138 298.207 63.7922 298.001" stroke="#FFC32D" stroke-miterlimit="10"/>
<path d="M242.406 298.003H221.986C221.337 294.831 220.454 291.966 219.285 289.25C217.332 284.724 214.395 280.433 210.554 276.506C209.684 275.622 208.779 274.796 207.902 273.997C205.771 272.058 203.761 270.234 202.293 267.59C199.777 263.071 198.074 257.661 197.482 252.366C196.869 246.778 197.567 244.233 200.732 240.541C200.967 240.27 201.181 240 201.381 239.75" stroke="#FFC32D" stroke-miterlimit="10"/>
<path d="M265.685 298.002C265.777 298.159 265.855 298.315 265.92 298.473C266.105 298.922 266.176 299.342 266.126 299.741C266.119 299.769 266.119 299.805 266.112 299.826L266.062 300.147L265.855 300.346C264.237 301.893 258.371 301.08 256.974 300.418C256.554 300.225 256.105 299.997 255.649 299.741C255.599 299.72 255.549 299.691 255.5 299.663C254.887 299.356 254.244 298.999 253.604 298.637L252.798 298.195C252.677 298.131 252.556 298.066 252.413 298.002C251.223 297.468 249.441 297.154 249.021 297.724C249.021 297.739 248.992 297.802 248.956 298.002C248.913 298.195 248.863 298.493 248.827 298.964C248.806 299.215 248.792 299.485 248.778 299.741C248.763 300.034 248.757 300.319 248.742 300.59C248.706 301.302 248.685 301.915 248.614 302.314L248.5 302.97L247.452 303.041C247.088 303.063 246.739 303.091 246.411 303.091C245.292 303.091 244.33 302.792 243.389 301.274C243.09 300.768 242.897 300.247 242.769 299.741C242.705 299.52 242.655 299.292 242.612 299.086C242.569 298.858 242.527 298.629 242.483 298.401C242.463 298.267 242.434 298.138 242.406 298.002C242.292 297.367 242.149 296.791 241.857 296.313C241.166 295.173 239.377 294.338 238.072 293.719C237.837 293.618 237.616 293.512 237.409 293.405C229.484 289.556 221.643 282.914 214.723 274.225C210.867 269.371 209.27 263.27 207.731 257.369C206.783 253.72 205.799 249.957 204.288 246.549C204.081 246.087 203.825 245.53 203.547 244.989C202.656 243.271 202.014 241.689 201.38 239.75C201.366 239.714 201.359 239.672 201.345 239.636C201.209 239.195 201.095 238.766 200.981 238.332L200.86 237.904L202.214 237.355L202.335 237.804C202.378 237.954 202.421 238.103 202.464 238.253C202.528 238.517 202.599 238.759 202.677 239.008C203.283 240.891 203.903 242.409 204.751 244.07C204.915 244.383 205.072 244.704 205.215 245.01" stroke="#FFC32D" stroke-miterlimit="10"/>
<path d="M165.815 161.832C166.165 162.181 166.514 162.609 166.849 163.029C167.44 163.763 168.053 164.519 168.581 164.818L169.023 165.053L169.001 165.645C168.98 166.308 169.08 166.971 169.179 167.669C169.286 168.382 169.393 169.116 169.379 169.914C169.379 170.007 169.379 170.128 169.365 170.257L168.83 170.192L167.954 170.085V169.893C167.961 169.608 167.946 169.33 167.911 169.045" fill="#FFC32D"/>
<path d="M165.815 161.832C166.165 162.181 166.514 162.609 166.849 163.029C167.44 163.763 168.053 164.519 168.581 164.818L169.023 165.053L169.001 165.645C168.98 166.308 169.08 166.971 169.179 167.669C169.286 168.382 169.393 169.116 169.379 169.914C169.379 170.007 169.379 170.128 169.365 170.257L168.83 170.192L167.954 170.085V169.893C167.961 169.608 167.946 169.33 167.911 169.045" stroke="#FFC32D" stroke-miterlimit="10"/>
<path d="M190.19 176.058H190.183C189.692 176.021 189.193 175.944 188.687 175.75C187.56 175.345 186.491 174.547 185.55 173.84C184.538 173.071 182.97 171.168 183.106 169.3C183.149 168.687 183.384 167.896 184.196 167.304" fill="#FFC32D"/>
<path d="M190.19 176.058H190.183C189.692 176.021 189.193 175.944 188.687 175.75C187.56 175.345 186.491 174.547 185.55 173.84C184.538 173.071 182.97 171.168 183.106 169.3C183.149 168.687 183.384 167.896 184.196 167.304" stroke="#FFC32D" stroke-miterlimit="10"/>
<path d="M226.762 224.339C226.755 223.412 226.733 222.686 226.691 222.016C226.291 215.715 225.536 210.534 223.141 205.701C221.922 203.213 220.661 200.647 219.307 198.181C218.515 196.72 217.61 195.487 216.655 194.183C216.199 193.563 215.736 192.936 215.28 192.28C212.179 187.782 207.874 183.869 201.73 179.964C200.847 179.401 199.849 178.923 198.886 178.453C198.516 178.274 198.152 178.096 197.803 177.926C196.57 177.291 194.974 176.657 193.541 176.237C192.949 176.059 192.322 176.051 191.659 176.059" stroke="#FFC32D" stroke-miterlimit="10"/>
<path d="M205.892 246.55C207.275 249.858 208.195 253.407 209.093 256.836C210.646 262.808 212.122 268.453 215.75 273.014C222.528 281.531 230.197 288.025 237.945 291.789C238.144 291.895 238.358 291.987 238.586 292.101C240.133 292.829 242.064 293.726 243.005 295.273C243.504 296.1 243.696 297.048 243.853 297.896C243.867 297.94 243.874 297.989 243.882 298.031C243.917 298.238 243.953 298.452 244.003 298.659C244.109 299.2 244.245 299.756 244.53 300.234C245.271 301.431 245.87 301.417 247.281 301.31C247.295 301.054 247.302 300.776 247.316 300.505C247.338 299.942 247.366 299.336 247.417 298.787C247.51 297.625 247.666 296.962 247.959 296.563C249.255 294.825 252.563 296.158 253.382 296.607L254.195 297.056C254.744 297.362 255.293 297.662 255.827 297.947C255.913 297.989 255.991 298.032 256.07 298.075C256.561 298.346 257.039 298.588 257.495 298.795C258.707 299.379 263.104 299.843 264.615 299.201C263.675 297.155 257.922 293.378 254.822 291.34C253.375 290.392 252.328 289.707 251.85 289.302C248.507 286.429 246.269 283.008 243.903 279.38C243.49 278.753 243.076 278.125 242.656 277.484C235.364 266.522 230.418 255.368 227.966 244.327C226.897 239.566 226.683 235.681 226.683 230.578C226.683 229.638 226.705 228.704 226.726 227.756C226.733 227.407 226.74 227.051 226.747 226.702" stroke="#FFC32D" stroke-miterlimit="10"/>
<path d="M191.658 176.058L191.558 176.549C190.746 180.668 190.04 184.232 187.239 186.399C184.409 188.573 180.14 191.103 175.621 191.103C175.45 191.103 175.272 191.103 175.101 191.089C169.684 190.839 165.115 188.287 162.236 183.911C159.342 179.507 159.549 174.197 160.119 170.284C160.169 169.956 160.219 169.642 160.269 169.336L161.666 169.685C161.623 169.942 161.58 170.198 161.544 170.448C160.76 175.822 161.338 179.77 163.348 182.82C165.963 186.797 170.154 189.122 175.151 189.356C179.506 189.527 183.711 187.047 186.476 184.923C188.793 183.141 189.37 180.204 190.175 176.135L190.19 176.057L190.396 174.995L191.073 175.195L191.8 175.187L191.786 175.408L191.658 176.058Z" fill="#FFC32D" stroke="#FFC32D" stroke-miterlimit="10"/>
<path d="M195.251 154.077L195.75 154.042C195.935 158.254 192.728 160.399 189.905 162.288C187.468 163.92 185.864 165.118 185.65 166.771C185.607 167.049 185.607 167.349 185.657 167.662L184.253 167.969C184.217 167.741 184.196 167.52 184.196 167.306C184.096 164.198 186.698 162.459 189.221 160.77C191.837 159.009 194.317 157.349 194.331 154.398" fill="#FFC32D"/>
<path d="M195.251 154.077L195.75 154.042C195.935 158.254 192.728 160.399 189.905 162.288C187.468 163.92 185.864 165.118 185.65 166.771C185.607 167.049 185.607 167.349 185.657 167.662L184.253 167.969C184.217 167.741 184.196 167.52 184.196 167.306C184.096 164.198 186.698 162.459 189.221 160.77C191.837 159.009 194.317 157.349 194.331 154.398" stroke="#FFC32D" stroke-miterlimit="10"/>
<path d="M175.593 130.442C174.118 131.126 172.586 133.5 171.538 135.111L170.747 136.322C169.093 138.803 167.383 141.376 166.727 144.291C166.064 147.227 165.772 150.634 165.601 152.943C165.073 160 165.629 161.511 165.793 161.796C165.8 161.81 165.807 161.824 165.815 161.831L164.731 162.958C164.453 162.573 164.154 161.853 164.026 160.085C163.904 158.574 163.919 156.293 164.182 152.794C164.353 150.42 164.66 146.899 165.351 143.835C166.085 140.563 167.974 137.726 169.635 135.225L170.419 134.034C171.766 131.953 173.612 129.102 175.715 128.589L175.8 129.102" fill="#FFC32D"/>
<path d="M175.593 130.442C174.118 131.126 172.586 133.5 171.538 135.111L170.747 136.322C169.093 138.803 167.383 141.376 166.727 144.291C166.064 147.227 165.772 150.634 165.601 152.943C165.073 160 165.629 161.511 165.793 161.796C165.8 161.81 165.807 161.824 165.815 161.831L164.731 162.958C164.453 162.573 164.154 161.853 164.026 160.085C163.904 158.574 163.919 156.293 164.182 152.794C164.353 150.42 164.66 146.899 165.351 143.835C166.085 140.563 167.974 137.726 169.635 135.225L170.419 134.034C171.766 131.953 173.612 129.102 175.715 128.589L175.8 129.102" stroke="#FFC32D" stroke-miterlimit="10"/>
<path d="M188.302 139.764L188.672 139.037C189.071 139.344 189.306 140.078 190.076 142.573C191.095 145.88 193.212 152.765 195.065 152.815L195.251 154.076L195.315 154.532C195.229 154.547 195.137 154.554 195.051 154.554C194.809 154.547 194.567 154.497 194.331 154.397C192.086 153.478 190.404 148.581 188.743 143.186C188.408 142.095 188.031 140.869 187.845 140.484" fill="#FFC32D"/>
<path d="M188.302 139.764L188.672 139.037C189.071 139.344 189.306 140.078 190.076 142.573C191.095 145.88 193.212 152.765 195.065 152.815L195.251 154.076L195.315 154.532C195.229 154.547 195.137 154.554 195.051 154.554C194.809 154.547 194.567 154.497 194.331 154.397C192.086 153.478 190.404 148.581 188.743 143.186C188.408 142.095 188.031 140.869 187.845 140.484" stroke="#FFC32D" stroke-miterlimit="10"/>
<path d="M188.302 139.765L187.988 140.563C187.945 140.534 187.895 140.513 187.845 140.484C187.233 140.135 186.47 139.765 185.665 139.365C183.519 138.318 181.082 137.12 179.77 135.609C179.335 135.103 178.879 134.64 178.437 134.198C177.39 133.157 176.32 132.088 175.593 130.442C175.494 130.214 175.401 129.971 175.315 129.715C175.287 129.651 175.251 129.537 175.216 129.408L175.8 129.102L176.52 128.717L176.549 128.803C176.57 128.867 176.584 128.931 176.613 128.995C177.204 130.72 178.195 131.711 179.342 132.858C179.806 133.321 180.283 133.799 180.754 134.348C181.866 135.631 184.168 136.757 186.199 137.755C187.083 138.189 187.917 138.596 188.601 138.995L188.302 139.765Z" fill="#FFC32D" stroke="#FFC32D" stroke-miterlimit="10"/>
<path d="M205.892 246.55C205.728 246.635 205.564 246.721 205.4 246.8L204.873 245.181C204.987 245.124 205.101 245.067 205.215 245.01C208.729 243.257 211.687 240.984 213.989 238.254C216.149 235.681 218.493 233.606 220.974 231.411L221.131 231.277C222.556 230.001 223.739 228.668 224.751 227.207C225.022 226.807 225.265 226.337 225.514 225.838C225.813 225.232 226.134 224.605 226.533 224.085L226.761 224.341V224.349L227.574 225.282C227.274 225.66 227.018 226.159 226.747 226.701C226.74 226.715 226.733 226.729 226.726 226.743C226.462 227.278 226.184 227.828 225.842 228.319C224.758 229.902 223.49 231.327 221.972 232.681L221.815 232.816C219.377 234.975 217.068 237.014 214.98 239.494C212.571 242.359 209.52 244.725 205.892 246.55Z" fill="#FFC32D" stroke="#FFC32D" stroke-miterlimit="10"/>
<path d="M57.1002 122.474C62.2462 57.8423 108.774 7.08069 165.223 7.08069C221.723 7.08069 268.272 57.9207 273.367 122.609" stroke="#FFC32D" stroke-width="4" stroke-miterlimit="10"/>
<path d="M57.3422 134.406V135.268V298.002V298.558V298.565C57.3422 298.607 57.3422 298.642 57.3351 298.679" fill="#FFC32D"/>
<path d="M57.3422 134.406V135.268V298.002V298.558V298.565C57.3422 298.607 57.3422 298.642 57.3351 298.679" stroke="#FFC32D" stroke-miterlimit="10"/>
<path d="M55.9172 298.351V134.405C55.9172 133.934 56.2166 133.557 56.5943 133.535" fill="#FFC32D"/>
<path d="M55.9172 298.351V134.405C55.9172 133.934 56.2166 133.557 56.5943 133.535" stroke="#FFC32D" stroke-miterlimit="10"/>
<path d="M1.37048 1.87042C30.8424 1.87042 54.4984 57.2862 57.0999 122.474C57.2638 126.415 57.3422 130.392 57.3422 134.398V134.405C57.3422 134.776 57.2425 135.096 57.0999 135.218C57.0643 135.253 57.0144 135.275 56.9716 135.275C56.8148 135.275 56.6865 135.054 56.6295 134.74C56.6081 134.64 56.601 134.526 56.601 134.405C56.601 134.113 56.601 133.828 56.5938 133.536C56.3943 64.9197 32.2822 4.09418 1.7411 3.60952" fill="#FFC32D"/>
<path d="M1.37048 1.87042C30.8424 1.87042 54.4984 57.2862 57.0999 122.474C57.2638 126.415 57.3422 130.392 57.3422 134.398V134.405C57.3422 134.776 57.2424 135.096 57.0999 135.218C57.0643 135.253 57.0144 135.275 56.9716 135.275C56.8148 135.275 56.6865 135.054 56.6295 134.74C56.6081 134.64 56.601 134.526 56.601 134.405C56.601 134.113 56.601 133.828 56.5938 133.536C56.3943 64.9197 32.2822 4.09418 1.7411 3.60952" stroke="#FFC32D" stroke-width="2" stroke-miterlimit="10"/>
<path d="M1.47901 317.96C1.448 317.983 1.40925 317.998 1.37048 317.998L1.47901 317.96Z" fill="#FFC32D"/>
<path d="M1.47901 317.96C1.448 317.983 1.40925 317.998 1.37048 317.998" stroke="#FFC32D" stroke-width="2" stroke-miterlimit="10"/>
<path d="M1 317.124V2.73997C1 2.2553 1.16394 1.87042 1.37064 1.87042C1.57734 1.87042 1.74126 2.2553 1.74126 2.73997V3.60952V316.133" fill="#FFC32D"/>
<path d="M1 317.124V2.73997C1 2.2553 1.16394 1.87042 1.37064 1.87042C1.57734 1.87042 1.74126 2.2553 1.74126 2.73997V3.60952V316.133" stroke="#FFC32D" stroke-width="2" stroke-miterlimit="10"/>
<path d="M57.3424 298.873C57.3424 299.357 57.1784 299.742 56.9718 299.742L56.6297 299.856L1.47041 317.96L1.37064 317.995C1.16394 317.995 1 317.611 1 317.126C1 316.648 1.16394 316.256 1.37064 316.256L1.74126 316.134L55.9169 298.352L56.6297 298.117L56.9718 298.003C57.1286 298.003 57.264 298.238 57.321 298.566C57.321 298.602 57.3281 298.637 57.3353 298.68C57.3424 298.744 57.3424 298.808 57.3424 298.873Z" fill="#FFC32D" stroke="#FFC32D" stroke-width="2" stroke-miterlimit="10"/>
<path d="M51.5051 142.473V274.83C51.5051 274.858 51.5051 274.894 51.4979 274.922" fill="#FFC32D"/>
<path d="M51.5051 142.473V274.83C51.5051 274.858 51.5051 274.894 51.4979 274.922" stroke="#FFC32D" stroke-miterlimit="10"/>
<path d="M50.3793 274.659V142.473C50.3793 142.096 50.6216 141.789 50.9138 141.768" fill="#FFC32D"/>
<path d="M50.3793 274.659V142.473C50.3793 142.096 50.6216 141.789 50.9138 141.768" stroke="#FFC32D" stroke-miterlimit="10"/>
<path d="M7.52112 34.5924C32.1678 34.5924 51.5045 85.86 51.5045 142.473C51.5045 142.858 51.3762 143.172 51.2123 143.172C51.0484 143.172 50.9201 142.858 50.9201 142.473C50.9201 142.238 50.9201 142.003 50.913 141.768C50.7633 86.4374 31.897 36.4028 7.81335 36.0036" fill="#FFC32D"/>
<path d="M7.52112 34.5924C32.1678 34.5924 51.5045 85.86 51.5045 142.473C51.5045 142.858 51.3762 143.172 51.2123 143.172C51.0484 143.172 50.9201 142.858 50.9201 142.473C50.9201 142.238 50.9201 142.003 50.913 141.768C50.7633 86.4374 31.897 36.4028 7.81335 36.0036" stroke="#FFC32D" stroke-miterlimit="10"/>
<path d="M7.22998 289.47V35.2988C7.22998 34.9068 7.35828 34.5932 7.52221 34.5932C7.68614 34.5932 7.81444 34.9068 7.81444 35.2988V36.0044V288.672" fill="#FFC32D"/>
<path d="M7.22998 289.47V35.2988C7.22998 34.9068 7.35828 34.5932 7.52221 34.5932C7.68614 34.5932 7.81444 34.9068 7.81444 35.2988V36.0044V288.672" stroke="#FFC32D" stroke-miterlimit="10"/>
<path d="M51.4985 274.924C51.5056 274.973 51.5056 275.03 51.5056 275.087C51.5056 275.472 51.3773 275.786 51.2134 275.786L7.59346 290.147L7.52219 290.168C7.35826 290.168 7.22998 289.855 7.22998 289.47C7.22998 289.078 7.35826 288.765 7.52219 288.765L7.81441 288.672L50.3795 274.66L51.2134 274.389C51.3559 274.389 51.47 274.61 51.4985 274.924Z" fill="#FFC32D" stroke="#FFC32D" stroke-miterlimit="10"/>
<path d="M273.888 133.543C274.252 133.572 274.544 133.942 274.544 134.406V298.329" fill="#FFC32D"/>
<path d="M273.888 133.543C274.252 133.572 274.544 133.942 274.544 134.406V298.329" stroke="#FFC32D" stroke-miterlimit="10"/>
<path d="M273.125 298.642C273.118 298.614 273.118 298.585 273.118 298.558V298.002V135.268V134.577" fill="#FFC32D"/>
<path d="M273.125 298.642C273.118 298.614 273.118 298.585 273.118 298.558V298.002V135.268V134.577" stroke="#FFC32D" stroke-miterlimit="10"/>
<path d="M331.093 3.61685C299.619 4.51491 274.095 65.1623 273.889 133.543C273.881 133.828 273.881 134.12 273.881 134.405C273.881 134.576 273.86 134.733 273.824 134.861C273.752 135.111 273.631 135.275 273.497 135.275C273.447 135.275 273.404 135.253 273.361 135.211C273.361 135.211 273.354 135.218 273.354 135.211C273.233 135.104 273.147 134.869 273.119 134.576C273.112 134.526 273.112 134.462 273.112 134.405C273.112 134.113 273.112 133.828 273.119 133.536C273.126 129.865 273.204 126.223 273.368 122.609C276.085 57.878 300.874 2.74018 331.093 1.88489" fill="#FFC32D"/>
<path d="M331.093 3.61685C299.619 4.51491 274.095 65.1623 273.889 133.543C273.881 133.828 273.881 134.12 273.881 134.405C273.881 134.576 273.86 134.733 273.824 134.861C273.752 135.111 273.631 135.275 273.497 135.275C273.447 135.275 273.404 135.253 273.361 135.211C273.361 135.211 273.354 135.218 273.354 135.211C273.233 135.104 273.147 134.869 273.119 134.576C273.112 134.526 273.112 134.462 273.112 134.405C273.112 134.113 273.112 133.828 273.119 133.536C273.126 129.865 273.204 126.223 273.368 122.609C276.085 57.878 300.874 2.74018 331.093 1.88489" stroke="#FFC32D" stroke-width="2" stroke-miterlimit="10"/>
<path d="M331.478 317.896L274.544 300.069L273.497 299.741C273.375 299.741 273.268 299.62 273.197 299.421C273.161 299.314 273.132 299.193 273.119 299.05C273.112 298.993 273.112 298.936 273.112 298.872C273.112 298.793 273.119 298.715 273.126 298.644C273.169 298.273 273.319 298.003 273.497 298.003L273.825 298.103L273.832 298.11L274.545 298.332L331.094 316.036" fill="#FFC32D"/>
<path d="M331.478 317.896L274.544 300.069L273.497 299.741C273.375 299.741 273.268 299.62 273.197 299.421C273.161 299.314 273.132 299.193 273.119 299.05C273.112 298.993 273.112 298.936 273.112 298.872C273.112 298.793 273.119 298.715 273.126 298.644C273.169 298.273 273.319 298.003 273.497 298.003L273.825 298.103L273.832 298.11L274.545 298.332L331.094 316.036" stroke="#FFC32D" stroke-width="2" stroke-miterlimit="10"/>
<path d="M331.806 317.993C331.685 317.993 331.578 317.958 331.478 317.893C331.25 317.751 331.093 317.465 331.093 317.124V316.033V3.61637V1.88441V1.87016C331.093 1.38549 331.414 1.00061 331.806 1.00061C332.198 1.00061 332.519 1.38549 332.519 1.87016V317.124C332.519 317.608 332.198 317.993 331.806 317.993Z" fill="#FFC32D" stroke="#FFC32D" stroke-width="2" stroke-miterlimit="10"/>
<path d="M279.277 143.677C279.576 143.706 279.804 144.005 279.804 144.369V276.819" fill="#FFC32D"/>
<path d="M279.277 143.677C279.576 143.706 279.804 144.005 279.804 144.369V276.819" stroke="#FFC32D" stroke-miterlimit="10"/>
<path d="M278.664 277.068C278.656 277.046 278.656 277.032 278.656 277.011V144.512" fill="#FFC32D"/>
<path d="M278.664 277.068C278.656 277.046 278.656 277.032 278.656 277.011V144.512" stroke="#FFC32D" stroke-miterlimit="10"/>
<path d="M325.505 37.6856C300.067 38.4197 279.44 88.4044 279.276 143.678C279.269 143.906 279.269 144.141 279.269 144.369C279.269 144.754 279.134 145.075 278.963 145.075C278.813 145.075 278.684 144.832 278.655 144.512C278.648 144.462 278.648 144.419 278.648 144.369C278.648 88.0552 299.617 37.0227 325.504 36.2815" fill="#FFC32D"/>
<path d="M325.505 37.6856C300.067 38.4197 279.44 88.4044 279.276 143.678C279.269 143.906 279.269 144.141 279.269 144.369C279.269 144.754 279.134 145.075 278.963 145.075C278.813 145.075 278.684 144.832 278.655 144.512C278.648 144.462 278.648 144.419 278.648 144.369C278.648 88.0552 299.617 37.0227 325.504 36.2815" stroke="#FFC32D" stroke-miterlimit="10"/>
<path d="M325.826 292.308L278.963 277.968C278.792 277.968 278.65 277.655 278.65 277.27C278.65 277.198 278.657 277.135 278.665 277.07C278.7 276.778 278.822 276.564 278.964 276.564L279.805 276.821L325.506 290.812" fill="#FFC32D"/>
<path d="M325.826 292.308L278.963 277.968C278.792 277.968 278.65 277.655 278.65 277.27C278.65 277.198 278.657 277.135 278.665 277.07C278.7 276.778 278.822 276.564 278.964 276.564L279.805 276.821L325.506 290.812" stroke="#FFC32D" stroke-miterlimit="10"/>
<path d="M326.075 292.384C325.983 292.384 325.904 292.356 325.826 292.306C325.633 292.199 325.505 291.964 325.505 291.686V290.81V37.686V36.2819V36.2747C325.505 35.8827 325.762 35.5762 326.075 35.5762C326.396 35.5762 326.653 35.8827 326.653 36.2747V291.686C326.653 292.071 326.396 292.384 326.075 292.384Z" fill="#FFC32D" stroke="#FFC32D" stroke-miterlimit="10"/>
</svg>
