<svg width="468" height="447" viewBox="0 0 468 447" fill="none" xmlns="http://www.w3.org/2000/svg">
<path d="M466.13 2.22101V444.531C466.13 445.211 465.68 445.751 465.13 445.751C465.43 445.751 465.67 445.211 465.67 444.531C465.67 443.861 465.43 443.31 465.13 443.31L464.13 443V4.67001C464.46 4.65001 464.8 4.64999 465.13 4.64999C465.43 4.64999 465.67 4.11 465.67 3.44C465.67 2.76 465.43 2.22 465.13 2.22C464.8 2.22 464.46 2.22002 464.13 2.24002V2.22C464.13 1.54 464.58 1 465.13 1C465.68 1 466.13 1.54101 466.13 2.22101Z" fill="#FFC32D"/>
<path d="M465.13 2.22095C465.43 2.22095 465.67 2.76095 465.67 3.44095C465.67 4.11095 465.43 4.65094 465.13 4.65094C464.8 4.65094 464.46 4.65096 464.13 4.67096V2.24094C464.46 2.22094 464.8 2.22095 465.13 2.22095Z" fill="#FFC32D"/>
<path d="M465.13 443.311C465.43 443.311 465.67 443.862 465.67 444.532C465.67 445.212 465.43 445.752 465.13 445.752L464.67 445.612C464.35 445.412 464.13 445.011 464.13 444.532V443.002L465.13 443.311Z" fill="#FFC32D"/>
<path d="M464.67 445.611L465.13 445.751C464.96 445.751 464.809 445.701 464.67 445.611Z" fill="#FFC32D"/>
<path d="M464.67 445.611L384.79 420.6V418.92H384.72C384.771 418.79 384.79 418.64 384.79 418.481V418.161L464.13 443.001V444.531C464.13 445.011 464.35 445.411 464.67 445.611Z" fill="#FFC32D"/>
<path d="M464.13 4.67102V443.001L384.79 418.161V188.171C384.79 187.521 384.38 187.001 383.87 186.961C384.16 91.021 419.97 5.93102 464.13 4.67102ZM457.9 408.841V50.491C457.9 49.941 457.54 49.511 457.089 49.511C456.65 49.511 456.289 49.941 456.289 50.491V50.501C419.969 51.541 390.549 123.141 390.549 202.151C390.549 202.221 390.549 202.281 390.559 202.351V388.251C390.559 388.281 390.559 388.301 390.57 388.331C390.559 388.421 390.549 388.511 390.549 388.611C390.549 389.151 390.749 389.59 390.989 389.59L456.739 409.71C456.848 409.78 456.959 409.82 457.089 409.82C457.54 409.821 457.9 409.381 457.9 408.841Z" fill="#FFC32D"/>
<path d="M464.13 2.24097V4.67099C419.97 5.93099 384.16 91.021 383.87 186.961C383.84 186.951 383.82 186.951 383.79 186.951C383.78 186.951 383.78 186.951 383.77 186.951C383.749 181.801 383.53 176.701 383.139 171.661C383.139 171.651 383.139 171.631 383.139 171.621C386.95 80.801 421.73 3.44097 464.13 2.24097Z" fill="#FFC32D"/>
<path d="M457.9 50.491V408.841C457.9 409.381 457.54 409.821 457.089 409.821C457.329 409.821 457.529 409.381 457.529 408.841C457.529 408.291 457.329 407.851 457.089 407.851L456.289 407.612V52.472C456.559 52.462 456.819 52.462 457.089 52.462C457.329 52.462 457.529 52.022 457.529 51.472C457.529 50.932 457.329 50.492 457.089 50.492C456.819 50.492 456.559 50.492 456.289 50.502V50.492C456.289 49.942 456.649 49.512 457.089 49.512C457.54 49.511 457.9 49.941 457.9 50.491Z" fill="#FFC32D"/>
<path d="M457.09 50.491C457.33 50.491 457.53 50.931 457.53 51.471C457.53 52.021 457.33 52.461 457.09 52.461C456.82 52.461 456.56 52.461 456.29 52.471V50.501C456.559 50.491 456.82 50.491 457.09 50.491Z" fill="#FFC32D"/>
<path d="M457.09 407.851C457.33 407.851 457.53 408.291 457.53 408.841C457.53 409.381 457.33 409.821 457.09 409.821L456.74 409.711C456.469 409.561 456.29 409.232 456.29 408.841V407.612L457.09 407.851Z" fill="#FFC32D"/>
<path d="M456.74 409.711L457.09 409.821C456.96 409.821 456.85 409.781 456.74 409.711Z" fill="#FFC32D"/>
<path d="M456.74 409.711L390.99 389.591C390.75 389.591 390.55 389.152 390.55 388.612C390.55 388.511 390.56 388.422 390.571 388.332C390.6 388.842 390.941 389.242 391.361 389.242C391.81 389.242 392.171 388.802 392.171 388.252V387.982L456.291 407.612V408.841C456.29 409.231 456.47 409.561 456.74 409.711Z" fill="#FFC32D"/>
<path d="M456.29 50.501V52.471C420.6 53.501 391.66 123.631 391.43 201.181C391.41 201.171 391.38 201.171 391.361 201.171C390.921 201.171 390.56 201.611 390.56 202.151V202.351C390.55 202.281 390.55 202.221 390.55 202.151C390.55 123.141 419.97 51.541 456.29 50.501Z" fill="#FFC32D"/>
<path d="M392.17 387.981V388.251C392.17 388.801 391.81 389.241 391.36 389.241C390.94 389.241 390.599 388.841 390.57 388.331C390.62 387.921 390.79 387.621 390.99 387.621L392.17 387.981Z" fill="#FFC32D"/>
<path d="M392.17 202.151V387.982L390.99 387.622C390.79 387.622 390.62 387.922 390.57 388.332C390.559 388.302 390.559 388.282 390.559 388.252V202.352C390.599 202.802 390.78 203.142 390.99 203.142C391.23 203.142 391.42 202.692 391.42 202.152C391.42 201.832 391.42 201.502 391.43 201.182C391.85 201.221 392.17 201.641 392.17 202.151Z" fill="#FFC32D"/>
<path d="M391.43 201.181C391.42 201.501 391.42 201.831 391.42 202.151C391.42 202.691 391.231 203.141 390.99 203.141C390.78 203.141 390.599 202.801 390.559 202.351V202.151C390.559 201.611 390.919 201.171 391.36 201.171C391.38 201.171 391.41 201.171 391.43 201.181Z" fill="#FFC32D"/>
<path d="M384.79 420.601V440.261H383.79V439.041H382.79V420.141H383.32L384.79 420.601Z" fill="#FFC32D"/>
<path d="M384.79 418.921V420.601L383.32 420.141H383.79V419.702C384.21 419.702 384.57 419.382 384.72 418.922H384.79V418.921Z" fill="#FFC32D"/>
<path d="M384.79 418.161V418.481C384.79 418.64 384.77 418.791 384.72 418.92H383.79V417.85L384.79 418.161Z" fill="#FFC32D"/>
<path d="M384.79 188.171V418.161L383.79 417.85V417.701H383.78V188.811C383.83 188.631 383.86 188.411 383.86 188.171C383.86 187.771 383.86 187.361 383.87 186.961C384.38 187.001 384.79 187.521 384.79 188.171Z" fill="#FFC32D"/>
<path d="M383.79 418.921H384.72C384.571 419.381 384.21 419.701 383.79 419.701V418.921Z" fill="#FFC32D"/>
<path d="M383.87 186.961C383.86 187.361 383.86 187.771 383.86 188.171C383.86 188.411 383.83 188.631 383.78 188.811V188.161C383.78 187.761 383.78 187.351 383.77 186.951C383.78 186.951 383.78 186.951 383.79 186.951C383.82 186.951 383.84 186.951 383.87 186.961Z" fill="#FFC32D"/>
<path d="M383.79 440.261V441.481L80.05 441.611V440.391H81.05V439.171L382.79 439.041V440.261H383.79Z" fill="#FFC32D"/>
<path d="M383.79 439.041H382.79V440.261H383.79V439.041Z" fill="#FFC32D"/>
<path d="M383.79 419.701V420.14H383.32C383.15 420.14 383 419.97 382.9 419.691C383.04 419.68 383.17 419.621 383.29 419.531C383.43 419.641 383.6 419.701 383.79 419.701Z" fill="#FFC32D"/>
<path d="M383.79 418.921V419.701C383.6 419.701 383.43 419.64 383.29 419.531C383.48 419.401 383.63 419.18 383.71 418.921H383.79Z" fill="#FFC32D"/>
<path d="M383.79 417.851V418.921H383.71C383.76 418.791 383.78 418.641 383.78 418.491V417.841L383.79 417.851Z" fill="#FFC32D"/>
<path d="M383.79 417.701V417.851L383.78 417.841V417.701H383.79Z" fill="#FFC32D"/>
<path d="M383.78 417.841V418.491C383.78 418.64 383.759 418.791 383.71 418.921H382.86C382.83 418.821 382.799 418.721 382.799 418.601C382.86 418.081 383.07 417.702 383.32 417.702L383.78 417.841Z" fill="#FFC32D"/>
<path d="M383.78 417.701V417.841L383.32 417.701H383.78Z" fill="#FFC32D"/>
<path d="M383.78 188.811V417.701H383.32H382.79V189.381C382.91 189.381 383.01 189.361 383.12 189.301C383.12 189.311 383.13 189.301 383.13 189.301C383.191 189.361 383.25 189.391 383.32 189.391C383.51 189.391 383.68 189.161 383.78 188.811Z" fill="#FFC32D"/>
<path d="M383.78 188.161V188.811C383.679 189.161 383.509 189.391 383.32 189.391C383.25 189.391 383.19 189.361 383.13 189.301C383.51 189.141 383.78 188.691 383.78 188.161Z" fill="#FFC32D"/>
<path d="M383.77 186.951C383.78 187.351 383.78 187.761 383.78 188.161C383.78 187.731 383.58 187.341 383.3 187.121C383.44 187.011 383.6 186.951 383.77 186.951Z" fill="#FFC32D"/>
<path d="M382.86 418.921H383.71C383.63 419.181 383.481 419.401 383.29 419.531C383.09 419.401 382.94 419.181 382.86 418.921Z" fill="#FFC32D"/>
<path d="M383.3 187.121C383.58 187.341 383.78 187.731 383.78 188.161C383.78 188.691 383.509 189.141 383.13 189.301C383.13 189.301 383.12 189.311 383.12 189.301C382.95 189.151 382.83 188.821 382.79 188.411V188.171C382.79 187.711 382.99 187.311 383.3 187.121Z" fill="#FFC32D"/>
<path d="M383.14 171.661C383.531 176.701 383.75 181.801 383.771 186.951C383.6 186.951 383.441 187.011 383.3 187.121L383.29 187.111C383.14 187.001 382.97 186.951 382.79 186.951C382.8 181.801 382.91 176.691 383.14 171.621C383.14 171.631 383.14 171.651 383.14 171.661Z" fill="#FFC32D"/>
<path d="M382.79 417.701H383.32C383.07 417.701 382.86 418.081 382.799 418.6C382.789 418.56 382.789 418.52 382.789 418.481V417.701H382.79Z" fill="#FFC32D"/>
<path d="M383.32 420.141H382.79V419.702C382.83 419.702 382.87 419.702 382.9 419.692C383 419.971 383.15 420.141 383.32 420.141Z" fill="#FFC32D"/>
<path d="M383.29 187.111L383.3 187.121C382.99 187.311 382.79 187.711 382.79 188.171V188.411C382.78 188.341 382.78 188.251 382.78 188.171C382.78 187.761 382.78 187.361 382.79 186.951C382.97 186.951 383.14 187.001 383.29 187.111Z" fill="#FFC32D"/>
<path d="M383.29 419.531C383.17 419.621 383.04 419.68 382.9 419.691C382.849 419.541 382.809 419.371 382.79 419.17V418.92H382.86C382.94 419.181 383.09 419.401 383.29 419.531Z" fill="#FFC32D"/>
<path d="M383.12 189.301C383.01 189.361 382.91 189.381 382.79 189.381V188.411C382.83 188.821 382.95 189.151 383.12 189.301Z" fill="#FFC32D"/>
<path d="M382.9 419.691C382.87 419.701 382.83 419.701 382.79 419.701V419.171C382.809 419.371 382.85 419.541 382.9 419.691Z" fill="#FFC32D"/>
<path d="M382.86 418.921H382.79V419.171C382.78 419.091 382.78 419.011 382.78 418.921C382.78 418.811 382.79 418.701 382.8 418.601C382.8 418.721 382.83 418.821 382.86 418.921Z" fill="#FFC32D"/>
<path d="M383.14 171.621C382.911 176.691 382.8 181.801 382.79 186.951H382.78C382.23 186.951 381.78 187.491 381.78 188.161C381.78 91.011 314.33 11.971 231.41 11.971C148.5 11.971 81.05 91.011 81.05 188.161H80.05C80.05 182.541 79.94 176.961 79.71 171.431C86.93 80.751 152.21 9.53101 231.41 9.53101C310.68 9.53101 375.99 80.861 383.14 171.621Z" fill="#FFC32D"/>
<path d="M382.79 418.481C382.79 418.52 382.79 418.56 382.8 418.6C382.79 418.701 382.78 418.81 382.78 418.92C382.78 419.01 382.78 419.09 382.79 419.17V419.7H382.78C382.23 419.7 381.78 419.15 381.78 418.49V417.7H382.79V418.481Z" fill="#FFC32D"/>
<path d="M382.79 420.141V439.041L81.05 439.171V420.141H88.2L88.1201 420.371L89.1001 420.831C92.5601 422.421 98.6201 421.281 104.48 420.181L104.71 420.141H118.91C120.91 422.581 122.55 423.782 123.89 423.782C124.16 423.782 124.42 423.732 124.66 423.632C125.68 423.233 126.31 422.082 126.55 420.252C126.56 420.222 126.56 420.182 126.56 420.142H159.52H309.3H340.21C340.39 420.852 340.66 421.582 341.08 422.292C342.4 424.422 343.75 424.842 345.32 424.842C345.78 424.842 346.27 424.802 346.78 424.772L348.25 424.672L348.41 423.752C348.51 423.192 348.54 422.332 348.59 421.332C348.611 420.952 348.62 420.552 348.64 420.142H358.281C358.921 420.502 359.551 420.823 360.14 421.092C362.1 422.022 370.33 423.162 372.6 420.992L372.89 420.712L372.96 420.262C372.97 420.233 372.97 420.182 372.981 420.142H382.79V420.141Z" fill="#FFC32D"/>
<path d="M382.79 419.701V420.14H372.98C373.049 419.58 372.95 418.991 372.69 418.361C372.599 418.14 372.49 417.921 372.36 417.701H381.78V418.491C381.78 419.151 382.23 419.701 382.78 419.701H382.79Z" fill="#FFC32D"/>
<path d="M382.79 189.381V417.701H381.78V188.161C381.78 188.851 382.23 189.381 382.78 189.381H382.79Z" fill="#FFC32D"/>
<path d="M382.79 188.411V189.381H382.78C382.23 189.381 381.78 188.851 381.78 188.161C381.78 187.491 382.23 186.951 382.78 186.951H382.79C382.78 187.361 382.78 187.761 382.78 188.171C382.78 188.251 382.78 188.341 382.79 188.411Z" fill="#FFC32D"/>
<path d="M381.78 188.161V417.701H372.36C370.49 414.551 364.54 410.451 358.059 406.201C356.249 405.011 354.679 403.981 354.099 403.481C349.65 399.67 346.589 395.001 343.36 390.06C342.78 389.17 342.2 388.281 341.599 387.371C331.549 372.261 324.74 356.921 321.37 341.761C319.93 335.331 319.64 330.051 319.64 323.101C319.64 321.811 319.67 320.501 319.701 319.202C319.721 318.032 319.751 316.842 319.751 315.672C319.751 315.392 319.751 315.102 319.751 314.822C319.751 313.221 319.721 312.002 319.641 310.882C319.061 301.712 317.952 294.132 314.391 286.943C312.662 283.432 310.881 279.802 308.961 276.293C307.772 274.103 306.451 272.303 305.051 270.423C304.431 269.563 303.801 268.713 303.171 267.793C298.641 261.233 292.411 255.563 283.561 249.943C282.221 249.083 280.771 248.392 279.371 247.703C278.871 247.463 278.371 247.223 277.901 246.973C276.071 246.053 273.721 245.114 271.621 244.494C270.391 244.124 269.171 244.164 267.991 244.183L267.701 244.194C267.391 244.194 267.081 244.194 266.761 244.173C266.131 244.153 265.501 244.073 264.911 243.853C263.571 243.364 262.191 242.333 260.981 241.414C259.741 240.484 258.411 238.534 258.491 237.344C258.501 237.174 258.541 236.634 259.461 236.184C260.121 235.865 261.521 236.075 262.641 236.245C263.411 236.354 264.131 236.455 264.741 236.455C265.841 236.415 266.941 236.335 268.001 236.245C268.921 236.175 269.831 236.095 270.761 236.064C273.881 235.915 276.271 235.014 279.031 232.934L279.161 232.844C284.191 229.074 287.831 226.344 291.341 220.294C300.402 204.634 299.362 183.794 288.861 170.744C288.291 170.034 287.721 169.304 287.161 168.554C286.031 167.084 284.881 165.564 283.601 164.224C281.711 162.264 273.121 156.164 270.241 155.424C258.411 152.374 241.801 154.344 231.351 165.654C227.111 170.244 224.961 177.354 223.231 183.064C221.801 187.784 219.851 194.804 219.381 201.414C218.951 207.404 219.931 215.734 223.961 221.134C225.561 223.294 227.591 225.244 229.561 227.144C229.951 227.514 230.331 227.884 230.701 228.254C230.751 228.294 230.801 228.344 230.851 228.394C231.281 228.814 231.761 229.415 232.261 230.035C233.051 231.014 233.851 232.024 234.711 232.684C234.751 233.584 234.871 234.445 234.991 235.264C235.071 235.785 235.141 236.285 235.181 236.774C232.391 236.835 229.361 236.644 225.531 236.205C224.031 236.055 222.541 235.865 221.041 235.675C214.941 234.915 208.631 234.135 202.341 234.795C194.571 235.595 187.661 242.005 184.241 245.745C177.701 252.894 172.961 262.165 168.371 271.125C165.811 276.115 163.171 281.274 160.301 285.865C158.321 289.054 156.521 292.554 154.801 296.554C154.701 296.794 154.591 297.034 154.501 297.274C151.881 303.445 149.761 310.014 147.721 316.365L146.721 319.455C144.321 326.814 141.091 333.814 137.971 340.595C136.051 344.745 134.071 349.035 132.291 353.385C130.701 357.275 129.271 361.315 127.891 365.236C125.301 372.565 122.611 380.135 118.801 386.895L118.611 386.805C118.601 386.855 118.581 386.906 118.561 386.935L118.511 387.065C115.771 394.755 110.521 399.376 105.261 403.236C101.801 405.756 98.871 407.506 95.491 409.065C92.181 410.586 90.531 413.975 89.101 417.706H81.051V188.166C81.051 91.0161 148.501 11.9761 231.411 11.9761C314.33 11.9711 381.78 91.0111 381.78 188.161Z" fill="#FFC32D"/>
<path d="M372.69 418.361C372.95 418.991 373.049 419.581 372.98 420.14H371.799V417.701H372.36C372.49 417.921 372.6 418.141 372.69 418.361Z" fill="#FFC32D"/>
<path d="M371.8 420.141H372.981C372.97 420.181 372.97 420.232 372.96 420.261L372.89 420.711L372.6 420.991C370.33 423.161 362.1 422.02 360.14 421.091C359.55 420.821 358.92 420.501 358.281 420.141H358.481V417.702L358.531 417.622C358.651 417.682 358.76 417.742 358.871 417.802C359.56 418.182 360.231 418.522 360.871 418.812C362.571 419.632 368.741 420.283 370.861 419.382C369.541 416.512 361.47 411.212 357.121 408.352C355.091 407.022 353.621 406.062 352.951 405.493C348.261 401.463 345.121 396.663 341.801 391.573C341.221 390.693 340.641 389.812 340.051 388.913C329.822 373.533 322.881 357.883 319.442 342.392C317.942 335.712 317.641 330.262 317.641 323.102C317.641 321.783 317.671 320.472 317.702 319.142C317.712 318.653 317.722 318.153 317.732 317.663C318.112 316.903 318.471 316.203 318.891 315.673H319.751C319.751 316.843 319.721 318.033 319.701 319.203C319.671 320.503 319.64 321.812 319.64 323.102C319.64 330.052 319.93 335.332 321.37 341.762C324.74 356.922 331.55 372.262 341.599 387.372C342.2 388.282 342.78 389.172 343.36 390.061C346.589 395.001 349.65 399.671 354.099 403.482C354.679 403.982 356.249 405.011 358.059 406.202C364.539 410.452 370.49 414.552 372.36 417.702H371.799V420.141H371.8Z" fill="#FFC32D"/>
<path d="M358.53 417.621L358.48 417.701H353.74C352.07 416.951 349.57 416.511 348.98 417.31C348.98 417.331 348.94 417.42 348.889 417.701H347.719V420.14H348.639C348.619 420.55 348.61 420.951 348.589 421.33C348.539 422.33 348.509 423.19 348.409 423.75L348.249 424.67L346.779 424.77C346.269 424.8 345.779 424.84 345.319 424.84C343.749 424.84 342.399 424.42 341.079 422.29C340.659 421.58 340.389 420.85 340.209 420.14H340.959V417.701L341.73 417.551C341.75 417.612 341.759 417.681 341.77 417.741C341.82 418.031 341.87 418.331 341.94 418.621C342.089 419.381 342.28 420.161 342.679 420.831C343.719 422.511 344.559 422.491 346.539 422.341C346.559 421.982 346.569 421.591 346.589 421.211C346.619 420.421 346.659 419.571 346.73 418.801C346.86 417.171 347.08 416.241 347.49 415.681C349.309 413.242 353.95 415.112 355.099 415.742L356.24 416.372C357.01 416.801 357.78 417.221 358.53 417.621Z" fill="#FFC32D"/>
<path d="M358.48 417.701V420.14H358.28C358.21 420.111 358.139 420.071 358.07 420.031C357.21 419.6 356.309 419.1 355.41 418.591L354.28 417.971C354.11 417.881 353.94 417.791 353.74 417.701H358.48Z" fill="#FFC32D"/>
<path d="M358.28 420.141H348.639C348.66 419.782 348.679 419.402 348.709 419.051C348.759 418.391 348.829 417.971 348.889 417.701H353.74C353.94 417.791 354.11 417.881 354.28 417.971L355.41 418.591C356.309 419.101 357.21 419.601 358.07 420.031C358.14 420.071 358.21 420.111 358.28 420.141Z" fill="#FFC32D"/>
<path d="M347.72 417.701H348.89C348.83 417.971 348.76 418.39 348.71 419.051C348.68 419.402 348.66 419.781 348.64 420.141H347.72V417.701Z" fill="#FFC32D"/>
<path d="M341.73 417.551L340.959 417.701H339.699C339.539 416.81 339.339 416.001 338.928 415.331C337.958 413.731 335.449 412.56 333.618 411.691C333.288 411.55 332.978 411.401 332.688 411.251C321.568 405.851 310.568 396.531 300.858 384.341C295.448 377.531 293.208 368.971 291.047 360.692C289.717 355.572 288.337 350.292 286.217 345.511C285.927 344.862 285.567 344.081 285.177 343.322C283.927 340.912 283.027 338.692 282.137 335.971C282.567 335.431 282.947 334.911 283.297 334.411C283.417 334.221 283.547 334.051 283.657 333.871C283.747 334.241 283.847 334.581 283.957 334.931C284.807 337.572 285.677 339.702 286.867 342.032C287.097 342.471 287.317 342.922 287.517 343.351C287.357 343.431 287.197 343.511 287.037 343.591L287.777 345.862C288.007 345.752 288.237 345.632 288.467 345.511C290.407 350.152 291.697 355.131 292.957 359.942C295.137 368.322 297.207 376.242 302.297 382.641C311.807 394.591 322.568 403.702 333.438 408.982C333.717 409.131 334.018 409.261 334.337 409.421C336.507 410.442 339.217 411.701 340.537 413.871C341.24 415.031 341.51 416.361 341.73 417.551Z" fill="#FFC32D"/>
<path d="M340.96 417.701V420.14H340.21C340.12 419.83 340.05 419.51 339.99 419.22C339.929 418.901 339.87 418.58 339.809 418.26C339.78 418.071 339.74 417.89 339.7 417.7H340.96V417.701Z" fill="#FFC32D"/>
<path d="M340.21 420.141H309.3V419.202L311.24 418.641C311.179 418.331 311.12 418.011 311.05 417.702H339.7C339.74 417.891 339.78 418.072 339.809 418.262C339.87 418.582 339.929 418.903 339.99 419.222C340.05 419.511 340.12 419.831 340.21 420.141Z" fill="#FFC32D"/>
<path d="M339.7 417.701H311.05C310.14 413.251 308.901 409.231 307.26 405.421C304.521 399.071 300.401 393.051 295.01 387.541C293.79 386.301 292.52 385.141 291.29 384.02C288.3 381.3 285.48 378.741 283.42 375.031C279.89 368.691 277.5 361.1 276.67 353.671C275.81 345.831 276.79 342.261 281.23 337.081C281.56 336.701 281.86 336.321 282.14 335.971C283.03 338.692 283.93 340.911 285.18 343.322C285.57 344.082 285.93 344.862 286.22 345.511C288.34 350.291 289.72 355.572 291.05 360.692C293.21 368.971 295.45 377.532 300.861 384.341C310.571 396.531 321.571 405.851 332.691 411.251C332.981 411.401 333.291 411.551 333.621 411.691C335.451 412.56 337.961 413.731 338.931 415.331C339.34 416.001 339.54 416.811 339.7 417.701Z" fill="#FFC32D"/>
<path d="M319.75 314.821C319.75 315.1 319.75 315.39 319.75 315.671H318.89L317.75 314.361V314.35C317.74 313.05 317.71 312.031 317.65 311.09C317.089 302.25 316.03 294.981 312.67 288.2C310.96 284.71 309.191 281.11 307.29 277.65C306.18 275.599 304.91 273.87 303.57 272.04C302.929 271.17 302.28 270.29 301.639 269.37C297.289 263.059 291.249 257.57 282.629 252.09C281.389 251.3 279.989 250.63 278.639 249.97C278.119 249.72 277.609 249.47 277.119 249.231C275.389 248.34 273.149 247.451 271.139 246.861C270.309 246.611 269.429 246.6 268.499 246.611L268.679 245.701L268.699 245.39L267.679 245.401L266.729 245.121L266.759 244.171C267.079 244.192 267.389 244.192 267.699 244.192L267.989 244.181C269.169 244.161 270.389 244.121 271.619 244.492C273.719 245.112 276.069 246.052 277.899 246.971C278.369 247.221 278.869 247.461 279.369 247.701C280.769 248.39 282.219 249.081 283.559 249.941C292.409 255.56 298.639 261.231 303.169 267.791C303.799 268.711 304.429 269.561 305.049 270.421C306.449 272.301 307.77 274.101 308.959 276.291C310.879 279.801 312.659 283.431 314.389 286.941C317.95 294.13 319.059 301.711 319.639 310.88C319.72 312.001 319.75 313.221 319.75 314.821Z" fill="#FFC32D"/>
<path d="M317.75 314.361L318.89 315.671C318.47 316.201 318.111 316.901 317.731 317.661C317.751 316.711 317.76 315.77 317.751 314.821V314.361H317.75Z" fill="#FFC32D"/>
<path d="M317.75 314.821C317.76 315.77 317.75 316.711 317.73 317.661C317.719 317.681 317.709 317.701 317.7 317.721C317.33 318.471 316.94 319.242 316.46 319.931C314.94 322.152 313.16 324.152 311.03 326.051L310.809 326.241C307.389 329.27 304.15 332.131 301.219 335.611C297.839 339.631 293.559 342.951 288.469 345.51C288.319 345.13 288.149 344.74 287.979 344.361C287.839 344.041 287.689 343.701 287.519 343.35C292.449 340.89 296.599 337.701 299.829 333.871C302.859 330.261 306.149 327.35 309.629 324.27L309.849 324.081C311.849 322.291 313.509 320.421 314.929 318.371C315.309 317.81 315.65 317.151 315.999 316.451C316.419 315.6 316.869 314.721 317.429 313.991L317.749 314.35V314.361V314.821H317.75Z" fill="#FFC32D"/>
<path d="M311.05 417.701C311.12 418.011 311.18 418.331 311.24 418.64L309.3 419.201C309.2 418.701 309.1 418.201 308.99 417.701H311.05Z" fill="#FFC32D"/>
<path d="M311.05 417.701H308.99C308.12 413.671 306.98 410.011 305.49 406.56C302.87 400.491 298.91 394.71 293.72 389.411C292.55 388.211 291.3 387.081 290.09 385.981C287.1 383.26 284.01 380.451 281.76 376.401C278.07 369.751 275.55 361.8 274.69 353.991C273.75 345.411 274.95 341.041 279.84 335.321C280.43 334.631 280.93 333.991 281.39 333.371L281.41 333.381L281.58 333.982C281.74 334.591 281.9 335.192 282.09 335.811C282.11 335.862 282.12 335.921 282.14 335.971C281.86 336.322 281.56 336.701 281.23 337.081C276.79 342.261 275.81 345.831 276.67 353.671C277.5 361.101 279.89 368.692 283.42 375.031C285.48 378.741 288.3 381.301 291.29 384.02C292.52 385.14 293.79 386.3 295.01 387.541C300.4 393.051 304.52 399.071 307.26 405.421C308.9 409.231 310.14 413.251 311.05 417.701Z" fill="#FFC32D"/>
<path d="M309.3 419.201V420.14H159.52V419.02C159.55 418.581 159.59 418.14 159.63 417.701H308.99C309.1 418.201 309.2 418.701 309.3 419.201Z" fill="#FFC32D"/>
<path d="M288.86 170.741C299.36 183.791 300.401 204.631 291.34 220.291C287.83 226.341 284.19 229.071 279.16 232.841L279.03 232.931C276.27 235.011 273.88 235.911 270.76 236.061C269.83 236.091 268.92 236.171 268 236.242C266.94 236.332 265.84 236.412 264.74 236.452C264.13 236.452 263.41 236.351 262.64 236.242C261.52 236.072 260.12 235.862 259.46 236.181C258.54 236.631 258.5 237.171 258.49 237.341C258.41 238.531 259.74 240.482 260.98 241.411C262.19 242.331 263.57 243.361 264.91 243.85C265.5 244.071 266.13 244.151 266.76 244.17L266.73 245.12L266.44 246.61H266.43C265.74 246.559 265.04 246.45 264.33 246.179C262.75 245.61 261.25 244.49 259.93 243.499C258.51 242.419 256.31 239.749 256.5 237.129C256.56 236.269 256.89 235.159 258.03 234.329C258.03 234.629 258.06 234.939 258.11 235.259L260.08 234.829C260.01 234.389 260.01 233.969 260.07 233.579C260.95 233.518 261.93 233.669 262.89 233.819C263.58 233.919 264.23 234.018 264.69 234.008C265.75 233.968 266.83 233.888 267.87 233.798C268.81 233.729 269.75 233.658 270.69 233.618C273.46 233.498 275.51 232.718 277.98 230.858L278.11 230.757C283.12 227.007 286.43 224.517 289.71 218.887C298.21 204.187 297.25 184.647 287.43 172.457C286.85 171.717 286.27 170.967 285.69 170.207C284.61 168.787 283.49 167.317 282.3 166.077C280.42 164.127 272.21 158.417 269.83 157.807C258.49 154.877 242.6 156.727 232.68 167.477C228.81 171.647 226.76 178.437 225.11 183.907C223.72 188.477 221.82 195.297 221.37 201.627C221 206.847 221.84 214.667 225.44 219.497C226.65 221.127 228.18 222.687 229.73 224.197C229.91 226.676 230.33 227.687 230.72 228.227L230.7 228.247C230.33 227.877 229.95 227.507 229.56 227.137C227.59 225.238 225.56 223.287 223.96 221.127C219.93 215.727 218.95 207.397 219.38 201.407C219.85 194.797 221.8 187.777 223.23 183.057C224.96 177.347 227.11 170.237 231.35 165.647C241.8 154.337 258.41 152.367 270.24 155.417C273.12 156.157 281.71 162.257 283.6 164.217C284.88 165.557 286.03 167.077 287.16 168.547C287.72 169.301 288.29 170.031 288.86 170.741Z" fill="#FFC32D"/>
<path d="M288.47 345.511C288.24 345.631 288.01 345.751 287.78 345.862L287.04 343.591C287.2 343.511 287.36 343.431 287.52 343.351C287.69 343.702 287.84 344.041 287.98 344.362C288.15 344.741 288.32 345.131 288.47 345.511Z" fill="#FFC32D"/>
<path d="M287.45 312.901C288.56 322.02 287.46 328.151 283.66 333.871C283.6 333.661 283.54 333.451 283.48 333.241L283.31 332.611L281.41 333.381L281.39 333.371C281.52 333.191 281.65 333.011 281.77 332.831C285.5 327.481 286.53 321.991 285.47 313.261C285.41 312.751 285.29 312.141 285.16 311.491C284.72 309.381 284.19 306.731 285.41 304.72L287.01 306.17C286.35 307.26 286.73 309.11 287.1 310.9C287.24 311.611 287.37 312.271 287.45 312.901Z" fill="#FFC32D"/>
<path d="M283.48 333.241C283.54 333.451 283.6 333.661 283.66 333.871C283.55 334.051 283.42 334.221 283.3 334.411C282.95 334.911 282.57 335.431 282.14 335.971C282.12 335.921 282.11 335.862 282.09 335.811C281.9 335.192 281.74 334.591 281.58 333.982L281.41 333.381L283.31 332.611L283.48 333.241Z" fill="#FFC32D"/>
<path d="M274.24 215.721C274.5 221.631 270 224.64 266.04 227.291C262.62 229.581 260.37 231.261 260.07 233.581C259.58 233.621 259.13 233.721 258.72 233.911C258.46 234.041 258.23 234.181 258.03 234.331C257.89 229.971 261.54 227.531 265.08 225.161C268.75 222.691 272.23 220.361 272.25 216.221C272.58 216.361 272.92 216.431 273.26 216.441C273.38 216.441 273.51 216.431 273.63 216.411L273.54 215.771L274.24 215.721Z" fill="#FFC32D"/>
<path d="M273.54 215.771L273.63 216.411C273.51 216.431 273.38 216.441 273.26 216.441C272.92 216.431 272.58 216.361 272.25 216.221C272.25 216.101 272.25 215.981 272.24 215.851L273.54 215.771Z" fill="#FFC32D"/>
<path d="M273.28 214.001L273.54 215.771L272.24 215.851C272.25 215.981 272.25 216.101 272.25 216.221C269.1 214.931 266.74 208.061 264.41 200.491C263.94 198.961 263.41 197.241 263.15 196.701C263.22 196.741 263.29 196.771 263.35 196.811L263.79 195.691L264.31 194.671C264.87 195.101 265.2 196.131 266.28 199.631C267.71 204.271 270.68 213.931 273.28 214.001Z" fill="#FFC32D"/>
<path d="M268.7 245.391L268.68 245.702L268.5 246.612C268.35 246.612 268.19 246.612 268.03 246.622L267.72 246.632C267.3 246.632 266.87 246.632 266.44 246.612L266.73 245.122L267.68 245.402L268.7 245.391Z" fill="#FFC32D"/>
<path d="M268.5 246.611L268.36 247.3C267.22 253.08 266.23 258.08 262.3 261.12C258.33 264.17 252.34 267.72 246 267.72C245.76 267.72 245.51 267.72 245.27 267.7C237.67 267.349 231.26 263.769 227.22 257.63C223.16 251.45 223.45 244 224.25 238.51C224.61 238.56 224.98 238.611 225.35 238.64C225.66 238.68 225.96 238.701 226.25 238.741C225.15 246.281 225.96 251.821 228.78 256.1C232.45 261.68 238.33 264.941 245.34 265.27C251.45 265.51 257.35 262.031 261.23 259.05C264.48 256.55 265.29 252.43 266.42 246.72L266.44 246.611C266.87 246.631 267.3 246.631 267.72 246.631L268.03 246.621C268.19 246.611 268.35 246.611 268.5 246.611Z" fill="#FFC32D"/>
<path d="M263.13 196.641C263.13 196.651 263.14 196.671 263.15 196.701C262.29 196.211 261.22 195.691 260.09 195.131C257.08 193.661 253.66 191.981 251.82 189.861C251.21 189.151 250.57 188.501 249.95 187.881C248.48 186.421 246.98 184.921 245.96 182.611C246.15 182.511 246.34 182.451 246.53 182.401L246.25 180.731L247.26 180.191L247.3 180.311C247.33 180.401 247.35 180.491 247.39 180.581C248.22 183.001 249.61 184.391 251.22 186.001C251.87 186.651 252.54 187.321 253.2 188.091C254.76 189.891 257.99 191.471 260.84 192.871C262.08 193.481 263.25 194.051 264.21 194.611L263.79 195.691L263.25 196.741C263.2 196.711 263.16 196.671 263.13 196.641Z" fill="#FFC32D"/>
<path d="M263.25 196.741L263.79 195.691L263.35 196.811C263.29 196.771 263.22 196.741 263.15 196.701C263.14 196.671 263.13 196.651 263.13 196.641C263.16 196.671 263.2 196.711 263.25 196.741Z" fill="#FFC32D"/>
<path d="M260.08 234.831L258.11 235.261C258.06 234.942 258.03 234.631 258.03 234.331C258.23 234.181 258.46 234.041 258.72 233.911C259.13 233.721 259.58 233.621 260.07 233.581C260.01 233.971 260.01 234.391 260.08 234.831Z" fill="#FFC32D"/>
<path d="M246.25 180.731L246.53 182.401C246.34 182.451 246.15 182.511 245.96 182.611C245.82 182.291 245.69 181.951 245.57 181.591C245.53 181.501 245.48 181.341 245.43 181.161L246.25 180.731Z" fill="#FFC32D"/>
<path d="M246.13 180.011L246.25 180.731L245.43 181.161C245.48 181.341 245.53 181.501 245.57 181.591C245.69 181.951 245.82 182.291 245.96 182.611C243.89 183.571 241.74 186.901 240.27 189.161L239.16 190.861C236.84 194.341 234.44 197.951 233.52 202.041C232.59 206.161 232.18 210.941 231.94 214.181C231.2 224.081 231.98 226.201 232.21 226.6C232.17 226.56 232.14 226.531 232.1 226.5C231.68 226.07 231.24 225.66 230.79 225.23C230.44 224.889 230.08 224.549 229.73 224.2C229.56 222.08 229.58 218.88 229.95 213.97C230.19 210.64 230.62 205.7 231.59 201.4C232.62 196.81 235.27 192.83 237.6 189.32L238.7 187.65C240.59 184.731 243.18 180.731 246.13 180.011Z" fill="#FFC32D"/>
<path d="M236.96 234.841C237.11 235.841 237.26 236.871 237.24 237.991C237.24 238.121 237.24 238.291 237.22 238.47L236.47 238.38V236.74H236.21C235.87 236.75 235.52 236.769 235.18 236.769C235.14 236.28 235.07 235.78 234.99 235.259C234.87 234.44 234.75 233.579 234.71 232.679C233.85 232.019 233.05 231.009 232.26 230.03C231.76 229.41 231.28 228.809 230.85 228.389C230.8 228.339 230.75 228.289 230.7 228.249L230.72 228.229L232.24 226.649C232.73 227.138 233.22 227.739 233.69 228.329C234.52 229.359 235.38 230.419 236.12 230.839L236.74 231.169L236.71 231.999C236.68 232.931 236.82 233.861 236.96 234.841Z" fill="#FFC32D"/>
<path d="M236.47 238.381V239.181H236.24C233.33 239.282 230.21 239.152 226.25 238.742C226.3 238.391 226.36 238.032 226.42 237.672L224.46 237.182C224.39 237.613 224.32 238.052 224.25 238.512C223.11 238.392 221.97 238.242 220.84 238.092C214.83 237.352 208.61 236.582 202.51 237.212C195.32 237.972 188.81 244.022 185.57 247.562C179.25 254.472 174.58 263.602 170.06 272.413C167.49 277.453 164.82 282.663 161.9 287.343C160.05 290.313 158.36 293.573 156.74 297.293C156.72 297.163 156.69 297.022 156.67 296.883L154.71 297.363L154.5 297.272C154.59 297.033 154.7 296.793 154.8 296.552C156.52 292.552 158.32 289.052 160.3 285.863C163.17 281.272 165.81 276.113 168.37 271.123C172.96 262.163 177.7 252.893 184.24 245.743C187.66 242.003 194.57 235.593 202.34 234.793C208.63 234.133 214.94 234.913 221.04 235.673C222.54 235.863 224.03 236.053 225.53 236.203C229.36 236.642 232.39 236.833 235.18 236.772C235.23 237.172 235.25 237.562 235.24 237.962V238.233L236.47 238.381Z" fill="#FFC32D"/>
<path d="M236.47 236.741V238.381L235.24 238.232V237.961C235.25 237.561 235.23 237.171 235.18 236.771C235.52 236.771 235.87 236.751 236.21 236.742H236.47V236.741Z" fill="#FFC32D"/>
<path d="M232.21 226.601C232.22 226.622 232.23 226.641 232.24 226.652L230.72 228.232C230.33 227.692 229.91 226.681 229.73 224.202C230.08 224.552 230.44 224.891 230.79 225.232C231.24 225.662 231.68 226.072 232.1 226.502C232.14 226.531 232.17 226.561 232.21 226.601Z" fill="#FFC32D"/>
<path d="M224.46 237.181L226.42 237.671C226.36 238.031 226.3 238.391 226.25 238.741C225.96 238.701 225.66 238.68 225.35 238.64C224.98 238.611 224.61 238.56 224.25 238.51C224.32 238.051 224.39 237.611 224.46 237.181Z" fill="#FFC32D"/>
<path d="M186.87 351.561C187 354.702 187.17 359.011 185.41 362.181C183.75 365.152 181.59 367.811 179.49 370.371C177.93 372.291 176.31 374.261 174.96 376.321C171.7 381.31 168.62 386.921 165.81 392.981C162.44 400.291 160.41 408.38 159.63 417.701H157.62C158.41 407.941 160.52 399.451 164.07 391.791C166.93 385.601 170.07 379.901 173.4 374.801C174.81 372.631 176.47 370.601 178.07 368.652C180.1 366.172 182.2 363.601 183.75 360.811C185.03 358.492 185.01 355.181 184.88 351.671C184.73 347.871 183.66 344.311 182.39 340.741C182.5 340.64 182.62 340.551 182.73 340.461C182.97 340.261 183.21 340.061 183.46 339.841L183.57 339.741L184.15 339.531C185.53 343.401 186.71 347.281 186.87 351.561Z" fill="#FFC32D"/>
<path d="M184.88 351.671C185.01 355.181 185.03 358.491 183.75 360.811C182.2 363.601 180.1 366.171 178.07 368.652C176.47 370.601 174.81 372.631 173.4 374.801C170.07 379.902 166.93 385.601 164.07 391.791C160.52 399.451 158.41 407.941 157.62 417.701H126.71C126.71 416.68 126.63 415.791 126.57 415.051C126.29 412.061 126.18 410.811 134.09 405.971L133.64 404.891L134.21 405.891C142.23 399.032 148.89 390.732 154.34 383.511C155.91 381.431 157.56 379.371 159.15 377.371C162.81 372.791 166.59 368.051 169.75 362.761C171.31 360.152 172.63 357.261 173.9 354.471C175.14 351.751 176.42 348.931 177.91 346.431C179.14 344.341 180.39 342.692 181.71 341.362C181.91 341.152 182.14 340.942 182.39 340.742C183.66 344.311 184.73 347.871 184.88 351.671Z" fill="#FFC32D"/>
<path d="M182.66 294.651L184.58 295.321C184.17 297.071 183.71 298.841 183.25 300.631C181.26 308.391 179.2 316.421 179.82 324.211C180.17 328.661 181.66 332.711 183.23 336.991L183.74 338.401C183.88 338.781 184.02 339.161 184.15 339.531L183.57 339.741L182.34 337.81L182.24 337.911C182.04 338.081 181.83 338.261 181.61 338.441C181.6 338.451 181.59 338.451 181.58 338.47L181.4 337.991C179.83 333.711 178.21 329.281 177.83 324.441C177.17 316.161 179.29 307.911 181.34 299.901C181.8 298.141 182.25 296.361 182.66 294.651Z" fill="#FFC32D"/>
<path d="M182.34 337.811L183.57 339.742L183.46 339.842C183.21 340.062 182.97 340.262 182.73 340.462C182.62 340.552 182.5 340.642 182.39 340.742C182.24 340.282 182.07 339.832 181.91 339.382L181.58 338.472C181.59 338.452 181.6 338.452 181.61 338.443C181.83 338.262 182.04 338.083 182.24 337.913L182.34 337.811Z" fill="#FFC32D"/>
<path d="M181.91 339.381C182.07 339.831 182.24 340.281 182.39 340.741C182.14 340.941 181.91 341.151 181.71 341.361C180.39 342.691 179.14 344.34 177.91 346.43C176.42 348.93 175.14 351.75 173.9 354.47C172.63 357.26 171.31 360.151 169.75 362.76C166.59 368.05 162.81 372.79 159.15 377.37C157.56 379.37 155.91 381.43 154.34 383.51C148.89 390.731 142.23 399.031 134.21 405.89L133.64 404.89L133.19 403.8C133.16 403.81 133.15 403.84 133.12 403.85C140.96 397.13 147.5 388.97 152.87 381.861C154.46 379.76 156.12 377.68 157.72 375.671C161.33 371.151 165.06 366.482 168.14 361.321C169.62 358.831 170.91 356.02 172.15 353.281C173.26 350.861 174.39 348.361 175.7 346.031C175.96 346.27 176.23 346.491 176.5 346.701C176.56 346.761 176.61 346.801 176.64 346.821L177.36 345.401L177.8 344.85L177.64 344.691C177.38 344.481 177.12 344.27 176.87 344.05C178.02 342.24 179.19 340.74 180.43 339.481C180.78 339.111 181.19 338.77 181.58 338.47L181.91 339.381Z" fill="#FFC32D"/>
<path d="M177.8 344.851L177.36 345.402L176.64 346.822C176.61 346.801 176.56 346.761 176.5 346.702C176.23 346.492 175.96 346.271 175.7 346.032C175.89 345.692 176.09 345.342 176.29 345.002C176.48 344.682 176.68 344.362 176.87 344.052C177.12 344.272 177.38 344.483 177.64 344.693L177.8 344.851Z" fill="#FFC32D"/>
<path d="M176.87 344.051C176.68 344.362 176.48 344.681 176.29 345.001C176.09 345.341 175.89 345.691 175.7 346.031C165.88 337.72 159.36 323.251 155.3 300.781V300.77C155.7 299.731 156.13 298.701 156.57 297.68C156.63 297.55 156.68 297.42 156.74 297.29C160.64 320.861 167.06 335.771 176.87 344.051Z" fill="#FFC32D"/>
<path d="M159.63 417.701C159.59 418.14 159.55 418.581 159.52 419.02L157.53 418.81C157.56 418.43 157.58 418.071 157.62 417.701H159.63Z" fill="#FFC32D"/>
<path d="M159.52 419.021V420.141H126.56C126.62 419.742 126.65 419.362 126.67 419.021C126.7 418.561 126.71 418.122 126.71 417.702H157.62C157.58 418.072 157.56 418.431 157.53 418.811L159.52 419.021Z" fill="#FFC32D"/>
<path d="M156.67 296.881C156.69 297.021 156.72 297.161 156.74 297.291C156.68 297.421 156.63 297.551 156.57 297.681C156.13 298.702 155.7 299.732 155.3 300.771C155.09 299.652 154.9 298.521 154.71 297.362L156.67 296.881Z" fill="#FFC32D"/>
<path d="M155.3 300.771V300.782C153.16 306.152 151.35 311.771 149.58 317.252L148.57 320.342C146.13 327.863 142.87 334.943 139.71 341.792C137.81 345.912 135.84 350.182 134.08 354.472C132.52 358.302 131.1 362.312 129.73 366.193C127.09 373.642 124.36 381.352 120.41 388.323L120.27 388.203C120.29 388.173 120.31 388.123 120.32 388.083C120.38 387.943 120.44 387.803 120.48 387.673L118.8 386.893C122.61 380.133 125.3 372.563 127.89 365.234C129.27 361.313 130.7 357.273 132.29 353.383C134.07 349.033 136.05 344.743 137.97 340.593C141.09 333.813 144.32 326.813 146.72 319.453L147.72 316.363C149.76 310.012 151.88 303.443 154.5 297.272L154.71 297.363C154.9 298.521 155.09 299.651 155.3 300.771Z" fill="#FFC32D"/>
<path d="M133.64 404.891L134.09 405.971C126.18 410.811 126.29 412.061 126.57 415.051C126.63 415.791 126.71 416.681 126.71 417.701H125.67V420.14H126.56C126.56 420.18 126.56 420.22 126.55 420.25C126.31 422.08 125.68 423.23 124.66 423.63C124.42 423.731 124.16 423.78 123.89 423.78C122.55 423.78 120.91 422.58 118.91 420.139H119.26V417.7H104.55C110.98 416.5 117.05 415.389 119.86 417.95C120.01 418.059 120.18 418.25 120.3 418.389C122.45 421.009 123.66 421.459 124.04 421.32C124.27 421.23 124.47 420.67 124.58 419.86C124.63 419.49 124.66 419.139 124.68 418.83C124.77 417.42 124.67 416.3 124.58 415.32C124.18 410.95 124.79 408.96 133.11 403.849C133.1 403.86 133.08 403.87 133.07 403.889L133.64 404.891Z" fill="#FFC32D"/>
<path d="M133.19 403.801L133.64 404.891L133.07 403.891C133.08 403.871 133.1 403.862 133.11 403.851H133.12C133.15 403.841 133.16 403.811 133.19 403.801Z" fill="#FFC32D"/>
<path d="M125.67 417.701H126.71C126.71 418.121 126.7 418.56 126.67 419.02C126.65 419.361 126.62 419.741 126.56 420.14H125.67V417.701Z" fill="#FFC32D"/>
<path d="M118.8 386.891L120.48 387.671C120.44 387.801 120.38 387.942 120.32 388.081C120.31 388.121 120.29 388.171 120.27 388.201L118.77 386.93C118.78 386.921 118.79 386.901 118.8 386.891Z" fill="#FFC32D"/>
<path d="M118.77 386.931L120.27 388.202C117.29 396.422 111.79 401.292 106.29 405.311C102.72 407.921 99.6999 409.732 96.1899 411.341C93.5199 412.571 92.15 415.461 90.85 418.902C93.36 419.521 97.16 419.032 101.14 418.332V420.142H104.71L104.48 420.182C98.62 421.283 92.56 422.422 89.1 420.832L88.12 420.372L88.2 420.142H89.46V417.703H89.1C90.53 413.973 92.18 410.583 95.49 409.062C98.87 407.502 101.8 405.752 105.26 403.233C110.52 399.373 115.77 394.753 118.51 387.062L118.56 386.932C118.58 386.903 118.6 386.852 118.61 386.802L118.8 386.892C118.79 386.901 118.78 386.921 118.77 386.931Z" fill="#FFC32D"/>
<path d="M119.26 417.701V420.14H118.91C118.9 420.13 118.9 420.13 118.89 420.12C118.82 420.03 118.76 419.99 118.72 419.95C116.51 417.929 110.28 419.11 104.78 420.13L104.71 420.14H101.14V418.33C102.14 418.16 103.16 417.96 104.17 417.78L104.48 417.719C104.5 417.719 104.53 417.699 104.55 417.699H119.26V417.701Z" fill="#FFC32D"/>
<path d="M118.91 420.141H104.71L104.78 420.131C110.28 419.111 116.51 417.931 118.72 419.951C118.76 419.991 118.82 420.031 118.89 420.121C118.9 420.131 118.9 420.131 118.91 420.141Z" fill="#FFC32D"/>
<path d="M101.14 417.701H104.55C104.53 417.701 104.5 417.721 104.48 417.721L104.17 417.782C103.16 417.962 102.14 418.162 101.14 418.332V417.701Z" fill="#FFC32D"/>
<path d="M89.46 417.701V420.14H88.2L88.54 419.201C88.62 418.971 88.7 418.751 88.78 418.531C88.88 418.251 88.99 417.991 89.1 417.701H89.46Z" fill="#FFC32D"/>
<path d="M81.05 417.701H89.1001C88.9901 417.991 88.8801 418.251 88.7801 418.531C88.7001 418.751 88.6201 418.97 88.5401 419.201L88.2 420.14H81.05V418.92H80.05V418.49H81.05V417.701Z" fill="#FFC32D"/>
<path d="M81.05 439.171H80.05V440.391H81.05V439.171Z" fill="#FFC32D"/>
<path d="M81.05 420.141V439.171H80.05V440.391H79.05V420.301L79.5301 420.141C79.8201 420.141 80.05 419.601 80.05 418.921V420.141H81.05Z" fill="#FFC32D"/>
<path d="M81.05 418.921H80.05V420.141H81.05V418.921Z" fill="#FFC32D"/>
<path d="M81.05 417.701V418.491H80.05V418.481V417.701H81.05Z" fill="#FFC32D"/>
<path d="M81.05 188.161V417.701H80.05V189.381C80.6 189.381 81.05 188.851 81.05 188.161Z" fill="#FFC32D"/>
<path d="M80.05 188.161H81.05C81.05 188.851 80.6 189.381 80.05 189.381V188.171V188.161Z" fill="#FFC32D"/>
<path d="M80.05 418.481V418.491H80.0201C79.9401 418.031 79.7501 417.701 79.5301 417.701L79.05 417.861V188.641C79.13 189.081 79.3101 189.391 79.5301 189.391C79.5901 189.391 79.6601 189.361 79.7101 189.311C79.8101 189.361 79.93 189.381 80.05 189.381V417.701V418.481Z" fill="#FFC32D"/>
<path d="M80.05 188.171V189.381C79.93 189.381 79.81 189.361 79.71 189.311C79.91 189.141 80.05 188.691 80.05 188.171Z" fill="#FFC32D"/>
<path d="M80.05 188.161V188.171C80.05 188.691 79.9101 189.141 79.7101 189.311C79.3201 189.141 79.05 188.711 79.05 188.171V188.161H80.05Z" fill="#FFC32D"/>
<path d="M80.05 418.491C80.05 418.551 80.05 418.6 80.04 418.651C80.03 418.59 80.02 418.541 80.02 418.491H80.05Z" fill="#FFC32D"/>
<path d="M80.05 188.161H79.05C79.05 187.761 79.0501 187.351 79.0601 186.951C79.6001 186.961 80.05 187.491 80.05 188.161Z" fill="#FFC32D"/>
<path d="M80.05 418.921H79.98C80.01 418.841 80.03 418.751 80.04 418.651C80.05 418.741 80.05 418.831 80.05 418.921Z" fill="#FFC32D"/>
<path d="M79.9801 418.921H80.05C80.05 419.601 79.8201 420.141 79.5301 420.141L79.05 420.301V419.701C79.47 419.701 79.8301 419.381 79.9801 418.921Z" fill="#FFC32D"/>
<path d="M80.0201 418.491C80.0201 418.541 80.0301 418.591 80.0401 418.651C80.0301 418.751 80.0101 418.84 79.9801 418.921H79.05V419.701C78.5 419.701 78.05 419.151 78.05 418.481V418.191L79.05 417.861V418.491H80.0201Z" fill="#FFC32D"/>
<path d="M80.0201 418.491H79.05V417.861L79.5301 417.701C79.7501 417.701 79.9401 418.031 80.0201 418.491Z" fill="#FFC32D"/>
<path d="M79.05 418.921H79.9801C79.8301 419.381 79.47 419.701 79.05 419.701V418.921Z" fill="#FFC32D"/>
<path d="M79.7101 171.431C79.9401 176.961 80.05 182.541 80.05 188.161C80.05 187.491 79.6001 186.961 79.0601 186.951C79.0801 181.751 79.3001 176.621 79.7001 171.541C79.7001 171.501 79.7101 171.471 79.7101 171.431Z" fill="#FFC32D"/>
<path d="M79.71 171.431C79.71 171.471 79.7 171.501 79.7 171.541C79.3 176.621 79.08 181.751 79.06 186.951H79.05C79.03 186.951 79.02 186.951 79 186.951C78.72 90.681 44.89 5.34095 2.04004 4.66095V3.44095C2.04004 2.76095 1.81002 2.22095 1.52002 2.22095C42.87 2.22095 76.06 79.9709 79.71 171.431Z" fill="#FFC32D"/>
<path d="M79.7101 189.311C79.6601 189.361 79.5901 189.391 79.5301 189.391C79.3101 189.391 79.13 189.081 79.05 188.641V188.171C79.05 188.711 79.3201 189.141 79.7101 189.311Z" fill="#FFC32D"/>
<path d="M79.06 186.951C79.05 187.351 79.05 187.761 79.05 188.161V188.171V188.641C79.02 188.501 79.01 188.341 79.01 188.171C79.01 187.761 79.01 187.361 79 186.951C79.02 186.951 79.03 186.951 79.05 186.951H79.06Z" fill="#FFC32D"/>
<path d="M79.05 419.701V420.301L1.66003 445.701C1.88003 445.571 2.04004 445.1 2.04004 444.531V443.14L78.05 418.191V418.481C78.05 419.151 78.5 419.701 79.05 419.701Z" fill="#FFC32D"/>
<path d="M79.05 188.641V417.861L78.05 418.191V188.171C78.05 187.511 78.4701 186.981 79.0001 186.951C79.0101 187.361 79.0101 187.761 79.0101 188.171C79.0101 188.341 79.02 188.501 79.05 188.641Z" fill="#FFC32D"/>
<path d="M79 186.951C78.47 186.981 78.05 187.511 78.05 188.171V418.192L2.04004 443.141V4.66101C44.89 5.34101 78.72 90.681 79 186.951ZM71.86 385.191V199.491C71.86 120.061 44.73 48.131 10.15 48.131C9.92002 48.131 9.74002 48.571 9.74002 49.121V405.731C9.74002 406.27 9.92002 406.71 10.15 406.71L10.25 406.68L71.45 386.531C71.68 386.531 71.86 386.091 71.86 385.551C71.86 385.471 71.86 385.391 71.85 385.322C71.86 385.281 71.86 385.231 71.86 385.191Z" fill="#FFC32D"/>
<path d="M71.86 199.491V385.191C71.86 385.231 71.86 385.281 71.85 385.321C71.81 384.881 71.65 384.571 71.45 384.571L70.28 384.951V199.491C70.28 198.961 70.62 198.531 71.03 198.501C71.04 198.831 71.04 199.161 71.04 199.491C71.04 200.031 71.22 200.471 71.45 200.471C71.68 200.471 71.86 200.031 71.86 199.491Z" fill="#FFC32D"/>
<path d="M71.85 385.321C71.86 385.39 71.86 385.47 71.86 385.55C71.86 386.09 71.68 386.53 71.45 386.53L10.25 406.679C10.43 406.57 10.56 406.19 10.56 405.73V404.61L70.28 384.95V385.19C70.28 385.73 70.64 386.169 71.07 386.169C71.47 386.171 71.8 385.801 71.85 385.321Z" fill="#FFC32D"/>
<path d="M71.86 199.491C71.86 200.031 71.68 200.471 71.45 200.471C71.22 200.471 71.04 200.031 71.04 199.491C71.04 199.161 71.04 198.831 71.03 198.501C71.04 198.501 71.06 198.501 71.07 198.501C71.51 198.501 71.86 198.941 71.86 199.491Z" fill="#FFC32D"/>
<path d="M71.45 384.571C71.65 384.571 71.81 384.881 71.85 385.321C71.8 385.8 71.47 386.171 71.07 386.171C70.64 386.171 70.28 385.732 70.28 385.192V384.952L71.45 384.571Z" fill="#FFC32D"/>
<path d="M71.86 199.491C71.86 198.941 71.51 198.501 71.07 198.501C71.06 198.501 71.04 198.501 71.03 198.501C70.82 120.871 44.35 50.671 10.56 50.111V49.121C10.56 48.571 10.38 48.131 10.15 48.131C44.73 48.131 71.86 120.061 71.86 199.491Z" fill="#FFC32D"/>
<path d="M10.56 404.611V405.731C10.56 406.191 10.43 406.571 10.25 406.68L10.15 406.71C9.91999 406.71 9.73999 406.27 9.73999 405.731C9.73999 405.18 9.91999 404.741 10.15 404.741L10.56 404.611Z" fill="#FFC32D"/>
<path d="M10.56 50.111V404.611L10.15 404.741C9.91999 404.741 9.73999 405.18 9.73999 405.731V49.121C9.73999 49.661 9.91999 50.101 10.15 50.101C10.29 50.101 10.42 50.101 10.56 50.111Z" fill="#FFC32D"/>
<path d="M10.56 49.121V50.111C10.42 50.101 10.29 50.101 10.15 50.101C9.91999 50.101 9.73999 49.661 9.73999 49.121C9.73999 48.571 9.91999 48.131 10.15 48.131C10.38 48.131 10.56 48.571 10.56 49.121Z" fill="#FFC32D"/>
<path d="M2.04001 443.141V444.532C2.04001 445.101 1.88 445.572 1.66 445.702L1.51999 445.752C1.22999 445.752 1 445.212 1 444.532C1 443.862 1.22999 443.311 1.51999 443.311L2.04001 443.141Z" fill="#FFC32D"/>
<path d="M2.04001 4.66104V443.14L1.51999 443.31C1.22999 443.31 1 443.861 1 444.531V3.44104C1 4.11104 1.22999 4.65103 1.51999 4.65103C1.68999 4.65103 1.87001 4.65104 2.04001 4.66104Z" fill="#FFC32D"/>
<path d="M2.04001 3.44095V4.66095C1.87001 4.65095 1.68999 4.65094 1.51999 4.65094C1.22999 4.65094 1 4.11095 1 3.44095C1 2.76095 1.22999 2.22095 1.51999 2.22095C1.80999 2.22095 2.04001 2.76095 2.04001 3.44095Z" fill="#FFC32D"/>
<path d="M1.52002 445.751L1.66003 445.701C1.62003 445.731 1.57002 445.751 1.52002 445.751Z" fill="#FFC32D"/>
<path d="M382.79 439.041V420.141" stroke="#FFC32D" stroke-miterlimit="10"/>
<path d="M384.79 420.601V440.261H383.79" fill="#FFC32D"/>
<path d="M384.79 420.601V440.261H383.79" stroke="#FFC32D" stroke-miterlimit="10"/>
<path d="M80.05 417.701H81.05" stroke="#FFC32D" stroke-miterlimit="10"/>
<path d="M80.05 418.921V418.491" stroke="#FFC32D" stroke-miterlimit="10"/>
<path d="M88.2 420.141H81.05" stroke="#FFC32D" stroke-miterlimit="10"/>
<path d="M101.14 418.331V417.701H104.55" fill="#FFC32D"/>
<path d="M101.14 418.331V417.701H104.55" stroke="#FFC32D" stroke-miterlimit="10"/>
<path d="M118.91 420.141H104.71" stroke="#FFC32D" stroke-miterlimit="10"/>
<path d="M159.63 417.701H308.99" stroke="#FFC32D" stroke-miterlimit="10"/>
<path d="M340.21 420.141H309.3H159.52H126.56" fill="#FFC32D"/>
<path d="M340.21 420.141H309.3H159.52H126.56" stroke="#FFC32D" stroke-miterlimit="10"/>
<path d="M348.89 417.701H353.74" stroke="#FFC32D" stroke-miterlimit="10"/>
<path d="M358.28 420.141H348.64" stroke="#FFC32D" stroke-miterlimit="10"/>
<path d="M381.78 417.701H382.79" stroke="#FFC32D" stroke-miterlimit="10"/>
<path d="M383.32 420.141H382.79H372.98" fill="#FFC32D"/>
<path d="M383.32 420.141H382.79H372.98" stroke="#FFC32D" stroke-miterlimit="10"/>
<path d="M80.05 418.921H81.05V420.141V439.171" fill="#FFC32D"/>
<path d="M80.05 418.921H81.05V420.141V439.171" stroke="#FFC32D" stroke-miterlimit="10"/>
<path d="M80.05 440.391H79.05V420.301" fill="#FFC32D"/>
<path d="M80.05 440.391H79.05V420.301" stroke="#FFC32D" stroke-miterlimit="10"/>
<path d="M383.79 440.261V441.481L80.05 441.611V440.391V439.171H81.05L382.79 439.041H383.79V440.261Z" fill="#FFC32D" stroke="#FFC32D" stroke-miterlimit="10"/>
<path d="M176.87 344.051C178.02 342.241 179.19 340.741 180.43 339.482C180.78 339.112 181.19 338.771 181.58 338.471" fill="#FFC32D"/>
<path d="M176.87 344.051C178.02 342.241 179.19 340.741 180.43 339.482C180.78 339.112 181.19 338.771 181.58 338.471" stroke="#FFC32D" stroke-miterlimit="10"/>
<path d="M133.12 403.851C140.96 397.131 147.5 388.971 152.87 381.862C154.46 379.761 156.12 377.681 157.72 375.672C161.33 371.152 165.06 366.483 168.14 361.322C169.62 358.832 170.91 356.021 172.15 353.282C173.26 350.862 174.39 348.362 175.7 346.032" fill="#FFC32D"/>
<path d="M133.12 403.851C140.96 397.131 147.5 388.971 152.87 381.862C154.46 379.761 156.12 377.681 157.72 375.672C161.33 371.152 165.06 366.483 168.14 361.322C169.62 358.832 170.91 356.021 172.15 353.282C173.26 350.862 174.39 348.362 175.7 346.032" stroke="#FFC32D" stroke-miterlimit="10"/>
<path d="M155.3 300.781C153.16 306.151 151.35 311.77 149.58 317.251L148.57 320.341C146.13 327.862 142.87 334.942 139.71 341.791C137.81 345.911 135.84 350.181 134.08 354.471C132.52 358.301 131.1 362.311 129.73 366.192C127.09 373.641 124.36 381.351 120.41 388.322L120.27 388.202" fill="#FFC32D"/>
<path d="M155.3 300.781C153.16 306.151 151.35 311.77 149.58 317.251L148.57 320.341C146.13 327.862 142.87 334.942 139.71 341.791C137.81 345.911 135.84 350.181 134.08 354.471C132.52 358.301 131.1 362.311 129.73 366.192C127.09 373.641 124.36 381.351 120.41 388.322L120.27 388.202" stroke="#FFC32D" stroke-miterlimit="10"/>
<path d="M224.25 238.511C223.11 238.391 221.97 238.241 220.84 238.091C214.83 237.351 208.61 236.581 202.51 237.211C195.32 237.971 188.81 244.021 185.57 247.561C179.25 254.471 174.58 263.601 170.06 272.412C167.49 277.452 164.82 282.662 161.9 287.342C160.05 290.312 158.36 293.572 156.74 297.292" stroke="#FFC32D" stroke-miterlimit="10"/>
<path d="M236.47 238.381V239.181H236.24C233.33 239.282 230.21 239.152 226.25 238.742" fill="#FFC32D"/>
<path d="M236.47 238.381V239.181H236.24C233.33 239.282 230.21 239.152 226.25 238.742" stroke="#FFC32D" stroke-miterlimit="10"/>
<path d="M311.05 417.701C311.12 418.011 311.18 418.331 311.24 418.64L309.3 419.201C309.2 418.701 309.1 418.201 308.99 417.701C308.12 413.671 306.98 410.011 305.49 406.56C302.87 400.491 298.91 394.71 293.72 389.411C292.55 388.211 291.3 387.081 290.09 385.981C287.1 383.26 284.01 380.451 281.76 376.401C278.07 369.751 275.55 361.8 274.69 353.991C273.75 345.411 274.95 341.041 279.84 335.321C280.43 334.631 280.93 333.991 281.39 333.371C281.52 333.191 281.65 333.011 281.77 332.831C285.5 327.481 286.53 321.991 285.47 313.261C285.41 312.751 285.29 312.141 285.16 311.491C284.72 309.381 284.19 306.731 285.41 304.72L287.01 306.17C286.35 307.26 286.73 309.11 287.1 310.9C287.24 311.61 287.37 312.269 287.45 312.9C288.56 322.019 287.46 328.15 283.66 333.87" fill="#FFC32D"/>
<path d="M311.05 417.701C311.12 418.011 311.18 418.331 311.24 418.64L309.3 419.201C309.2 418.701 309.1 418.201 308.99 417.701C308.12 413.671 306.98 410.011 305.49 406.56C302.87 400.491 298.91 394.71 293.72 389.411C292.55 388.211 291.3 387.081 290.09 385.981C287.1 383.26 284.01 380.451 281.76 376.401C278.07 369.751 275.55 361.8 274.69 353.991C273.75 345.411 274.95 341.041 279.84 335.321C280.43 334.631 280.93 333.991 281.39 333.371C281.52 333.191 281.65 333.011 281.77 332.831C285.5 327.481 286.53 321.991 285.47 313.261C285.41 312.751 285.29 312.141 285.16 311.491C284.72 309.381 284.19 306.731 285.41 304.72L287.01 306.17C286.35 307.26 286.73 309.11 287.1 310.9C287.24 311.61 287.37 312.269 287.45 312.9C288.56 322.019 287.46 328.15 283.66 333.87" stroke="#FFC32D" stroke-miterlimit="10"/>
<path d="M182.39 340.741C182.24 340.281 182.07 339.831 181.91 339.381L181.58 338.471L181.4 337.992C179.83 333.712 178.21 329.282 177.83 324.442C177.17 316.162 179.29 307.912 181.34 299.902C181.8 298.141 182.25 296.362 182.66 294.652L184.58 295.322C184.17 297.072 183.71 298.842 183.25 300.632C181.26 308.392 179.2 316.422 179.82 324.212C180.17 328.662 181.66 332.712 183.23 336.992L183.74 338.402C183.88 338.782 184.02 339.162 184.15 339.532C185.53 343.402 186.71 347.282 186.87 351.561C187 354.702 187.17 359.011 185.41 362.181C183.75 365.152 181.59 367.811 179.49 370.371C177.93 372.291 176.31 374.261 174.96 376.321C171.7 381.31 168.62 386.921 165.81 392.981C162.44 400.291 160.41 408.38 159.63 417.701C159.59 418.14 159.55 418.581 159.52 419.02L157.53 418.81C157.56 418.43 157.58 418.071 157.62 417.701" fill="#FFC32D"/>
<path d="M182.39 340.741C182.24 340.281 182.07 339.831 181.91 339.381L181.58 338.471L181.4 337.992C179.83 333.712 178.21 329.282 177.83 324.442C177.17 316.162 179.29 307.912 181.34 299.902C181.8 298.141 182.25 296.362 182.66 294.652L184.58 295.322C184.17 297.072 183.71 298.842 183.25 300.632C181.26 308.392 179.2 316.422 179.82 324.212C180.17 328.662 181.66 332.712 183.23 336.992L183.74 338.402C183.88 338.782 184.02 339.162 184.15 339.532C185.53 343.402 186.71 347.282 186.87 351.561C187 354.702 187.17 359.011 185.41 362.181C183.75 365.152 181.59 367.811 179.49 370.371C177.93 372.291 176.31 374.261 174.96 376.321C171.7 381.31 168.62 386.921 165.81 392.981C162.44 400.291 160.41 408.38 159.63 417.701C159.59 418.14 159.55 418.581 159.52 419.02L157.53 418.81C157.56 418.43 157.58 418.071 157.62 417.701" stroke="#FFC32D" stroke-miterlimit="10"/>
<path d="M176.87 344.051C177.12 344.271 177.38 344.482 177.64 344.692L177.8 344.851L177.36 345.402L176.64 346.822C176.61 346.801 176.56 346.761 176.5 346.702C176.23 346.492 175.96 346.271 175.7 346.032C165.88 337.721 159.36 323.252 155.3 300.782V300.771C155.09 299.652 154.9 298.521 154.71 297.362L156.67 296.882C156.69 297.022 156.72 297.162 156.74 297.292C160.64 320.861 167.06 335.771 176.87 344.051Z" fill="#FFC32D" stroke="#FFC32D" stroke-miterlimit="10"/>
<path d="M133.64 404.891L134.21 405.891C142.23 399.032 148.89 390.732 154.34 383.511C155.91 381.431 157.56 379.371 159.15 377.371C162.81 372.791 166.59 368.051 169.75 362.761C171.31 360.152 172.63 357.261 173.9 354.471C175.14 351.751 176.42 348.931 177.91 346.431C179.14 344.341 180.39 342.692 181.71 341.362C181.91 341.152 182.14 340.942 182.39 340.742C183.66 344.311 184.73 347.872 184.88 351.672C185.01 355.182 185.03 358.492 183.75 360.812C182.2 363.602 180.1 366.172 178.07 368.653C176.47 370.602 174.81 372.632 173.4 374.802C170.07 379.903 166.93 385.602 164.07 391.792C160.52 399.452 158.41 407.942 157.62 417.702H126.71" fill="#FFC32D"/>
<path d="M133.64 404.891L134.21 405.891C142.23 399.032 148.89 390.732 154.34 383.511C155.91 381.431 157.56 379.371 159.15 377.371C162.81 372.791 166.59 368.051 169.75 362.761C171.31 360.152 172.63 357.261 173.9 354.471C175.14 351.751 176.42 348.931 177.91 346.431C179.14 344.341 180.39 342.692 181.71 341.362C181.91 341.152 182.14 340.942 182.39 340.742C183.66 344.311 184.73 347.872 184.88 351.672C185.01 355.182 185.03 358.492 183.75 360.812C182.2 363.602 180.1 366.172 178.07 368.653C176.47 370.602 174.81 372.632 173.4 374.802C170.07 379.903 166.93 385.602 164.07 391.792C160.52 399.452 158.41 407.942 157.62 417.702H126.71" stroke="#FFC32D" stroke-miterlimit="10"/>
<path d="M118.8 386.891L120.48 387.671C120.44 387.801 120.38 387.942 120.32 388.081C120.31 388.121 120.29 388.171 120.27 388.201C117.29 396.421 111.79 401.291 106.29 405.31C102.72 407.92 99.6999 409.731 96.1899 411.34C93.5199 412.57 92.15 415.46 90.85 418.901C93.36 419.52 97.16 419.031 101.14 418.331C102.14 418.161 103.16 417.961 104.17 417.781L104.48 417.72C104.5 417.72 104.53 417.7 104.55 417.7C110.98 416.5 117.05 415.389 119.86 417.95C120.01 418.059 120.18 418.25 120.3 418.389C122.45 421.009 123.66 421.459 124.04 421.32C124.27 421.23 124.47 420.67 124.58 419.86C124.63 419.49 124.66 419.139 124.68 418.83C124.77 417.42 124.67 416.3 124.58 415.32C124.18 410.95 124.79 408.96 133.11 403.849H133.12C133.15 403.839 133.16 403.809 133.19 403.799L133.64 404.889L134.09 405.969C126.18 410.809 126.29 412.059 126.57 415.049C126.63 415.789 126.71 416.679 126.71 417.699C126.71 418.119 126.7 418.558 126.67 419.018C126.65 419.359 126.62 419.739 126.56 420.138C126.56 420.178 126.56 420.218 126.55 420.248C126.31 422.078 125.68 423.228 124.66 423.628C124.42 423.729 124.16 423.778 123.89 423.778C122.55 423.778 120.91 422.578 118.91 420.137C118.9 420.127 118.9 420.127 118.89 420.117C118.82 420.027 118.76 419.987 118.72 419.947C116.51 417.926 110.28 419.107 104.78 420.127L104.71 420.137L104.48 420.177C98.62 421.278 92.56 422.417 89.1 420.827L88.12 420.367L88.2 420.137L88.54 419.198C88.62 418.968 88.7 418.748 88.78 418.528C88.88 418.248 88.99 417.988 89.1 417.698" fill="#FFC32D"/>
<path d="M118.8 386.891L120.48 387.671C120.44 387.801 120.38 387.942 120.32 388.081C120.31 388.121 120.29 388.171 120.27 388.201C117.29 396.421 111.79 401.291 106.29 405.31C102.72 407.92 99.6999 409.731 96.1899 411.34C93.5199 412.57 92.15 415.46 90.85 418.901C93.36 419.52 97.16 419.031 101.14 418.331C102.14 418.161 103.16 417.961 104.17 417.781L104.48 417.72C104.5 417.72 104.53 417.7 104.55 417.7C110.98 416.5 117.05 415.389 119.86 417.95C120.01 418.059 120.18 418.25 120.3 418.389C122.45 421.009 123.66 421.459 124.04 421.32C124.27 421.23 124.47 420.67 124.58 419.86C124.63 419.49 124.66 419.139 124.68 418.83C124.77 417.42 124.67 416.3 124.58 415.32C124.18 410.95 124.79 408.96 133.11 403.849H133.12C133.15 403.839 133.16 403.809 133.19 403.799L133.64 404.889L134.09 405.969C126.18 410.809 126.29 412.059 126.57 415.049C126.63 415.789 126.71 416.679 126.71 417.699C126.71 418.119 126.7 418.558 126.67 419.018C126.65 419.359 126.62 419.739 126.56 420.138C126.56 420.178 126.56 420.218 126.55 420.248C126.31 422.078 125.68 423.228 124.66 423.628C124.42 423.729 124.16 423.778 123.89 423.778C122.55 423.778 120.91 422.578 118.91 420.137C118.9 420.127 118.9 420.127 118.89 420.117C118.82 420.027 118.76 419.987 118.72 419.947C116.51 417.926 110.28 419.107 104.78 420.127L104.71 420.137L104.48 420.177C98.62 421.278 92.56 422.417 89.1 420.827L88.12 420.367L88.2 420.137L88.54 419.198C88.62 418.968 88.7 418.748 88.78 418.528C88.88 418.248 88.99 417.988 89.1 417.698" stroke="#FFC32D" stroke-miterlimit="10"/>
<path d="M372.36 417.701C372.49 417.921 372.599 418.14 372.69 418.361C372.95 418.991 373.049 419.581 372.98 420.14C372.969 420.18 372.969 420.231 372.959 420.26L372.889 420.71L372.599 420.99C370.329 423.16 362.099 422.019 360.139 421.09C359.549 420.82 358.919 420.5 358.28 420.14C358.21 420.111 358.139 420.071 358.07 420.031C357.21 419.6 356.309 419.1 355.41 418.591L354.28 417.971C354.11 417.881 353.94 417.791 353.74 417.701C352.07 416.951 349.57 416.511 348.98 417.31C348.98 417.331 348.94 417.42 348.889 417.701C348.829 417.971 348.759 418.39 348.709 419.051C348.679 419.402 348.659 419.781 348.639 420.141C348.619 420.551 348.61 420.952 348.589 421.331C348.539 422.331 348.509 423.191 348.409 423.751L348.249 424.671L346.779 424.771C346.269 424.801 345.779 424.841 345.319 424.841C343.749 424.841 342.399 424.421 341.079 422.291C340.659 421.581 340.389 420.851 340.209 420.141C340.119 419.831 340.049 419.511 339.989 419.221C339.928 418.902 339.869 418.581 339.808 418.261C339.779 418.072 339.739 417.891 339.699 417.701C339.539 416.81 339.339 416.001 338.928 415.331C337.958 413.731 335.449 412.56 333.618 411.691C333.288 411.55 332.978 411.401 332.688 411.251C321.568 405.851 310.568 396.531 300.858 384.341C295.448 377.531 293.208 368.971 291.047 360.692C289.717 355.572 288.337 350.292 286.217 345.511C285.927 344.862 285.567 344.081 285.177 343.322C283.927 340.912 283.027 338.692 282.137 335.971C282.117 335.921 282.107 335.862 282.087 335.811C281.897 335.192 281.737 334.591 281.577 333.982L281.407 333.381L283.307 332.611L283.477 333.241C283.537 333.451 283.597 333.661 283.657 333.871C283.747 334.241 283.847 334.581 283.957 334.931C284.807 337.572 285.677 339.702 286.867 342.032C287.097 342.471 287.317 342.922 287.517 343.351" stroke="#FFC32D" stroke-miterlimit="10"/>
<path d="M232.24 226.651C232.73 227.14 233.22 227.741 233.69 228.331C234.52 229.361 235.38 230.421 236.12 230.841L236.74 231.171L236.71 232.001C236.68 232.931 236.82 233.861 236.96 234.841C237.11 235.841 237.26 236.871 237.24 237.991C237.24 238.121 237.24 238.291 237.22 238.47L236.47 238.38L235.24 238.231V237.96C235.25 237.56 235.23 237.17 235.18 236.77" fill="#FFC32D"/>
<path d="M232.24 226.651C232.73 227.14 233.22 227.741 233.69 228.331C234.52 229.361 235.38 230.421 236.12 230.841L236.74 231.171L236.71 232.001C236.68 232.931 236.82 233.861 236.96 234.841C237.11 235.841 237.26 236.871 237.24 237.991C237.24 238.121 237.24 238.291 237.22 238.47L236.47 238.38L235.24 238.231V237.96C235.25 237.56 235.23 237.17 235.18 236.77" stroke="#FFC32D" stroke-miterlimit="10"/>
<path d="M260.07 233.581C260.95 233.52 261.93 233.671 262.89 233.821C263.58 233.921 264.23 234.02 264.69 234.01C265.75 233.97 266.83 233.89 267.87 233.8C268.81 233.731 269.75 233.66 270.69 233.62C273.46 233.5 275.51 232.72 277.98 230.86L278.11 230.759C283.12 227.009 286.43 224.519 289.71 218.889C298.21 204.189 297.25 184.649 287.43 172.459C286.85 171.719 286.27 170.969 285.69 170.209C284.61 168.789 283.49 167.319 282.3 166.079C280.42 164.129 272.21 158.419 269.83 157.809C258.49 154.879 242.6 156.729 232.68 167.479C228.81 171.649 226.76 178.439 225.11 183.909C223.72 188.479 221.82 195.299 221.37 201.629C221 206.849 221.84 214.669 225.44 219.499C226.65 221.129 228.18 222.689 229.73 224.199" stroke="#FFC32D" stroke-miterlimit="10"/>
<path d="M266.44 246.611H266.43C265.74 246.56 265.04 246.451 264.33 246.18C262.75 245.611 261.25 244.491 259.93 243.5C258.51 242.42 256.31 239.75 256.5 237.13C256.56 236.27 256.89 235.16 258.03 234.33" fill="#FFC32D"/>
<path d="M266.44 246.611H266.43C265.74 246.56 265.04 246.451 264.33 246.18C262.75 245.611 261.25 244.491 259.93 243.5C258.51 242.42 256.31 239.75 256.5 237.13C256.56 236.27 256.89 235.16 258.03 234.33" stroke="#FFC32D" stroke-miterlimit="10"/>
<path d="M317.75 314.351C317.74 313.051 317.71 312.032 317.65 311.091C317.089 302.251 316.03 294.982 312.67 288.201C310.96 284.711 309.191 281.111 307.29 277.651C306.18 275.6 304.91 273.871 303.57 272.041C302.929 271.171 302.28 270.291 301.639 269.371C297.289 263.06 291.249 257.571 282.629 252.091C281.389 251.301 279.989 250.631 278.639 249.971C278.119 249.721 277.609 249.471 277.119 249.232C275.389 248.341 273.149 247.452 271.139 246.862C270.309 246.612 269.429 246.601 268.499 246.612" stroke="#FFC32D" stroke-miterlimit="10"/>
<path d="M288.47 345.511C290.41 350.152 291.7 355.131 292.96 359.942C295.14 368.322 297.21 376.242 302.3 382.641C311.81 394.591 322.571 403.702 333.441 408.982C333.72 409.131 334.021 409.261 334.34 409.421C336.51 410.442 339.22 411.701 340.54 413.871C341.24 415.031 341.51 416.361 341.73 417.551C341.75 417.612 341.759 417.681 341.77 417.741C341.82 418.031 341.87 418.331 341.94 418.621C342.089 419.381 342.28 420.161 342.679 420.831C343.719 422.511 344.559 422.491 346.539 422.341C346.559 421.982 346.569 421.591 346.589 421.211C346.619 420.421 346.659 419.571 346.73 418.801C346.86 417.171 347.08 416.241 347.49 415.681C349.309 413.242 353.95 415.112 355.099 415.742L356.24 416.372C357.01 416.802 357.78 417.222 358.53 417.622C358.65 417.682 358.759 417.742 358.87 417.802C359.559 418.182 360.23 418.522 360.87 418.812C362.57 419.632 368.74 420.283 370.86 419.382C369.54 416.512 361.469 411.212 357.12 408.352C355.09 407.022 353.62 406.062 352.95 405.493C348.26 401.463 345.12 396.663 341.8 391.573C341.22 390.693 340.64 389.812 340.05 388.913C329.821 373.533 322.88 357.883 319.441 342.392C317.941 335.712 317.64 330.262 317.64 323.102C317.64 321.783 317.67 320.472 317.701 319.142C317.711 318.653 317.721 318.153 317.731 317.663" stroke="#FFC32D" stroke-miterlimit="10"/>
<path d="M268.5 246.611L268.36 247.3C267.22 253.08 266.23 258.08 262.3 261.12C258.33 264.17 252.34 267.72 246 267.72C245.76 267.72 245.51 267.72 245.27 267.7C237.67 267.349 231.26 263.769 227.22 257.63C223.16 251.45 223.45 244 224.25 238.51C224.32 238.05 224.39 237.611 224.46 237.18L226.42 237.67C226.36 238.03 226.3 238.39 226.25 238.74C225.15 246.28 225.96 251.82 228.78 256.099C232.45 261.679 238.33 264.94 245.34 265.269C251.45 265.509 257.35 262.03 261.23 259.049C264.48 256.549 265.29 252.429 266.42 246.719L266.44 246.61L266.73 245.12L267.68 245.4L268.7 245.389L268.68 245.7L268.5 246.611Z" fill="#FFC32D" stroke="#FFC32D" stroke-miterlimit="10"/>
<path d="M273.54 215.771L274.24 215.721C274.5 221.631 270 224.64 266.04 227.291C262.62 229.581 260.37 231.261 260.07 233.581C260.01 233.971 260.01 234.391 260.08 234.831L258.11 235.261C258.06 234.942 258.03 234.631 258.03 234.331C257.89 229.971 261.54 227.531 265.08 225.161C268.75 222.691 272.23 220.361 272.25 216.221" fill="#FFC32D"/>
<path d="M273.54 215.771L274.24 215.721C274.5 221.631 270 224.64 266.04 227.291C262.62 229.581 260.37 231.261 260.07 233.581C260.01 233.971 260.01 234.391 260.08 234.831L258.11 235.261C258.06 234.942 258.03 234.631 258.03 234.331C257.89 229.971 261.54 227.531 265.08 225.161C268.75 222.691 272.23 220.361 272.25 216.221" stroke="#FFC32D" stroke-miterlimit="10"/>
<path d="M245.96 182.611C243.89 183.571 241.74 186.901 240.27 189.161L239.16 190.861C236.84 194.341 234.44 197.951 233.52 202.041C232.59 206.161 232.18 210.941 231.94 214.181C231.2 224.081 231.98 226.201 232.21 226.6C232.22 226.621 232.23 226.64 232.24 226.651L230.72 228.231C230.33 227.691 229.91 226.68 229.73 224.201C229.56 222.081 229.58 218.881 229.95 213.971C230.19 210.641 230.62 205.701 231.59 201.401C232.62 196.811 235.27 192.831 237.6 189.321L238.7 187.651C240.59 184.731 243.18 180.731 246.13 180.011L246.25 180.731" fill="#FFC32D"/>
<path d="M245.96 182.611C243.89 183.571 241.74 186.901 240.27 189.161L239.16 190.861C236.84 194.341 234.44 197.951 233.52 202.041C232.59 206.161 232.18 210.941 231.94 214.181C231.2 224.081 231.98 226.201 232.21 226.6C232.22 226.621 232.23 226.64 232.24 226.651L230.72 228.231C230.33 227.691 229.91 226.68 229.73 224.201C229.56 222.081 229.58 218.881 229.95 213.971C230.19 210.641 230.62 205.701 231.59 201.401C232.62 196.811 235.27 192.831 237.6 189.321L238.7 187.651C240.59 184.731 243.18 180.731 246.13 180.011L246.25 180.731" stroke="#FFC32D" stroke-miterlimit="10"/>
<path d="M263.79 195.691L264.31 194.671C264.87 195.101 265.2 196.131 266.28 199.631C267.71 204.271 270.68 213.931 273.28 214.001L273.54 215.771L273.63 216.411C273.51 216.431 273.38 216.441 273.26 216.441C272.92 216.431 272.58 216.361 272.25 216.221C269.1 214.931 266.74 208.061 264.41 200.491C263.94 198.961 263.41 197.241 263.15 196.701" fill="#FFC32D"/>
<path d="M263.79 195.691L264.31 194.671C264.87 195.101 265.2 196.131 266.28 199.631C267.71 204.271 270.68 213.931 273.28 214.001L273.54 215.771L273.63 216.411C273.51 216.431 273.38 216.441 273.26 216.441C272.92 216.431 272.58 216.361 272.25 216.221C269.1 214.931 266.74 208.061 264.41 200.491C263.94 198.961 263.41 197.241 263.15 196.701" stroke="#FFC32D" stroke-miterlimit="10"/>
<path d="M263.79 195.691L263.35 196.811C263.29 196.771 263.22 196.741 263.15 196.701C262.29 196.211 261.22 195.691 260.09 195.131C257.08 193.661 253.66 191.981 251.82 189.861C251.21 189.151 250.57 188.501 249.95 187.881C248.48 186.421 246.98 184.921 245.96 182.611C245.82 182.291 245.69 181.951 245.57 181.591C245.53 181.501 245.48 181.341 245.43 181.161L246.25 180.731L247.26 180.191L247.3 180.311C247.33 180.401 247.35 180.491 247.39 180.581C248.22 183.001 249.61 184.391 251.22 186.001C251.87 186.651 252.54 187.321 253.2 188.091C254.76 189.891 257.99 191.471 260.84 192.871C262.08 193.481 263.25 194.051 264.21 194.611L263.79 195.691Z" fill="#FFC32D" stroke="#FFC32D" stroke-miterlimit="10"/>
<path d="M288.47 345.511C288.24 345.631 288.01 345.751 287.78 345.862L287.04 343.591C287.2 343.511 287.36 343.431 287.52 343.351C292.45 340.891 296.6 337.702 299.83 333.872C302.86 330.262 306.15 327.351 309.63 324.271L309.85 324.082C311.85 322.292 313.51 320.422 314.93 318.372C315.31 317.811 315.651 317.152 316 316.452C316.42 315.601 316.87 314.722 317.43 313.992L317.75 314.351V314.362L318.89 315.672C318.47 316.202 318.111 316.902 317.731 317.662C317.72 317.682 317.71 317.702 317.701 317.722C317.331 318.472 316.941 319.243 316.461 319.932C314.941 322.153 313.161 324.153 311.031 326.052L310.81 326.242C307.39 329.271 304.151 332.132 301.22 335.612C297.84 339.631 293.56 342.951 288.47 345.511Z" fill="#FFC32D" stroke="#FFC32D" stroke-miterlimit="10"/>
<path d="M381.78 188.161V417.701H372.36C370.49 414.551 364.54 410.451 358.059 406.201C356.249 405.011 354.679 403.981 354.099 403.481C349.65 399.67 346.589 395.001 343.36 390.06C342.78 389.17 342.2 388.281 341.599 387.371C331.549 372.261 324.74 356.921 321.37 341.761C319.93 335.331 319.64 330.051 319.64 323.101C319.64 321.811 319.67 320.501 319.701 319.202C319.721 318.032 319.751 316.842 319.751 315.672C319.751 315.392 319.751 315.102 319.751 314.822C319.751 313.221 319.721 312.002 319.641 310.882C319.061 301.712 317.952 294.132 314.391 286.943C312.662 283.432 310.881 279.802 308.961 276.293C307.772 274.103 306.451 272.303 305.051 270.423C304.431 269.563 303.801 268.713 303.171 267.793C298.641 261.233 292.411 255.563 283.561 249.943C282.221 249.083 280.771 248.392 279.371 247.703C278.871 247.463 278.371 247.223 277.901 246.973C276.071 246.053 273.721 245.114 271.621 244.494C270.391 244.124 269.171 244.164 267.991 244.183L267.701 244.194C267.391 244.194 267.081 244.194 266.761 244.173C266.131 244.153 265.501 244.073 264.911 243.853C263.571 243.364 262.191 242.333 260.981 241.414C259.741 240.484 258.411 238.534 258.491 237.344C258.501 237.174 258.541 236.634 259.461 236.184C260.121 235.865 261.521 236.075 262.641 236.245C263.411 236.354 264.131 236.455 264.741 236.455C265.841 236.415 266.941 236.335 268.001 236.245C268.921 236.175 269.831 236.095 270.761 236.064C273.881 235.915 276.271 235.014 279.031 232.934L279.161 232.844C284.191 229.074 287.831 226.344 291.341 220.294C300.402 204.634 299.362 183.794 288.861 170.744C288.291 170.034 287.721 169.304 287.161 168.554C286.031 167.084 284.881 165.564 283.601 164.224C281.711 162.264 273.121 156.164 270.241 155.424C258.411 152.374 241.801 154.344 231.351 165.654C227.111 170.244 224.961 177.354 223.231 183.064C221.801 187.784 219.851 194.804 219.381 201.414C218.951 207.404 219.931 215.734 223.961 221.134C225.561 223.294 227.591 225.244 229.561 227.144C229.951 227.514 230.331 227.884 230.701 228.254C230.751 228.294 230.801 228.344 230.851 228.394C231.281 228.814 231.761 229.415 232.261 230.035C233.051 231.014 233.851 232.024 234.711 232.684C234.751 233.584 234.871 234.445 234.991 235.264C235.071 235.785 235.141 236.285 235.181 236.774C232.391 236.835 229.361 236.644 225.531 236.205C224.031 236.055 222.541 235.865 221.041 235.675C214.941 234.915 208.631 234.135 202.341 234.795C194.571 235.595 187.661 242.005 184.241 245.745C177.701 252.894 172.961 262.165 168.371 271.125C165.811 276.115 163.171 281.274 160.301 285.865C158.321 289.054 156.521 292.554 154.801 296.554C154.701 296.794 154.591 297.034 154.501 297.274C151.881 303.445 149.761 310.014 147.721 316.365L146.721 319.455C144.321 326.814 141.091 333.814 137.971 340.595C136.051 344.745 134.071 349.035 132.291 353.385C130.701 357.275 129.271 361.315 127.891 365.236C125.301 372.565 122.611 380.135 118.801 386.895L118.611 386.805C118.601 386.855 118.581 386.906 118.561 386.935L118.511 387.065C115.771 394.755 110.521 399.376 105.261 403.236C101.801 405.756 98.871 407.506 95.491 409.065C92.181 410.586 90.531 413.975 89.101 417.706H81.051V188.166" stroke="#FFC32D" stroke-width="4" stroke-miterlimit="10"/>
<path d="M79.71 171.431C86.93 80.751 152.21 9.53101 231.41 9.53101C310.68 9.53101 375.99 80.861 383.139 171.621" stroke="#FFC32D" stroke-width="4" stroke-miterlimit="10"/>
<path d="M80.05 188.171V189.381V417.701V418.481V418.491C80.05 418.551 80.05 418.6 80.04 418.651" fill="#FFC32D"/>
<path d="M80.05 188.171V189.381V417.701V418.481V418.491C80.05 418.551 80.05 418.6 80.04 418.651" stroke="#FFC32D" stroke-miterlimit="10"/>
<path d="M78.05 418.191V188.171C78.05 187.511 78.4701 186.981 79.0001 186.951" fill="#FFC32D"/>
<path d="M78.05 418.191V188.171C78.05 187.511 78.4701 186.981 79.0001 186.951" stroke="#FFC32D" stroke-miterlimit="10"/>
<path d="M1.52002 2.22095C42.87 2.22095 76.06 79.9709 79.71 171.431C79.94 176.961 80.05 182.541 80.05 188.161V188.171C80.05 188.691 79.91 189.141 79.71 189.311C79.66 189.361 79.59 189.391 79.53 189.391C79.31 189.391 79.13 189.081 79.05 188.641C79.02 188.501 79.01 188.341 79.01 188.171C79.01 187.761 79.01 187.361 79 186.951C78.72 90.681 44.89 5.34095 2.04004 4.66095" fill="#FFC32D"/>
<path d="M1.52002 2.22095C42.87 2.22095 76.06 79.9709 79.71 171.431C79.94 176.961 80.05 182.541 80.05 188.161V188.171C80.05 188.691 79.91 189.141 79.71 189.311C79.66 189.361 79.59 189.391 79.53 189.391C79.31 189.391 79.13 189.081 79.05 188.641C79.02 188.501 79.01 188.341 79.01 188.171C79.01 187.761 79.01 187.361 79 186.951C78.72 90.681 44.89 5.34095 2.04004 4.66095" stroke="#FFC32D" stroke-width="2" stroke-miterlimit="10"/>
<path d="M1.66003 445.701C1.62003 445.731 1.57002 445.751 1.52002 445.751L1.66003 445.701Z" fill="#FFC32D"/>
<path d="M1.66003 445.701C1.62003 445.731 1.57002 445.751 1.52002 445.751" stroke="#FFC32D" stroke-width="2" stroke-miterlimit="10"/>
<path d="M1 444.531V3.44095C1 2.76095 1.22999 2.22095 1.51999 2.22095C1.80999 2.22095 2.04001 2.76095 2.04001 3.44095V4.66095V443.14" fill="#FFC32D"/>
<path d="M1 444.531V3.44095C1 2.76095 1.22999 2.22095 1.51999 2.22095C1.80999 2.22095 2.04001 2.76095 2.04001 3.44095V4.66095V443.14" stroke="#FFC32D" stroke-width="2" stroke-miterlimit="10"/>
<path d="M80.05 418.921C80.05 419.601 79.82 420.141 79.53 420.141L79.05 420.301L1.66 445.701L1.51999 445.751C1.22999 445.751 1 445.211 1 444.531C1 443.861 1.22999 443.31 1.51999 443.31L2.04001 443.14L78.05 418.191L79.05 417.861L79.53 417.701C79.75 417.701 79.94 418.031 80.02 418.491C80.02 418.541 80.03 418.591 80.04 418.651C80.05 418.741 80.05 418.831 80.05 418.921Z" fill="#FFC32D" stroke="#FFC32D" stroke-width="2" stroke-miterlimit="10"/>
<path d="M71.86 199.491V385.191C71.86 385.231 71.86 385.281 71.85 385.321" fill="#FFC32D"/>
<path d="M71.86 199.491V385.191C71.86 385.231 71.86 385.281 71.85 385.321" stroke="#FFC32D" stroke-miterlimit="10"/>
<path d="M70.28 384.951V199.491C70.28 198.961 70.62 198.531 71.03 198.501" fill="#FFC32D"/>
<path d="M70.28 384.951V199.491C70.28 198.961 70.62 198.531 71.03 198.501" stroke="#FFC32D" stroke-miterlimit="10"/>
<path d="M10.15 48.131C44.73 48.131 71.86 120.061 71.86 199.491C71.86 200.031 71.68 200.471 71.45 200.471C71.22 200.471 71.04 200.031 71.04 199.491C71.04 199.161 71.04 198.831 71.03 198.501C70.82 120.871 44.35 50.671 10.56 50.111" fill="#FFC32D"/>
<path d="M10.15 48.131C44.73 48.131 71.86 120.061 71.86 199.491C71.86 200.031 71.68 200.471 71.45 200.471C71.22 200.471 71.04 200.031 71.04 199.491C71.04 199.161 71.04 198.831 71.03 198.501C70.82 120.871 44.35 50.671 10.56 50.111" stroke="#FFC32D" stroke-miterlimit="10"/>
<path d="M9.73999 405.731V49.121C9.73999 48.571 9.91999 48.131 10.15 48.131C10.38 48.131 10.56 48.571 10.56 49.121V50.111V404.611" fill="#FFC32D"/>
<path d="M9.73999 405.731V49.121C9.73999 48.571 9.91999 48.131 10.15 48.131C10.38 48.131 10.56 48.571 10.56 49.121V50.111V404.611" stroke="#FFC32D" stroke-miterlimit="10"/>
<path d="M71.85 385.321C71.86 385.39 71.86 385.47 71.86 385.55C71.86 386.09 71.68 386.53 71.45 386.53L10.25 406.679L10.15 406.709C9.91999 406.709 9.73999 406.269 9.73999 405.73C9.73999 405.179 9.91999 404.74 10.15 404.74L10.56 404.61L70.28 384.95L71.45 384.57C71.65 384.571 71.81 384.881 71.85 385.321Z" fill="#FFC32D" stroke="#FFC32D" stroke-miterlimit="10"/>
<path d="M383.87 186.961C384.38 187.001 384.79 187.521 384.79 188.171V418.161" fill="#FFC32D"/>
<path d="M383.87 186.961C384.38 187.001 384.79 187.521 384.79 188.171V418.161" stroke="#FFC32D" stroke-miterlimit="10"/>
<path d="M382.8 418.601C382.79 418.561 382.79 418.521 382.79 418.482V417.702V189.382V188.412" fill="#FFC32D"/>
<path d="M382.8 418.601C382.79 418.561 382.79 418.521 382.79 418.482V417.702V189.382V188.412" stroke="#FFC32D" stroke-miterlimit="10"/>
<path d="M464.13 4.67099C419.97 5.93099 384.16 91.021 383.87 186.961C383.86 187.361 383.86 187.771 383.86 188.171C383.86 188.411 383.83 188.631 383.78 188.811C383.679 189.161 383.509 189.391 383.32 189.391C383.25 189.391 383.19 189.361 383.13 189.301C383.13 189.301 383.12 189.311 383.12 189.301C382.95 189.151 382.83 188.821 382.79 188.411C382.78 188.341 382.78 188.251 382.78 188.171C382.78 187.761 382.78 187.361 382.79 186.951C382.8 181.801 382.91 176.691 383.14 171.621C386.951 80.801 421.731 3.44097 464.13 2.24097" fill="#FFC32D"/>
<path d="M464.13 4.67099C419.97 5.93099 384.16 91.021 383.87 186.961C383.86 187.361 383.86 187.771 383.86 188.171C383.86 188.411 383.83 188.631 383.78 188.811C383.679 189.161 383.509 189.391 383.32 189.391C383.25 189.391 383.19 189.361 383.13 189.301C383.13 189.301 383.12 189.311 383.12 189.301C382.95 189.151 382.83 188.821 382.79 188.411C382.78 188.341 382.78 188.251 382.78 188.171C382.78 187.761 382.78 187.361 382.79 186.951C382.8 181.801 382.91 176.691 383.14 171.621C386.951 80.801 421.731 3.44097 464.13 2.24097" stroke="#FFC32D" stroke-width="2" stroke-miterlimit="10"/>
<path d="M464.67 445.611L384.79 420.6L383.32 420.14C383.15 420.14 383 419.97 382.9 419.691C382.849 419.541 382.809 419.371 382.79 419.17C382.78 419.09 382.78 419.01 382.78 418.92C382.78 418.81 382.79 418.7 382.8 418.6C382.861 418.08 383.071 417.701 383.321 417.701L383.781 417.841L383.791 417.851L384.791 418.162L464.131 443.002" fill="#FFC32D"/>
<path d="M464.67 445.611L384.79 420.6L383.32 420.14C383.15 420.14 383 419.97 382.9 419.691C382.849 419.541 382.809 419.371 382.79 419.17C382.78 419.09 382.78 419.01 382.78 418.92C382.78 418.81 382.79 418.7 382.8 418.6C382.861 418.08 383.071 417.701 383.321 417.701L383.781 417.841L383.791 417.851L384.791 418.162L464.131 443.002" stroke="#FFC32D" stroke-width="2" stroke-miterlimit="10"/>
<path d="M465.13 445.751C464.96 445.751 464.81 445.701 464.67 445.611C464.35 445.411 464.13 445.01 464.13 444.531V443.001V4.67099V2.24097V2.22098C464.13 1.54098 464.58 1.00098 465.13 1.00098C465.68 1.00098 466.13 1.54098 466.13 2.22098V444.531C466.13 445.211 465.68 445.751 465.13 445.751Z" fill="#FFC32D" stroke="#FFC32D" stroke-width="2" stroke-miterlimit="10"/>
<path d="M391.43 201.181C391.85 201.221 392.17 201.641 392.17 202.151V387.982" fill="#FFC32D"/>
<path d="M391.43 201.181C391.85 201.221 392.17 201.641 392.17 202.151V387.982" stroke="#FFC32D" stroke-miterlimit="10"/>
<path d="M390.57 388.331C390.559 388.301 390.559 388.281 390.559 388.251V202.351" fill="#FFC32D"/>
<path d="M390.57 388.331C390.559 388.301 390.559 388.281 390.559 388.251V202.351" stroke="#FFC32D" stroke-miterlimit="10"/>
<path d="M456.29 52.471C420.6 53.501 391.66 123.631 391.43 201.181C391.42 201.501 391.42 201.831 391.42 202.151C391.42 202.691 391.231 203.141 390.99 203.141C390.78 203.141 390.599 202.801 390.559 202.351C390.549 202.281 390.549 202.221 390.549 202.151C390.549 123.141 419.969 51.541 456.289 50.501" fill="#FFC32D"/>
<path d="M456.29 52.471C420.6 53.501 391.66 123.631 391.43 201.181C391.42 201.501 391.42 201.831 391.42 202.151C391.42 202.691 391.231 203.141 390.99 203.141C390.78 203.141 390.599 202.801 390.559 202.351C390.549 202.281 390.549 202.221 390.549 202.151C390.549 123.141 419.969 51.541 456.289 50.501" stroke="#FFC32D" stroke-miterlimit="10"/>
<path d="M456.74 409.711L390.99 389.591C390.75 389.591 390.55 389.152 390.55 388.612C390.55 388.511 390.56 388.422 390.571 388.332C390.621 387.922 390.791 387.622 390.991 387.622L392.171 387.982L456.291 407.612" fill="#FFC32D"/>
<path d="M456.74 409.711L390.99 389.591C390.75 389.591 390.55 389.152 390.55 388.612C390.55 388.511 390.56 388.422 390.571 388.332C390.621 387.922 390.791 387.622 390.991 387.622L392.171 387.982L456.291 407.612" stroke="#FFC32D" stroke-miterlimit="10"/>
<path d="M457.09 409.821C456.96 409.821 456.85 409.781 456.74 409.711C456.469 409.561 456.29 409.232 456.29 408.841V407.612V52.472V50.502V50.492C456.29 49.942 456.65 49.512 457.09 49.512C457.54 49.512 457.901 49.942 457.901 50.492V408.842C457.9 409.381 457.54 409.821 457.09 409.821Z" fill="#FFC32D" stroke="#FFC32D" stroke-miterlimit="10"/>
</svg>
