<svg width="102" height="57" viewBox="0 0 102 57" fill="none" xmlns="http://www.w3.org/2000/svg">
<path d="M49.2695 0.954102H52.5616" stroke="#F7C340" stroke-width="0.5" stroke-miterlimit="10"/>
<path d="M84.8954 0.954102H88.1856" stroke="#F7C340" stroke-width="0.5" stroke-miterlimit="10"/>
<path d="M13.4216 0.954102H16.714" stroke="#F7C340" stroke-width="0.5" stroke-miterlimit="10"/>
<path d="M86.674 24.0327C86.5951 24.0335 86.5162 24.0319 86.4415 24.0076C86.331 23.973 86.2213 23.9025 86.1264 23.8421C85.9687 23.7405 85.7702 23.4692 86.0234 23.3633C86.1281 23.3199 86.3343 23.3771 86.4478 23.3747C86.6001 23.3712 86.7504 23.3547 86.9013 23.3496C87.1314 23.3409 87.2983 23.2826 87.4893 23.1595C87.869 22.9159 88.1381 22.745 88.3965 22.3643C89.0383 21.4139 89.0125 20.1089 88.217 19.2624C88.0883 19.1263 87.9654 18.9719 87.825 18.8461C87.6862 18.7229 87.0503 18.3379 86.8499 18.2939C85.9106 18.0865 84.7097 18.261 83.9796 18.9373C83.6808 19.2138 83.523 19.6474 83.3875 20.0309C83.2558 20.4027 83.1326 20.8123 83.101 21.1962C83.0669 21.6012 83.1574 22.1024 83.4276 22.411C83.5711 22.5765 83.7698 22.7293 83.9383 22.8716C84.0378 22.9548 84.1494 23.1119 84.2588 23.163C84.2536 23.2974 84.3012 23.4195 84.2987 23.5513C84.0266 23.5599 83.7547 23.5426 83.4831 23.5167C82.9058 23.4621 82.328 23.3728 81.7458 23.4249C81.2515 23.4692 80.7765 23.7829 80.4233 24.1134C79.6616 24.8254 79.2289 25.8685 78.6261 26.695C78.4691 26.9102 78.3353 27.1391 78.2176 27.3749C77.9793 27.8466 77.7992 28.3504 77.6104 28.8472C77.5298 29.0597 77.4386 29.2652 77.3399 29.4672H77.3391V6.34649V6.25712C77.3391 -0.65756 95.3616 -0.93405 95.3616 6.25712V35.2178V35.2465H94.5325C94.394 34.9627 93.3241 34.4391 93.1529 34.3133C92.7477 34.0158 92.4984 33.6491 92.1938 33.2573C91.5143 32.3833 90.9364 31.3737 90.6525 30.2804C90.5403 29.853 90.5197 29.5034 90.5197 29.0535C90.5197 28.8775 90.5288 28.6971 90.528 28.5186C90.528 28.4355 90.526 28.352 90.5197 28.2708C90.4796 27.7307 90.4067 27.2301 90.1335 26.7576C90.0007 26.5262 89.8685 26.2964 89.7258 26.0726C89.5988 25.8723 89.4457 25.7189 89.294 25.5307C88.9012 25.0433 88.372 24.6869 87.8362 24.3956C87.7018 24.3227 87.5465 24.2646 87.4137 24.2074C87.2725 24.145 87.0996 24.0878 86.9517 24.0502C86.861 24.0265 86.7672 24.0308 86.674 24.0327Z" fill="#F7C340"/>
<path d="M94.954 36.634H91.8181V53.6133H94.954V36.634Z" fill="#F7C340"/>
<path d="M92.2031 35.2465H89.8866C89.8228 34.9627 89.7299 34.6838 89.5927 34.4105C89.3717 33.9718 89.0479 33.5951 88.6859 33.2789C88.3794 33.0103 88.0272 32.808 87.7972 32.4543C87.5264 32.0371 87.3403 31.54 87.2757 31.04C87.2095 30.5205 87.2823 30.2602 87.6418 29.9005C87.6976 29.8449 87.7482 29.7896 87.7933 29.7339C87.8049 29.7715 87.8164 29.8085 87.8299 29.8457C87.8923 30.0115 87.9585 30.1546 88.0564 30.3185C88.0855 30.3671 88.1122 30.4155 88.138 30.4651C88.5589 31.2768 88.5839 32.2599 89.231 32.9565C89.8998 33.6761 90.7143 34.3058 91.608 34.6776C91.763 34.7426 92.0107 34.8261 92.1113 34.9673C92.1698 35.0496 92.1808 35.1504 92.2031 35.2465Z" fill="#F7C340"/>
<path d="M91.2806 36.634V53.6133H88.1633V48.0587C88.4333 47.2244 88.6867 46.4216 88.7423 46.1543C88.8022 45.8665 88.8401 45.5776 88.9 45.2968C88.9589 45.0203 89.0636 44.7929 89.09 44.5016C89.1515 43.8355 89.0177 42.9571 89.0155 42.2861C89.3319 42.318 89.8143 42.3858 89.988 42.2243C90.1194 42.1031 90.0579 41.724 90.065 41.5574C90.1368 40.1207 90.1714 38.6974 90.0768 37.2591C90.0634 37.0493 90.0543 36.8411 90.0436 36.634H91.2806Z" fill="#F7C340"/>
<path d="M87.6658 49.5762V52.8036H87.6141C87.5372 52.7056 87.4022 52.677 87.2282 52.5841C86.9822 52.4542 86.7364 52.4861 86.7097 52.2328C86.704 52.1818 86.7081 52.1183 86.7224 52.0395C86.782 51.716 86.9747 51.4333 87.1075 51.1401C87.2587 50.8082 87.3774 50.4648 87.4863 50.1257C87.5306 49.9888 87.593 49.7989 87.6658 49.5762Z" fill="#F7C340"/>
<path d="M84.2978 23.5512C84.3006 23.4194 84.253 23.2971 84.258 23.1629C84.1485 23.1119 84.037 22.9547 83.9374 22.8716C83.836 22.7468 83.8836 22.1787 83.8981 22.0078C83.9199 21.7502 83.9528 21.4624 84.0194 21.2091C84.0982 20.9083 84.3116 20.6481 84.4968 20.4088C84.6296 20.2355 84.8399 19.9293 85.0593 19.8834L85.0716 19.878C85.1645 20.114 85.3548 20.2155 85.5257 20.3853C85.7077 20.5657 86.1412 20.7037 86.3763 20.8206C86.4535 20.8708 86.7427 22.0737 87.0921 22.0813L87.0904 22.1177C87.1237 22.7655 85.9293 22.8192 86.0222 23.363C85.769 23.4688 85.9675 23.7402 86.1253 23.8417C86.2201 23.9025 86.3295 23.9727 86.4403 24.0073C86.5148 24.0316 86.594 24.0332 86.6729 24.0324C86.5734 24.4565 86.52 24.786 86.2242 24.9812C85.8696 25.2145 85.4221 25.4113 84.9818 25.3948C84.4826 25.3748 83.9949 25.1894 83.6744 24.773C83.3943 24.4079 83.397 23.9546 83.4817 23.5166C83.7541 23.5426 84.0257 23.5601 84.2978 23.5512Z" fill="#F7C340"/>
<path d="M85.558 52.2355C85.5564 52.2649 85.5536 52.2946 85.5506 52.3238C85.53 52.4912 85.3945 52.6021 85.3521 52.7652C85.3197 52.8902 85.3279 53.4078 85.3304 53.6133H84.647V42.318C84.9445 42.3234 85.24 42.3258 85.5363 42.3258C85.6097 42.5008 85.6894 42.8721 85.7488 43.0473C85.8205 43.2571 85.92 43.4159 86.0204 43.6084C86.2191 43.988 86.0278 44.4025 85.8368 44.7384C85.6309 45.1007 85.4841 45.4344 85.4068 45.8527C85.3312 46.2566 85.2248 46.6538 85.1908 47.0656C85.1542 47.4922 85.1759 47.9223 85.1677 48.3508C85.1594 48.7645 85.2089 49.1789 85.2292 49.5918C85.2515 50.0627 85.2606 50.5414 85.3447 51.005C85.417 51.41 85.5814 51.8183 85.558 52.2355Z" fill="#F7C340"/>
<path d="M82.5696 51.8661C82.6111 52.0249 82.6925 52.2441 82.6691 52.4099C82.6628 52.4585 82.6469 52.502 82.6194 52.5384C82.4756 52.7247 82.1732 52.8063 81.9764 52.9129C81.7928 53.0126 81.5927 53.1092 81.4167 53.2113C81.2606 53.3039 81.1061 53.4313 81.0629 53.6133H80.9923V43.3716C81.0022 43.6151 81.0198 43.8554 81.0486 44.086C81.1418 44.8126 81.3103 45.5271 81.4167 46.2521C81.5278 46.9994 81.6136 47.7503 81.7455 48.4945C81.8194 48.9098 81.9074 49.3234 82.0229 49.7292C82.2224 50.4369 82.383 51.1549 82.5696 51.8661Z" fill="#F7C340"/>
<path d="M79.8331 30.5154C79.9192 30.3895 80.0165 30.2734 80.1331 30.1727C80.1729 30.1382 80.2251 30.1052 80.2658 30.0739C80.3785 30.3393 80.4824 30.6083 80.4959 30.8969C80.5058 31.1129 80.5124 31.3583 80.398 31.5352C80.1845 31.8646 79.8532 32.13 79.6132 32.4438C79.3524 32.7856 79.1215 33.1504 78.9156 33.5311C78.6209 34.0757 78.4804 34.653 78.4312 35.2465H77.3383V35.2179V33.6702C77.5873 33.4282 77.8251 33.1706 78.0598 32.9044C78.4485 32.464 78.8787 32.0571 79.2168 31.5708C79.4461 31.242 79.6031 30.8469 79.8331 30.5154Z" fill="#F7C340"/>
<path d="M80.3193 42.2297V53.6133H77.4769V36.634H78.4564C78.5369 37.4716 78.7079 38.3127 78.8101 39.1079C78.905 39.8434 79.0028 40.5767 79.2552 41.2747C79.3591 41.5617 79.4795 42.0005 79.7404 42.1825C79.9287 42.3145 80.1189 42.2564 80.3193 42.2297Z" fill="#F7C340"/>
<path d="M77.3384 6.25712C77.3384 -0.65756 95.3609 -0.934051 95.3609 6.25712V35.2178" stroke="#F7C340" stroke-width="0.5" stroke-miterlimit="10"/>
<path d="M77.3384 33.6702V35.2179" stroke="#F7C340" stroke-width="0.5" stroke-miterlimit="10"/>
<path d="M77.3384 6.3465V29.4672" stroke="#F7C340" stroke-width="0.5" stroke-miterlimit="10"/>
<path d="M71.9263 56H101V53.6133" stroke="#F7C340" stroke-width="0.5" stroke-miterlimit="10"/>
<path d="M101 53.6133H99.6949" stroke="#F7C340" stroke-width="0.5" stroke-miterlimit="10"/>
<path d="M99.6949 53.6133V36.6254" stroke="#F7C340" stroke-width="0.5" stroke-miterlimit="10"/>
<path d="M99.6949 36.6254H100.642" stroke="#F7C340" stroke-width="0.5" stroke-miterlimit="10"/>
<path d="M100.642 36.6254V35.2465" stroke="#F7C340" stroke-width="0.5" stroke-miterlimit="10"/>
<path d="M73.2173 35.2465H72.0237" stroke="#F7C340" stroke-width="0.5" stroke-miterlimit="10"/>
<path d="M75.4669 35.2465H74.3591H74.0983" stroke="#F7C340" stroke-width="0.5" stroke-miterlimit="10"/>
<path d="M92.204 35.2465H92.2032H89.8867H78.4313H77.3383H75.9512H75.9504" stroke="#F7C340" stroke-width="0.5" stroke-miterlimit="10"/>
<path d="M93.5258 35.2465H92.7144" stroke="#F7C340" stroke-width="0.5" stroke-miterlimit="10"/>
<path d="M100.642 35.2465H95.361H94.5322" stroke="#F7C340" stroke-width="0.5" stroke-miterlimit="10"/>
<path d="M72.0237 35.2465V36.634" stroke="#F7C340" stroke-width="0.5" stroke-miterlimit="10"/>
<path d="M72.0237 36.634H73.2676" stroke="#F7C340" stroke-width="0.5" stroke-miterlimit="10"/>
<path d="M73.2675 36.634V53.6133" stroke="#F7C340" stroke-width="0.5" stroke-miterlimit="10"/>
<path d="M73.2676 53.6133H71.8857" stroke="#F7C340" stroke-width="0.5" stroke-miterlimit="10"/>
<path d="M71.8857 53.6133V56" stroke="#F7C340" stroke-width="0.5" stroke-miterlimit="10"/>
<path d="M76.8223 36.634H73.8217V53.6133H76.8223V36.634Z" stroke="#F7C340" stroke-width="0.5" stroke-miterlimit="10"/>
<path d="M80.3194 42.2297V53.6133H77.4771V36.634H78.4562H80.3194V42.2297Z" stroke="#F7C340" stroke-width="0.5" stroke-miterlimit="10"/>
<path d="M84.0519 52.3311V53.6133H81.0636H80.9929V43.3716V42.2114V36.634H84.0519V42.3032V52.3311Z" stroke="#F7C340" stroke-width="0.5" stroke-miterlimit="10"/>
<path d="M87.666 52.8036V53.6133H85.3305H84.6472V42.318V36.634H87.666V42.2929V49.5761V52.8036Z" stroke="#F7C340" stroke-width="0.5" stroke-miterlimit="10"/>
<path d="M90.044 36.634H91.2807V53.6133H88.1635V48.0587V42.2816V36.634H90.044Z" stroke="#F7C340" stroke-width="0.5" stroke-miterlimit="10"/>
<path d="M94.9541 36.634H91.8182V53.6133H94.9541V36.634Z" stroke="#F7C340" stroke-width="0.5" stroke-miterlimit="10"/>
<path d="M99.1268 36.634H95.5546V53.6133H99.1268V36.634Z" stroke="#F7C340" stroke-width="0.5" stroke-miterlimit="10"/>
<path d="M76.5527 34.3394C76.8333 34.134 77.0917 33.9093 77.3383 33.6701C77.5873 33.4282 77.8251 33.1706 78.0599 32.9043C78.4486 32.4639 78.8788 32.057 79.2169 31.5707C79.4461 31.2421 79.6031 30.8469 79.8332 30.5156C79.9192 30.3897 80.0165 30.2736 80.1331 30.1729C80.173 30.1383 80.2252 30.1054 80.2659 30.0741C80.2692 30.0714 80.273 30.069 80.2766 30.0665" stroke="#F7C340" stroke-width="0.5" stroke-miterlimit="10"/>
<path d="M84.3157 23.5512C84.3099 23.5512 84.3041 23.5512 84.2984 23.5512C84.0262 23.5599 83.7544 23.5426 83.4828 23.5167C82.9055 23.4621 82.3277 23.3728 81.7455 23.4249C81.2512 23.4691 80.7762 23.7829 80.423 24.1134C79.6613 24.8254 79.2286 25.8685 78.6257 26.695C78.4688 26.9102 78.3349 27.1391 78.2173 27.3748C77.9789 27.8465 77.7989 28.3504 77.61 28.8472C77.5295 29.0597 77.4382 29.2652 77.3395 29.4672C77.0795 30.0004 76.7755 30.5094 76.519 31.0462C76.1735 31.7695 75.9409 32.5463 75.4926 33.2243" stroke="#F7C340" stroke-width="0.5" stroke-miterlimit="10"/>
<path d="M89.8867 35.2464C89.8229 34.9626 89.73 34.6837 89.5929 34.4104C89.3719 33.9717 89.048 33.595 88.686 33.2788C88.3795 33.0102 88.0274 32.8079 87.7973 32.4542C87.5265 32.0371 87.3404 31.54 87.2758 31.0399C87.2096 30.5204 87.2824 30.2601 87.642 29.9005C87.6978 29.8448 87.7484 29.7895 87.7934 29.7339C88.1057 29.3488 88.1687 28.9622 88.0889 28.4062C88.0683 28.2561 87.976 28.0463 88.0708 27.9127" stroke="#F7C340" stroke-width="0.5" stroke-miterlimit="10"/>
<path d="M88.1635 42.2816C88.3845 42.2762 88.606 42.274 88.8281 42.274C88.8779 42.274 88.9417 42.2791 89.0159 42.2861C89.3323 42.318 89.8147 42.3858 89.9884 42.2243C90.1198 42.1031 90.0583 41.724 90.0654 41.5574C90.1372 40.1207 90.1718 38.6974 90.0772 37.2591C90.0638 37.0493 90.0547 36.8411 90.044 36.634" stroke="#F7C340" stroke-width="0.5" stroke-miterlimit="10"/>
<path d="M84.6472 42.3176C84.9446 42.323 85.2401 42.3254 85.5364 42.3254C86.1579 42.3254 86.7775 42.3142 87.4062 42.2988C87.4934 42.2969 87.5797 42.2942 87.666 42.2929" stroke="#F7C340" stroke-width="0.5" stroke-miterlimit="10"/>
<path d="M80.9777 42.2113H80.9785C80.9837 42.2113 80.9876 42.2113 80.9928 42.2113C81.9403 42.2086 82.8857 42.2581 83.8332 42.2956C83.9063 42.2983 83.9792 42.301 84.0517 42.3032" stroke="#F7C340" stroke-width="0.5" stroke-miterlimit="10"/>
<path d="M78.4561 36.634C78.5366 37.4716 78.7076 38.3127 78.8099 39.1079C78.9047 39.8434 79.0025 40.5767 79.2549 41.2747C79.3588 41.5617 79.4792 42.0005 79.7401 42.1825C79.9286 42.3142 80.1189 42.2562 80.319 42.2295" stroke="#F7C340" stroke-width="0.5" stroke-miterlimit="10"/>
<path d="M80.3256 27.2366C80.1579 27.84 79.9048 28.4948 79.9636 29.1329C79.9944 29.4658 80.1365 29.7685 80.2663 30.0736C80.379 30.339 80.4829 30.6079 80.4963 30.8966C80.5062 31.1126 80.5128 31.358 80.3985 31.5349C80.1849 31.8643 79.8536 32.1297 79.6137 32.4435C79.3528 32.7853 79.1219 33.1501 78.916 33.5308C78.6213 34.0754 78.4808 34.6527 78.4316 35.2461" stroke="#F7C340" stroke-width="0.5" stroke-miterlimit="10"/>
<path d="M78.2171 27.3746C78.467 28.6787 78.9057 29.8832 79.8335 30.5153C79.8359 30.518 79.8392 30.5199 79.8417 30.5213" stroke="#F7C340" stroke-width="0.5" stroke-miterlimit="10"/>
<path d="M75.4888 33.1984C75.486 33.2051 75.483 33.2124 75.4797 33.2184C75.2779 33.7038 74.9156 34.0073 74.4488 34.2997C74.199 34.4558 73.973 34.5746 73.6987 34.6829C73.4612 34.7766 73.3485 34.9923 73.2347 35.2553C73.2289 35.2683 73.2228 35.2823 73.2173 35.2958C73.4634 35.393 73.9167 35.3174 74.3592 35.2464C74.8268 35.1719 75.2826 35.1025 75.467 35.2464C75.4761 35.2523 75.4844 35.2602 75.4921 35.268C75.6872 35.4719 75.9005 35.6001 75.9432 35.319C75.9473 35.2928 75.9497 35.2685 75.9514 35.2461C75.9855 34.823 75.7155 34.7779 76.5529 34.3392" stroke="#F7C340" stroke-width="0.5" stroke-miterlimit="10"/>
<path d="M84.2971 23.5766C84.2979 23.568 84.2979 23.5593 84.2979 23.5515C84.3007 23.4197 84.2531 23.2974 84.2581 23.1632C84.1487 23.1122 84.0371 22.955 83.9376 22.8719C83.769 22.7296 83.5703 22.577 83.4268 22.4112C83.1569 22.1026 83.0661 21.6012 83.1002 21.1965C83.1318 20.8122 83.255 20.4029 83.3867 20.0311C83.5222 19.648 83.68 19.2143 83.9788 18.9376C84.7089 18.2612 85.9099 18.087 86.8492 18.2941C87.0496 18.3384 87.6854 18.7232 87.8242 18.8463C87.9647 18.9721 88.0876 19.1266 88.2162 19.2626C89.012 20.1091 89.0376 21.4141 88.3957 22.3645C88.1376 22.7452 87.8682 22.9159 87.4886 23.1597C87.2978 23.2828 87.1307 23.3409 86.9006 23.3498C86.7494 23.3549 86.599 23.3714 86.447 23.3749C86.3335 23.3776 86.1273 23.3204 86.0226 23.3636C85.7694 23.4694 85.9679 23.7408 86.1257 23.8423C86.2205 23.903 86.3299 23.9732 86.4407 24.0078C86.5152 24.0321 86.5943 24.0337 86.6732 24.0329C86.7664 24.0313 86.8602 24.027 86.9506 24.0502C87.0985 24.0875 87.2714 24.1447 87.4127 24.2073C87.5455 24.2646 87.7008 24.3226 87.8352 24.3955C88.371 24.6869 88.9001 25.0433 89.2929 25.5307C89.445 25.7189 89.5978 25.8725 89.7248 26.0726C89.8677 26.2964 89.9997 26.5262 90.1325 26.7576C90.4057 27.2301 90.4788 27.7307 90.5187 28.2707C90.525 28.3523 90.5269 28.4354 90.5269 28.5186C90.5277 28.6973 90.5187 28.8777 90.5187 29.0535C90.5187 29.5036 90.5393 29.853 90.6514 30.2804C90.9354 31.3739 91.5135 32.3832 92.1927 33.2573C92.4973 33.649 92.7469 34.016 93.1518 34.3133C93.3231 34.4391 94.393 34.9626 94.5315 35.2464C94.5441 35.2724 94.5488 35.2958 94.545 35.3174C94.4053 35.4322 93.8215 35.3712 93.678 35.3131C93.6288 35.2931 93.5785 35.2707 93.526 35.2464H93.5251C93.4319 35.2048 93.3349 35.1579 93.2393 35.1128C93.1447 35.0677 92.8489 34.9786 92.7524 35.0896C92.731 35.1139 92.7203 35.1751 92.7134 35.2464C92.7027 35.3555 92.7027 35.4884 92.6917 35.5421C92.4984 35.5526 92.3885 35.5777 92.2725 35.4163C92.2351 35.3644 92.2169 35.3064 92.2026 35.2464C92.1804 35.1503 92.1694 35.0496 92.1106 34.9672C92.0099 34.826 91.7623 34.7426 91.6072 34.6775C90.7136 34.3057 89.8988 33.676 89.2303 32.9565C88.5832 32.2601 88.5584 31.2767 88.1373 30.4651C88.1115 30.4154 88.0851 30.3671 88.0557 30.3185C87.9578 30.1546 87.8913 30.0115 87.8292 29.8457C87.8157 29.8084 87.8041 29.7714 87.7926 29.7339C87.7882 29.7209 87.7843 29.7069 87.7791 29.6934" stroke="#F7C340" stroke-width="0.5" stroke-miterlimit="10"/>
<path d="M83.4826 23.5167C83.398 23.9547 83.3955 24.408 83.6753 24.7731C83.9959 25.1894 84.4832 25.3749 84.9827 25.3949C85.4231 25.4114 85.8703 25.2145 86.2252 24.9813C86.521 24.786 86.5743 24.4566 86.6738 24.0324V24.0316" stroke="#F7C340" stroke-width="0.5" stroke-miterlimit="10"/>
<path d="M86.0233 23.3633C85.9304 22.8195 87.1248 22.7658 87.0915 22.118" stroke="#F7C340" stroke-width="0.5" stroke-miterlimit="10"/>
<path d="M85.0601 19.8835C84.8408 19.9294 84.6305 20.2356 84.4977 20.4089C84.3124 20.6484 84.0991 20.9084 84.0202 21.2092C83.9537 21.4625 83.9207 21.7503 83.899 22.0079C83.8841 22.1786 83.8366 22.7467 83.9383 22.8717" stroke="#F7C340" stroke-width="0.5" stroke-miterlimit="10"/>
<path d="M87.1087 22.0808C87.1038 22.0816 87.098 22.0816 87.0928 22.0816C86.7434 22.0738 86.4542 20.8711 86.377 20.8209" stroke="#F7C340" stroke-width="0.5" stroke-miterlimit="10"/>
<path d="M85.0599 19.8463C85.0641 19.8576 85.0671 19.8679 85.0723 19.8784C85.1652 20.1144 85.3554 20.2159 85.5264 20.3857C85.7084 20.5661 86.1419 20.7041 86.3769 20.821" stroke="#F7C340" stroke-width="0.5" stroke-miterlimit="10"/>
<path d="M90.4825 28.5192C90.4127 28.5964 90.3659 28.7117 90.2964 28.7984C90.179 28.9442 90.0446 29.0697 89.8994 29.1807C89.6336 29.3818 89.381 29.5717 89.1509 29.8058C88.867 30.0944 88.517 30.3037 88.1608 30.4511" stroke="#F7C340" stroke-width="0.5" stroke-miterlimit="10"/>
<path d="M80.9785 42.2114C80.9785 42.5851 80.976 42.982 80.9928 43.3716C81.0027 43.6151 81.0202 43.8555 81.0491 44.086C81.1423 44.8126 81.3108 45.5271 81.4172 46.2521C81.5282 46.9995 81.614 47.7504 81.7459 48.4945C81.8199 48.9098 81.9079 49.3234 82.0233 49.7293C82.2229 50.4367 82.3831 51.1546 82.5698 51.8658C82.6113 52.0246 82.6927 52.2439 82.6693 52.4096C82.663 52.4582 82.647 52.5017 82.6195 52.5382C82.4758 52.7245 82.1734 52.806 81.9766 52.9127C81.793 53.0123 81.5928 53.109 81.4169 53.211C81.2608 53.3037 81.1063 53.4311 81.0631 53.6131C81.0541 53.6479 81.0497 53.6852 81.0505 53.7251" stroke="#F7C340" stroke-width="0.5" stroke-miterlimit="10"/>
<path d="M84.0481 50.8933C83.9602 51.2014 83.9052 51.4787 83.9569 51.7935" stroke="#F7C340" stroke-width="0.5" stroke-miterlimit="10"/>
<path d="M82.6837 52.4114C82.9869 52.4114 83.7401 52.4956 84.0518 52.331C84.0601 52.3265 84.0683 52.3224 84.0766 52.317" stroke="#F7C340" stroke-width="0.5" stroke-miterlimit="10"/>
<path d="M85.5364 42.325V42.3258C85.6097 42.5008 85.6895 42.872 85.7488 43.0473C85.8206 43.2571 85.9201 43.4158 86.0204 43.6084C86.2192 43.988 86.0279 44.4025 85.8368 44.7384C85.6309 45.1007 85.4841 45.4344 85.4069 45.8527C85.3313 46.2566 85.2249 46.6538 85.1908 47.0656C85.1543 47.4922 85.176 47.9223 85.1677 48.3508C85.1595 48.7645 85.209 49.1789 85.2293 49.5918C85.2516 50.0627 85.2606 50.5414 85.3448 51.005C85.417 51.41 85.5814 51.8185 85.5581 52.2357C85.5564 52.2651 85.5537 52.2949 85.5506 52.324C85.53 52.4914 85.3945 52.6024 85.3522 52.7655C85.3197 52.8905 85.328 53.4081 85.3305 53.6136C85.3313 53.6363 85.3313 53.6544 85.3313 53.6684" stroke="#F7C340" stroke-width="0.5" stroke-miterlimit="10"/>
<path d="M87.6661 49.5762C87.593 49.7989 87.5309 49.9887 87.4869 50.1259C87.3781 50.465 87.2593 50.8082 87.1081 51.1403C86.9753 51.4336 86.7824 51.7163 86.723 52.0397C86.7087 52.1186 86.7046 52.1818 86.7103 52.2331C86.737 52.4863 86.9828 52.4542 87.2288 52.5844C87.4031 52.6772 87.5378 52.7056 87.6147 52.8039" stroke="#F7C340" stroke-width="0.5" stroke-miterlimit="10"/>
<path d="M89.0156 42.2678C89.0156 42.2738 89.0156 42.28 89.0156 42.2859C89.0181 42.9569 89.1517 43.8352 89.0901 44.5014C89.0634 44.7927 88.9587 45.02 88.9002 45.2965C88.8402 45.5773 88.8023 45.866 88.7424 46.1541C88.6868 46.4211 88.4334 47.2241 88.1635 48.0585" stroke="#F7C340" stroke-width="0.5" stroke-miterlimit="10"/>
<path d="M85.5552 52.2355C85.556 52.2355 85.5577 52.2355 85.5585 52.2355C85.8128 52.2363 86.4719 52.3819 86.6863 52.2355" stroke="#F7C340" stroke-width="0.5" stroke-miterlimit="10"/>
<path d="M59.984 35.2178V35.2465H41.9612V35.2178V6.34649V6.25712C41.9612 -0.65756 59.984 -0.93405 59.984 6.25712V35.2178Z" fill="#F7C340"/>
<path d="M59.5772 36.634H56.441V53.6133H59.5772V36.634Z" fill="#F7C340"/>
<path d="M55.9035 36.634H52.7865V53.6133H55.9035V36.634Z" fill="#F7C340"/>
<path d="M52.2893 36.634H49.2702V53.6133H52.2893V36.634Z" fill="#F7C340"/>
<path d="M48.6746 36.634H45.6159V53.6133H48.6746V36.634Z" fill="#F7C340"/>
<path d="M44.9421 36.634H42.1V53.6133H44.9421V36.634Z" fill="#F7C340"/>
<path d="M41.9612 6.25712C41.9612 -0.65756 59.984 -0.934051 59.984 6.25712V35.2178" stroke="#F7C340" stroke-width="0.5" stroke-miterlimit="10"/>
<path d="M41.9612 6.3465V35.2178" stroke="#F7C340" stroke-width="0.5" stroke-miterlimit="10"/>
<path d="M36.5496 56H65.6229V53.6133" stroke="#F7C340" stroke-width="0.5" stroke-miterlimit="10"/>
<path d="M65.6229 53.6133H64.318" stroke="#F7C340" stroke-width="0.5" stroke-miterlimit="10"/>
<path d="M64.318 53.6133V36.6254" stroke="#F7C340" stroke-width="0.5" stroke-miterlimit="10"/>
<path d="M64.318 36.6254H65.2655" stroke="#F7C340" stroke-width="0.5" stroke-miterlimit="10"/>
<path d="M65.2654 36.6254V35.2465" stroke="#F7C340" stroke-width="0.5" stroke-miterlimit="10"/>
<path d="M65.2655 35.2465H59.984H41.9612H36.6468" stroke="#F7C340" stroke-width="0.5" stroke-miterlimit="10"/>
<path d="M36.6468 35.2465V36.634" stroke="#F7C340" stroke-width="0.5" stroke-miterlimit="10"/>
<path d="M36.6468 36.634H37.8909" stroke="#F7C340" stroke-width="0.5" stroke-miterlimit="10"/>
<path d="M37.891 36.634V53.6133" stroke="#F7C340" stroke-width="0.5" stroke-miterlimit="10"/>
<path d="M37.8909 53.6133H36.5088" stroke="#F7C340" stroke-width="0.5" stroke-miterlimit="10"/>
<path d="M36.5088 53.6133V56" stroke="#F7C340" stroke-width="0.5" stroke-miterlimit="10"/>
<path d="M41.4457 36.634H38.4456V53.6133H41.4457V36.634Z" stroke="#F7C340" stroke-width="0.5" stroke-miterlimit="10"/>
<path d="M44.9421 36.634H42.1V53.6133H44.9421V36.634Z" stroke="#F7C340" stroke-width="0.5" stroke-miterlimit="10"/>
<path d="M48.6746 36.634H45.6159V53.6133H48.6746V36.634Z" stroke="#F7C340" stroke-width="0.5" stroke-miterlimit="10"/>
<path d="M52.2893 36.634H49.2702V53.6133H52.2893V36.634Z" stroke="#F7C340" stroke-width="0.5" stroke-miterlimit="10"/>
<path d="M55.9036 36.634H52.7867V53.6133H55.9036V36.634Z" stroke="#F7C340" stroke-width="0.5" stroke-miterlimit="10"/>
<path d="M59.5772 36.634H56.441V53.6133H59.5772V36.634Z" stroke="#F7C340" stroke-width="0.5" stroke-miterlimit="10"/>
<path d="M63.7496 36.634H60.1774V53.6133H63.7496V36.634Z" stroke="#F7C340" stroke-width="0.5" stroke-miterlimit="10"/>
<path d="M48.6713 50.8933C48.5833 51.2014 48.5284 51.4787 48.5798 51.7935" stroke="#F7C340" stroke-width="0.5" stroke-miterlimit="10"/>
<path d="M24.4752 35.2178V35.2465H6.45239V35.2178V6.34649V6.25712C6.45239 -0.65756 24.4752 -0.93405 24.4752 6.25712V35.2178Z" fill="#F7C340"/>
<path d="M24.0684 36.634H20.9322V53.6133H24.0684V36.634Z" fill="#F7C340"/>
<path d="M20.3949 36.634H17.2779V53.6133H20.3949V36.634Z" fill="#F7C340"/>
<path d="M16.7802 36.634H13.7614V53.6133H16.7802V36.634Z" fill="#F7C340"/>
<path d="M13.1658 36.634H10.1071V53.6133H13.1658V36.634Z" fill="#F7C340"/>
<path d="M9.43332 36.634H6.59125V53.6133H9.43332V36.634Z" fill="#F7C340"/>
<path d="M6.45239 6.25712C6.45239 -0.65756 24.4752 -0.934051 24.4752 6.25712V35.2178" stroke="#F7C340" stroke-width="0.5" stroke-miterlimit="10"/>
<path d="M6.45239 6.3465V35.2178" stroke="#F7C340" stroke-width="0.5" stroke-miterlimit="10"/>
<path d="M1.04053 56H30.1139V53.6133" stroke="#F7C340" stroke-width="0.5" stroke-miterlimit="10"/>
<path d="M30.1141 53.6133H28.8092" stroke="#F7C340" stroke-width="0.5" stroke-miterlimit="10"/>
<path d="M28.8092 53.6133V36.6254" stroke="#F7C340" stroke-width="0.5" stroke-miterlimit="10"/>
<path d="M28.8092 36.6254H29.7568" stroke="#F7C340" stroke-width="0.5" stroke-miterlimit="10"/>
<path d="M29.7567 36.6254V35.2465" stroke="#F7C340" stroke-width="0.5" stroke-miterlimit="10"/>
<path d="M29.7567 35.2465H24.4753H6.45243H1.138" stroke="#F7C340" stroke-width="0.5" stroke-miterlimit="10"/>
<path d="M1.138 35.2465V36.634" stroke="#F7C340" stroke-width="0.5" stroke-miterlimit="10"/>
<path d="M1.138 36.634H2.38215" stroke="#F7C340" stroke-width="0.5" stroke-miterlimit="10"/>
<path d="M2.3822 36.634V53.6133" stroke="#F7C340" stroke-width="0.5" stroke-miterlimit="10"/>
<path d="M2.38213 53.6133H1" stroke="#F7C340" stroke-width="0.5" stroke-miterlimit="10"/>
<path d="M1 53.6133V56" stroke="#F7C340" stroke-width="0.5" stroke-miterlimit="10"/>
<path d="M5.93715 36.634H2.93701V53.6133H5.93715V36.634Z" stroke="#F7C340" stroke-width="0.5" stroke-miterlimit="10"/>
<path d="M9.43332 36.634H6.59125V53.6133H9.43332V36.634Z" stroke="#F7C340" stroke-width="0.5" stroke-miterlimit="10"/>
<path d="M13.1658 36.634H10.1071V53.6133H13.1658V36.634Z" stroke="#F7C340" stroke-width="0.5" stroke-miterlimit="10"/>
<path d="M16.7802 36.634H13.7614V53.6133H16.7802V36.634Z" stroke="#F7C340" stroke-width="0.5" stroke-miterlimit="10"/>
<path d="M20.3949 36.634H17.2779V53.6133H20.3949V36.634Z" stroke="#F7C340" stroke-width="0.5" stroke-miterlimit="10"/>
<path d="M24.0684 36.634H20.9322V53.6133H24.0684V36.634Z" stroke="#F7C340" stroke-width="0.5" stroke-miterlimit="10"/>
<path d="M28.2409 36.634H24.6696V53.6133H28.2409V36.634Z" stroke="#F7C340" stroke-width="0.5" stroke-miterlimit="10"/>
</svg>
