<svg width="271" height="414" viewBox="0 0 271 414" fill="none" xmlns="http://www.w3.org/2000/svg">
<path d="M240.601 359.854V368.119C239.399 366.922 236.969 365.563 234.443 364.32C236.261 362.455 238.348 361.005 240.601 359.854Z" fill="white"/>
<path d="M240.601 23.5936H192.26V69.8739H240.601V23.5936Z" fill="white"/>
<path d="M205.886 368.119H64.2814V367.473C67.4139 367.473 70.5262 367.306 73.4667 366.569C79.5044 365.063 85.8704 362.056 91.1603 358.929C94.5707 356.923 98.4055 355.276 101.508 352.76C104.271 350.517 106.51 347.738 109.278 345.429C115.503 340.24 121.106 334.243 127.22 328.897C129.665 326.76 132.322 324.512 134.93 322.47C137.491 320.46 139.007 318.06 141.609 316.402C144.272 320.884 151.395 323.784 155.771 326.542C163.385 331.357 170.66 336.723 177.678 342.402C180.351 344.564 183.403 346.651 185.787 349.097C186.545 349.875 186.465 351.087 187.945 350.855C188.769 350.728 190.163 348.894 190.653 348.283C191.325 347.459 192.048 346.701 192.811 345.979L192.826 345.994C194.033 349.545 200.758 351.794 202.87 355.007C204.83 358 204.86 364.689 205.886 368.119Z" fill="white"/>
<path d="M181.978 23.5936H83.2482V69.8739H181.978V23.5936Z" fill="white"/>
<path d="M123.107 187.227C123.329 186.696 123.496 186.085 123.612 185.322C124.35 180.436 124.855 176.617 122.652 172.201C120.661 168.225 117.862 163.041 114.412 160.373C111.001 157.741 106.57 155.401 102.842 155.881C101.877 152.143 100.876 146.469 100.654 142.457C97.0414 142.614 95.7833 148.182 94.985 151.087C93.9341 149.556 92.9034 147.358 91.5544 145.711C91.4028 148.778 90.0993 156.912 91.5797 159.757C91.6504 159.898 91.7414 160.045 91.8475 160.196L91.5948 160.439C90.3065 161.197 90.261 161.283 88.9019 162.177C86.8102 163.561 83.2533 169.139 81.7072 171.024C79.5347 173.656 78.4332 178.617 78.1048 181.846C77.0388 192.375 78.0139 197.241 69.7127 202.803C69.0206 203.268 68.2627 203.733 67.4341 204.213C57.5414 209.907 48.9169 213.146 41.8536 222.583C35.7856 230.692 30.9252 241.358 27.727 250.761C24.6501 259.8 23.5992 275.907 23.5992 285.855V77.0736H240.601V345.994V346C238.838 346.046 237.09 346.015 235.443 345.762C232.265 345.262 228.152 343.024 225.686 341.382L224.297 341.336C226.585 339.517 230.608 336.339 229.526 334.237C228.885 332.984 225.995 331.863 224.716 330.963C222.922 329.7 221.048 328.493 219.274 327.21C210.842 321.086 202.515 315.074 194.19 308.92C187.318 303.842 180.942 298.194 174.49 292.56C171.353 289.816 169.695 285.881 166.634 283.203C164.774 281.581 162.319 280.424 160.323 278.913C158.479 277.524 149.577 270.228 145.065 267.328C144.261 266.357 143.766 265.413 143.923 264.62C145.282 262.65 146.601 260.624 147.849 258.608C149.162 256.475 149.758 253.783 151.128 251.62C151.406 251.175 151.724 250.751 152.083 250.363C156.695 245.37 166.31 243.602 170.595 237.782C172.424 238.206 174.172 238.479 175.718 238.474C178.189 230.921 185.475 223.236 191.017 217.941C195.983 213.201 203.218 210.296 208.16 205.714C200.788 205.259 193.473 206.482 186.111 206.659C179.502 206.816 177.597 203.768 171.807 201.142C167.022 198.974 161.712 197.762 157.372 195.008C157.362 205.431 146.302 215.566 136.92 223.619C133.782 226.312 130.826 228.778 128.543 230.935C129.71 231.88 132.261 231.981 133.989 231.668C133.368 236.164 134.126 241.055 131.994 245.117C131.903 245.294 131.807 245.466 131.706 245.643C128.573 250.988 121.429 254.459 116.558 257.92C111.274 261.669 104.973 267.985 99.1881 270.936C99.1881 259.669 98.8344 248.927 97.6572 238.024C97.1368 233.163 95.414 228.788 94.55 224.099C94.2974 222.735 94.2822 221.613 94.3984 220.613C94.7521 217.688 96.288 215.844 96.6164 212.312C98.7688 213.398 103.432 212.731 105.413 211.605C108.202 210.023 108.611 207.724 110.213 205.39C112.744 206.239 115.841 208.032 117.2 204.667C117.933 202.843 117.498 199.847 117.7 197.857C117.958 195.27 118.554 193.026 120.282 190.97C121.525 189.486 122.506 188.662 123.107 187.227Z" fill="white"/>
<path d="M72.9614 23.5936H23.5992V69.8739H72.9614V23.5936Z" fill="white"/>
<path d="M23.5992 368.119V327.336H23.8568C23.9377 327.826 24.0438 329.963 24.165 331.686C24.2307 332.731 24.3015 333.626 24.3722 333.924C26.6205 343.958 35.0631 353.744 42.3841 360.626C45.7945 363.825 51.8019 367.352 56.3086 367.352C58.9207 367.352 61.6086 367.473 64.2814 367.473V368.119H23.5992Z" fill="white"/>
<path d="M181.978 23.5936H83.2482" stroke="white" stroke-width="4" stroke-miterlimit="10"/>
<path d="M240.601 23.5936H192.26" stroke="white" stroke-width="4" stroke-miterlimit="10"/>
<path d="M9.19972 23.5936H2V2H262.195V23.5936H254.996" stroke="white" stroke-width="4" stroke-miterlimit="10"/>
<path d="M72.9614 23.5936H23.5992" stroke="white" stroke-width="4" stroke-miterlimit="10"/>
<path d="M23.5992 368.119H64.2814H205.886H240.601" stroke="white" stroke-width="4" stroke-miterlimit="10"/>
<path d="M16.3994 392.806H2V368.119H9.19972" stroke="white" stroke-width="4" stroke-miterlimit="10"/>
<path d="M222.084 392.806H46.229" stroke="white" stroke-width="4" stroke-miterlimit="10"/>
<path d="M254.996 368.119H262.195V392.806H251.914" stroke="white" stroke-width="4" stroke-miterlimit="10"/>
<path d="M254.996 368.119V355.786" stroke="white" stroke-width="4" stroke-miterlimit="10"/>
<path d="M240.601 358.869V359.854V368.119" stroke="white" stroke-width="4" stroke-miterlimit="10"/>
<path d="M240.601 77.0736V345.994" stroke="white" stroke-width="4" stroke-miterlimit="10"/>
<path d="M240.601 23.5936V69.8739" stroke="white" stroke-width="4" stroke-miterlimit="10"/>
<path d="M254.996 345.742V23.5936" stroke="white" stroke-width="4" stroke-miterlimit="10"/>
<path d="M9.19972 23.5936V368.119" stroke="white" stroke-width="4" stroke-miterlimit="10"/>
<path d="M23.5992 70.9V69.8739V23.5936" stroke="white" stroke-width="4" stroke-miterlimit="10"/>
<path d="M23.5992 368.119V327.336V285.856V77.0736V75.0122" stroke="white" stroke-width="4" stroke-miterlimit="10"/>
<path d="M72.9615 23.5936V69.8739" stroke="white" stroke-width="4" stroke-miterlimit="10"/>
<path d="M83.2482 23.5936V69.8739" stroke="white" stroke-width="4" stroke-miterlimit="10"/>
<path d="M181.978 23.5936V69.8739" stroke="white" stroke-width="4" stroke-miterlimit="10"/>
<path d="M192.26 23.5936V69.8739" stroke="white" stroke-width="4" stroke-miterlimit="10"/>
<path d="M83.2482 69.8738H181.978" stroke="white" stroke-width="4" stroke-miterlimit="10"/>
<path d="M192.26 69.8738H240.601" stroke="white" stroke-width="4" stroke-miterlimit="10"/>
<path d="M72.9614 69.8738H23.5992" stroke="white" stroke-width="4" stroke-miterlimit="10"/>
<path d="M240.601 77.0736H23.5992" stroke="white" stroke-width="4" stroke-miterlimit="10"/>
<path d="M23.5992 285.856C23.5992 275.908 24.6501 259.8 27.727 250.762C30.9252 241.359 35.7856 230.693 41.8536 222.584C48.9169 213.146 57.5414 209.907 67.4341 204.213C68.2627 203.734 69.0206 203.269 69.7127 202.803C78.0139 197.241 77.0388 192.375 78.1048 181.846C78.4332 178.618 79.5347 173.656 81.7072 171.024C83.2533 169.14 86.8102 163.562 88.9019 162.177C90.261 161.283 90.3065 161.197 91.5948 160.439" stroke="white" stroke-width="4" stroke-miterlimit="10"/>
<path d="M147.525 248.821C147.525 247.937 147.515 247.073 147.505 246.24C147.394 237.094 147.131 230.936 156.589 225.812C157.014 229.49 155.766 233.144 156.332 236.801C158.388 237.039 160.929 236.534 162.945 235.528C163.309 235.351 163.657 235.149 163.981 234.937" stroke="white" stroke-width="4" stroke-miterlimit="10"/>
<path d="M99.1886 270.936C99.1886 259.669 98.835 248.927 97.6577 238.025C97.1373 233.164 95.4144 228.789 94.5505 224.1C94.2979 222.735 94.2827 221.614 94.3989 220.613C94.7526 217.688 96.2885 215.844 96.6169 212.312" stroke="white" stroke-width="4" stroke-miterlimit="10"/>
<path d="M133.995 231.669H133.99C132.262 231.981 129.71 231.881 128.543 230.936C130.827 228.778 133.783 226.313 136.92 223.62C146.303 215.567 157.362 205.431 157.372 195.008C161.713 197.762 167.023 198.974 171.807 201.142C177.597 203.769 179.502 206.816 186.111 206.659C193.473 206.482 200.789 205.259 208.16 205.715C203.219 210.297 195.984 213.202 191.017 217.942C185.475 223.236 178.189 230.921 175.718 238.475C174.172 238.48 172.424 238.207 170.595 237.782C168.089 237.206 165.437 236.348 162.945 235.529C161.102 234.923 159.343 234.342 157.807 233.912" stroke="white" stroke-width="4" stroke-miterlimit="10"/>
<path d="M141.872 233.911C141.872 232.244 142.842 226.009 141.907 224.63C140.422 222.442 138.774 222.897 137.415 224.196C136.415 225.151 135.571 226.561 135.056 227.718C134.495 228.976 134.177 230.304 133.99 231.669C133.368 236.165 134.126 241.056 131.994 245.118C131.903 245.295 131.807 245.466 131.706 245.643C128.574 250.989 121.429 254.46 116.559 257.921C111.274 261.67 104.974 267.985 99.1886 270.936" stroke="white" stroke-width="4" stroke-miterlimit="10"/>
<path d="M96.6169 212.312C98.7693 213.398 103.433 212.731 105.413 211.605C108.202 210.023 108.611 207.724 110.213 205.39C112.744 206.24 115.841 208.033 117.201 204.668C117.933 202.844 117.499 199.848 117.701 197.857C117.958 195.27 118.555 193.027 120.283 190.971C121.525 189.485 122.506 188.662 123.107 187.227C123.329 186.696 123.496 186.085 123.612 185.322C124.35 180.436 124.855 176.617 122.652 172.201C120.661 168.225 117.862 163.041 114.412 160.373C111.001 157.741 106.57 155.401 102.842 155.881" stroke="white" stroke-width="4" stroke-miterlimit="10"/>
<path d="M170.923 237.317C170.816 237.474 170.71 237.63 170.595 237.782C166.31 243.602 156.695 245.371 152.083 250.363C151.724 250.752 151.406 251.175 151.128 251.62C149.758 253.783 149.162 256.475 147.849 258.608C146.601 260.624 145.282 262.65 143.923 264.62C143.569 265.135 143.211 265.651 142.852 266.156C142.336 266.883 141.821 267.596 141.301 268.298C136.46 274.811 131.059 281.596 124.916 286.855C120.288 290.832 117.489 296.38 112.573 299.926C108.364 302.967 103.842 306.418 98.4661 306.413C94.3686 306.408 91.6706 305.499 88.9019 303.806C87.6438 303.038 86.3656 302.109 84.9408 301.027C81.3536 298.309 77.9078 295.677 74.2498 293.045C72.5775 291.842 70.9001 290.816 69.3692 289.452C67.7979 288.043 59.4108 278.504 57.5919 277.579" stroke="white" stroke-width="4" stroke-miterlimit="10"/>
<path d="M146.757 246.249C144.62 247.684 142.493 249.154 140.376 250.656C131.009 257.284 121.798 264.474 112.608 271.249C109.258 273.724 103.988 279.752 99.7495 276.776C95.2174 273.588 92.9944 267.485 90.7056 262.695C88.4118 257.89 85.5824 253.242 82.7328 248.64C80.626 245.244 79.2972 240.248 76.5638 237.509" stroke="white" stroke-width="4" stroke-miterlimit="10"/>
<path d="M142.382 233.396C143.888 233.285 145.277 233.806 146.757 233.912" stroke="white" stroke-width="4" stroke-miterlimit="10"/>
<path d="M132.358 245.992C133.192 248.169 138.022 248.7 139.81 249.852" stroke="white" stroke-width="4" stroke-miterlimit="10"/>
<path d="M143.923 250.11C145.398 249.847 148.824 250.747 151.128 251.62C151.613 251.807 152.052 251.994 152.411 252.166" stroke="white" stroke-width="4" stroke-miterlimit="10"/>
<path d="M141.609 316.403C139.007 318.06 137.491 320.459 134.93 322.471C132.322 324.512 129.665 326.76 127.22 328.898C121.106 334.243 115.503 340.24 109.278 345.429C106.51 347.738 104.271 350.517 101.508 352.761C98.4055 355.276 94.5707 356.923 91.1603 358.93C85.8704 362.057 79.5043 365.063 73.4667 366.569C70.5262 367.307 67.4139 367.473 64.2814 367.473C61.6086 367.473 58.9207 367.352 56.3086 367.352C51.8018 367.352 45.7945 363.826 42.3841 360.627C35.0631 353.745 26.6205 343.959 24.3722 333.925C24.3014 333.627 24.2307 332.732 24.165 331.687C24.0438 329.964 23.9377 327.826 23.8568 327.336" stroke="white" stroke-width="4" stroke-miterlimit="10"/>
<path d="M143.923 264.621C143.766 265.414 144.261 266.358 145.065 267.329C146.793 269.405 149.945 271.572 151.208 272.487C154.063 274.568 155.882 276.716 157.817 279.692C161.905 285.982 167.684 290.605 172.777 295.799C179.527 302.691 184.342 311.058 190.46 318.434C193.108 321.623 195.352 325.103 198.186 328.14C200.505 330.641 203.091 332.763 205.133 335.476C201.758 339.624 196.781 342.232 192.81 345.98C192.047 346.703 191.325 347.461 190.652 348.284C190.162 348.896 188.768 350.73 187.944 350.856C186.464 351.088 186.544 349.876 185.786 349.098C183.402 346.653 180.35 344.566 177.677 342.404C170.659 336.725 163.384 331.359 155.77 326.544C151.394 323.785 144.27 320.885 141.608 316.404" stroke="white" stroke-width="4" stroke-miterlimit="10"/>
<path d="M69.8794 203.056C69.3489 208.124 79.2467 211.206 82.5762 213.268C86.3049 215.576 90.0286 218.451 93.7876 220.542" stroke="white" stroke-width="4" stroke-miterlimit="10"/>
<path d="M192.825 345.994C194.033 349.546 200.758 351.795 202.87 355.008C204.83 358 204.86 364.688 205.886 368.119" stroke="white" stroke-width="4" stroke-miterlimit="10"/>
<path d="M204.35 339.068C203.931 342.337 208.185 345.833 210.14 348.076C211.737 349.91 213.096 351.426 214.763 352.856C215.425 353.427 216.132 353.982 216.92 354.538C220.362 356.958 223.989 359.469 227.794 361.243C229.37 361.981 231.951 363.092 234.443 364.32C236.969 365.563 239.399 366.922 240.601 368.12" stroke="white" stroke-width="4" stroke-miterlimit="10"/>
<path d="M142.852 266.156C143.296 266.263 144.074 266.687 145.065 267.329C149.577 270.228 158.479 277.524 160.323 278.914C162.319 280.425 164.774 281.582 166.634 283.203C169.695 285.881 171.353 289.817 174.49 292.561C180.942 298.194 187.318 303.843 194.19 308.92C202.515 315.075 210.842 321.087 219.274 327.21C221.048 328.493 222.922 329.701 224.716 330.964C225.994 331.863 228.885 332.985 229.526 334.238C230.608 336.34 226.586 339.518 224.297 341.337C224.009 341.564 223.751 341.771 223.529 341.953C220.871 344.146 215.394 349.365 214.768 352.851" stroke="white" stroke-width="4" stroke-miterlimit="10"/>
<path d="M234.442 364.32C236.261 362.456 238.347 361.005 240.601 359.854C244.668 357.772 249.256 356.661 253.682 355.786C260.639 354.412 265.964 350.81 267.586 343.479C263.686 343.297 260.796 344.121 257.32 345.257C256.588 345.5 255.804 345.652 254.996 345.742C252.5 346.03 249.746 345.753 247.341 345.753C245.184 345.753 242.875 345.94 240.601 346.001C238.838 346.046 237.09 346.015 235.443 345.763C232.265 345.263 228.152 343.024 225.686 341.382" stroke="white" stroke-width="4" stroke-miterlimit="10"/>
<path d="M25.1402 331.61C33.4565 331.61 40.2874 329.205 48.2146 327.811C53.8178 326.826 59.143 326.663 64.3673 324.092C69.6016 321.51 75.0633 317.726 79.8277 314.24C83.0057 311.916 85.931 308.278 88.1339 304.873" stroke="white" stroke-width="4" stroke-miterlimit="10"/>
<path d="M16.3994 392.806V412" stroke="white" stroke-width="4" stroke-miterlimit="10"/>
<path d="M16.3994 412H46.229" stroke="white" stroke-width="4" stroke-miterlimit="10"/>
<path d="M46.229 412V392.806" stroke="white" stroke-width="4" stroke-miterlimit="10"/>
<path d="M222.084 392.806V412" stroke="white" stroke-width="4" stroke-miterlimit="10"/>
<path d="M222.084 412H251.914" stroke="white" stroke-width="4" stroke-miterlimit="10"/>
<path d="M251.914 412V392.806" stroke="white" stroke-width="4" stroke-miterlimit="10"/>
<path d="M102.842 155.881C101.877 152.143 100.876 146.469 100.654 142.457C97.0414 142.614 95.7833 148.182 94.985 151.087C93.9341 149.556 92.9034 147.358 91.5544 145.711C91.4028 148.778 90.0993 156.912 91.5797 159.757C91.6504 159.898 91.7414 160.045 91.8475 160.196C93.444 162.495 98.6935 166.249 100.841 167.487C109.925 172.711 117.352 177.961 123.107 187.227C123.188 187.363 123.274 187.495 123.354 187.631" stroke="white" stroke-width="4" stroke-miterlimit="10"/>
</svg>
