<svg width="378" height="415" viewBox="0 0 378 415" fill="none" xmlns="http://www.w3.org/2000/svg">
<path d="M253.955 257.083V365.687H235.474C247.99 346.033 251.608 321.49 249.229 298.641C248.609 292.676 247.664 286.288 245.578 280.648C243.199 274.325 240.917 268.72 236.452 261.809L236.419 261.646C239.418 261.19 242.253 260.082 244.959 258.909C249.881 256.757 248.675 258.713 250.858 254.215C251.869 255.193 252.88 256.106 253.89 257.018C253.922 257.051 253.922 257.051 253.955 257.083Z" fill="white"/>
<path d="M253.955 20.1875V68.264H242.155C231.627 38.9616 216.243 22.4693 215.265 20.1875H253.955Z" fill="white"/>
<path d="M172.404 286.679C181.366 287.429 192.384 295.708 187.788 306.204C185.474 311.451 179.999 313.407 174.62 313.537C170.97 313.635 164.124 314.58 160.8 313.016C163.702 307.345 166.016 301.446 168.656 295.546C169.991 292.579 171.23 289.613 172.404 286.679Z" fill="white"/>
<path d="M66.5366 174.13C67.6775 163.309 68.5902 152.488 68.5902 141.601L67.8077 141.503C68.0359 139.222 68.362 137.038 68.9814 135.082C55.8788 135.082 40.5589 141.862 31.4977 151.608V78.0426H114.125C128.76 95.6758 142.254 111.745 145.415 117.677C152.879 131.725 158.551 146.784 167.938 159.724C169.861 162.364 171.784 165.037 173.675 167.709C165.885 169.013 157.411 171.914 150.892 175.826C147.404 177.944 144.568 182.606 143.558 186.451C142.645 189.939 142.71 194.632 144.764 197.794C145.872 197.24 146.948 196.034 147.925 194.6L149.229 194.99C151.902 198.511 148.544 204.736 150.076 208.811C150.826 210.897 154.574 214.319 156.464 216.242C158.909 218.752 162.657 221.49 166.373 221.457C167.221 221.457 167.971 221.295 168.687 221.001L168.752 221.131C158.029 224.945 148.837 243.491 147.24 251.998C145.448 261.483 144.73 271.587 144.763 281.366C144.796 289.808 144.209 299.325 139.516 306.659C136.941 310.7 132.801 313.275 129.64 316.861C128.988 317.577 128.401 318.36 127.847 319.175C125.012 318.718 115.494 321.033 111.745 322.108C107.02 323.411 102.717 324.878 99.6206 329.083C94.9269 335.537 94.5357 350.922 98.4798 358.516C96.1007 360.83 93.4606 363.405 91.7976 365.687H85.2785L94.731 313.536H98.7073V292.35H90.754C90.95 285.798 91.2104 279.149 90.591 272.793C90.0366 266.991 86.1254 258.223 83.1592 253.009C81.3989 249.977 78.5957 247.565 75.4992 245.675C72.9242 244.078 67.8721 243.361 66.1118 241.405C65.0038 243.523 64.0911 245.74 63.3415 248.022L62.8852 247.859C62.7872 244.958 62.7221 242.056 62.657 239.156C63.2764 238.243 63.765 237.233 64.0911 236.124C65.7206 230.844 64.4824 227.095 62.4939 223.38C62.5268 220.284 62.6241 217.155 62.7871 214.058C66.0467 212.461 69.0781 210.538 71.4249 207.604C75.3039 202.813 78.4983 198.086 79.5734 192.122C80.1607 188.895 82.9961 176.02 78.7587 175.01C77.683 178.399 70.5773 179.833 65.8514 181.268L65.8192 181.17C66.0802 178.823 66.3085 176.509 66.536 174.162V174.13H66.5366ZM75.7287 158.844C78.5319 168.133 83.845 174.49 95.4484 176.543C105.129 178.238 116.896 183.616 126.804 182.182C124.784 177.879 121.459 174.294 119.177 170.187C116.961 166.146 114.679 161.256 110.572 158.714C105.064 155.324 98.4798 153.01 92.1889 151.771C86.257 150.598 79.9983 153.205 74.2624 153.01C74.6536 155.064 75.1428 156.986 75.7294 158.812C75.7287 158.811 75.7287 158.811 75.7287 158.844ZM113.668 261.191C114.776 255.259 112.462 247.012 111.321 241.113C109.92 233.714 107.345 227.227 103.988 220.643C101.021 214.776 95.4155 208.682 88.9615 206.758C84.3658 205.357 75.4999 203.01 76.3153 210.865C76.3475 219.796 80.2587 232.508 84.8551 239.776C87.6911 244.274 92.2868 248.153 96.6866 251.217C99.4898 253.173 102.88 253.988 105.65 255.585C108.42 257.182 110.8 259.822 113.668 261.191Z" fill="white"/>
<path d="M157.964 365.688H137.039C135.8 362.885 133.942 360.799 132.476 358.354C137.789 359.43 145.025 359.593 150.566 359.593C152.944 362.037 155.748 364.547 157.964 365.688Z" fill="white"/>
<path d="M106.041 68.264H94.2419V53.6621C97.9907 58.4209 102 63.3428 106.041 68.264Z" fill="white"/>
<path d="M82.8344 38.7993V68.2647H31.4984V20.1882H71.8498C72.6323 23.9035 76.8367 30.585 82.8344 38.7993Z" fill="white"/>
<path d="M66.5366 174.163C66.3084 176.51 66.0803 178.824 65.8199 181.171L65.8521 181.269C64.6461 181.628 63.6032 181.954 62.8536 182.346C57.8666 184.822 54.3467 187.886 51.3804 192.808C47.8276 198.61 44.8935 204.672 42.189 210.833C41.4716 212.496 40.1032 214.809 38.8315 217.287C38.8315 217.319 38.7993 217.319 38.7993 217.352C38.7993 217.384 38.7664 217.384 38.7664 217.417C37.2671 219.405 34.0076 221.002 31.4977 222.502V198.968C37.4295 194.731 38.3751 191.667 43.1017 186.419C48.1538 180.78 64.8743 164.549 66.4393 157.183C67.4493 152.457 67.2869 146.752 67.8084 141.505L68.5908 141.603C68.5908 152.489 67.6781 163.311 66.5373 174.132V174.163H66.5366Z" fill="white"/>
<path d="M63.8314 282.507C64.5159 284.462 65.2655 286.386 66.146 288.243C66.7976 289.645 67.5473 291.014 68.362 292.351H43.1339L42.8077 291.861C42.9057 291.763 43.0359 291.698 43.1339 291.633C48.3819 288.113 49.4248 284.169 51.8039 278.562C55.2587 270.316 57.9317 260.701 57.5727 251.183C48.7074 253.041 39.222 265.036 35.5068 272.369C33.8116 275.759 32.6056 278.953 31.4977 282.343V251.313C36.745 250.14 41.9279 248.803 47.078 247.826C52.6515 246.783 59.3987 244.208 62.6576 239.156C62.7227 242.056 62.7878 244.958 62.8858 247.859L63.3422 248.022C59.7249 259.039 60.1813 271.621 63.8314 282.507Z" fill="white"/>
<path d="M33.323 313.537L41.5367 365.688H31.4977V313.537H33.323Z" fill="white"/>
<path d="M85.2786 365.688H91.7977H107.41H137.039H157.964H235.473H253.955V257.083" stroke="white" stroke-width="4" stroke-miterlimit="10"/>
<path d="M31.4977 298.902V313.537V365.688H41.5367" stroke="white" stroke-width="4" stroke-miterlimit="10"/>
<path d="M31.4977 251.315V282.344" stroke="white" stroke-width="4" stroke-miterlimit="10"/>
<path d="M265.623 266.829V365.949H272.142V384.984H258.029V407.801H228.694V387.135H55.9439V407.801H25.5329V387.135H12.4953V367.579H19.0144V253.694" stroke="white" stroke-width="4" stroke-miterlimit="10"/>
<path d="M19.0144 253.694V253.172" stroke="white" stroke-width="4" stroke-miterlimit="10"/>
<path d="M31.4977 151.608V78.0427H114.125" stroke="white" stroke-width="4" stroke-miterlimit="10"/>
<path d="M265.623 158.094V19.9271H272.142V1.99994H12.4953V19.9271H19.0144V192.97" stroke="white" stroke-width="4" stroke-miterlimit="10"/>
<path d="M265.623 159.072V158.094" stroke="white" stroke-width="4" stroke-miterlimit="10"/>
<path d="M19.0144 234.072V205.454" stroke="white" stroke-width="4" stroke-miterlimit="10"/>
<path d="M31.4977 198.968V222.501" stroke="white" stroke-width="4" stroke-miterlimit="10"/>
<path d="M19.0144 234.072V234.235V234.659" stroke="white" stroke-width="4" stroke-miterlimit="10"/>
<path d="M253.955 257.085V257.019" stroke="white" stroke-width="4" stroke-miterlimit="10"/>
<path d="M31.4977 251.315V251.054" stroke="white" stroke-width="4" stroke-miterlimit="10"/>
<path d="M31.4977 223.381V222.501" stroke="white" stroke-width="4" stroke-miterlimit="10"/>
<path d="M31.4977 198.968V197.827" stroke="white" stroke-width="4" stroke-miterlimit="10"/>
<path d="M245.349 78.0427H253.955V114.809" stroke="white" stroke-width="4" stroke-miterlimit="10"/>
<path d="M82.8343 38.7993C76.8367 30.5856 72.6322 23.9035 71.8497 20.1882" stroke="white" stroke-width="4" stroke-miterlimit="10"/>
<path d="M94.2424 53.662C97.9905 58.4208 102 63.3427 106.042 68.2639" stroke="white" stroke-width="4" stroke-miterlimit="10"/>
<path d="M215.265 20.1875C216.243 22.4693 231.627 38.9623 242.155 68.264" stroke="white" stroke-width="4" stroke-miterlimit="10"/>
<path d="M31.4977 151.608C40.5589 141.862 55.8782 135.083 68.9815 135.083C68.3621 137.039 68.0366 139.222 67.8077 141.504C67.2863 146.751 67.4494 152.456 66.4387 157.182C64.8737 164.548 48.1531 180.78 43.1011 186.418C38.3752 191.666 37.4296 194.731 31.497 198.967C30.5521 199.62 29.4763 200.336 28.2375 201.086C25.5322 202.683 22.2727 205.03 19.0132 205.454C18.426 205.552 17.8394 205.551 17.2858 205.519C17.0898 201.64 18.0025 197.24 19.0132 192.97C19.893 189.254 20.8715 185.637 21.3271 182.442C22.8922 171.197 22.9243 161.386 30.6494 152.52C30.9111 152.228 31.2044 151.902 31.4977 151.608Z" stroke="white" stroke-width="4" stroke-miterlimit="10"/>
<path d="M75.7288 158.811C75.1422 156.986 74.653 155.063 74.2617 153.009C79.9983 153.205 86.2564 150.598 92.1882 151.771C98.4792 153.009 105.063 155.323 110.572 158.713C114.679 161.256 116.961 166.145 119.177 170.186C121.458 174.293 124.783 177.879 126.804 182.181C116.895 183.615 105.128 178.237 95.4478 176.542C83.8444 174.489 78.5313 168.133 75.7281 158.843C75.7287 158.811 75.7288 158.811 75.7288 158.811Z" stroke="white" stroke-width="4" stroke-miterlimit="10"/>
<path d="M113.668 261.191C110.8 259.822 108.421 257.182 105.65 255.584C102.879 253.987 99.4892 253.172 96.6867 251.217C92.2862 248.153 87.6906 244.274 84.8551 239.776C80.2594 232.507 76.3482 219.796 76.3153 210.865C75.5006 203.009 84.3659 205.356 88.9616 206.758C95.4156 208.681 101.021 214.776 103.988 220.643C107.344 227.227 109.919 233.713 111.321 241.112C112.463 247.012 114.777 255.259 113.668 261.191Z" stroke="white" stroke-width="4" stroke-miterlimit="10"/>
<path d="M38.7662 217.416C38.7662 217.384 38.7991 217.384 38.7991 217.351C38.7991 217.318 38.8313 217.318 38.8313 217.286C40.1031 214.809 41.4714 212.494 42.1888 210.832C44.8941 204.671 47.8275 198.609 51.3803 192.807C54.3459 187.885 57.8665 184.822 62.8535 182.345C63.6031 181.953 64.646 181.628 65.8519 181.268C70.5779 179.834 77.6835 178.401 78.7593 175.01C82.9966 176.021 80.1606 188.895 79.574 192.123C78.4982 198.087 75.3044 202.814 71.4255 207.605C69.0786 210.538 66.0473 212.461 62.7877 214.058" stroke="white" stroke-width="4" stroke-miterlimit="10"/>
<path d="M84.627 313.537C82.0191 310.017 78.3361 306.497 76.7395 304.248C73.9692 300.467 70.8721 296.523 68.3628 292.351C67.5481 291.014 66.7985 289.645 66.1468 288.243C65.2664 286.386 64.5167 284.462 63.8322 282.507C60.1821 271.62 59.725 259.039 63.3429 248.022C64.0926 245.74 65.0053 243.524 66.1133 241.406C67.8736 243.361 72.9256 244.078 75.5007 245.675C78.5971 247.565 81.4003 249.978 83.1606 253.009C86.1262 258.224 90.0381 266.992 90.5924 272.794C91.2112 279.15 90.9508 285.799 90.7555 292.351C90.6575 295.317 90.5596 298.25 90.5596 301.118C90.5596 304.964 90.7555 308.876 90.1683 312.624C90.1361 312.95 90.0703 313.243 90.0052 313.537" stroke="white" stroke-width="4" stroke-miterlimit="10"/>
<path d="M31.4977 282.345C32.6056 278.954 33.8116 275.76 35.5068 272.371C39.2227 265.037 48.7074 253.042 57.5727 251.185C57.9317 260.702 55.2587 270.318 51.8039 278.564C49.4242 284.17 48.3813 288.113 43.1339 291.635C43.0359 291.7 42.9057 291.765 42.8077 291.863C39.0267 294.372 35.2458 296.524 31.4977 298.903C30.3239 299.652 29.1508 300.402 27.9777 301.217C26.9999 296.98 29.0206 290.754 30.1615 286.746C30.6178 285.212 31.042 283.779 31.4977 282.345Z" stroke="white" stroke-width="4" stroke-miterlimit="10"/>
<path d="M62.4952 223.381C64.4837 227.097 65.7219 230.845 64.0925 236.126C63.7663 237.234 63.2778 238.244 62.6583 239.157C59.3995 244.209 52.6522 246.784 47.0787 247.827C41.9286 248.805 36.7464 250.141 31.4983 251.315C27.359 252.26 23.1867 253.14 19.0145 253.694C15.3637 254.183 11.7135 254.411 8.09496 254.281C6.43264 254.215 2.03221 254.248 2 251.771C2 249.816 5.97628 247.469 7.21514 246.393C11.5176 242.677 15.2006 238.309 19.0145 234.073C22.3062 230.39 25.6638 226.771 29.575 223.773C30.0964 223.349 30.7809 222.924 31.4983 222.501C34.0083 221.002 37.2678 219.405 38.767 217.416C36.8443 221.035 35.084 224.946 35.6384 227.553C41.6031 223.543 48.2195 220.806 54.7057 217.709C55.8795 217.156 57.1177 216.601 58.3237 216.079C59.8229 215.428 61.3222 214.776 62.7892 214.058C62.6255 217.156 62.5281 220.284 62.4952 223.381Z" stroke="white" stroke-width="4" stroke-miterlimit="10"/>
<path d="M62.4952 223.382C61.2564 221.1 59.7249 218.818 58.3881 216.179" stroke="white" stroke-width="4" stroke-miterlimit="10"/>
<path d="M33.3231 313.538H31.4977" stroke="white" stroke-width="4" stroke-miterlimit="10"/>
<path d="M85.9631 313.538H84.6269" stroke="white" stroke-width="4" stroke-miterlimit="10"/>
<path d="M90.7546 292.351H98.7072V313.538H94.731" stroke="white" stroke-width="4" stroke-miterlimit="10"/>
<path d="M43.1339 292.351H68.362" stroke="white" stroke-width="4" stroke-miterlimit="10"/>
<path d="M94.7311 313.538L85.2786 365.688H41.5368L33.3232 313.538H84.627C86.4524 316.08 87.7563 318.655 87.2993 320.741C88.2771 318.035 89.418 316.243 90.0045 313.538H94.7311V313.538Z" stroke="white" stroke-width="4" stroke-miterlimit="10"/>
<path d="M89.2226 313.538H89.842H90.0051" stroke="white" stroke-width="4" stroke-miterlimit="10"/>
<path d="M63.8314 281.757C63.8314 282.018 63.8314 282.247 63.8314 282.507C63.8643 285.864 63.6683 289.092 62.8536 291.927" stroke="white" stroke-width="4" stroke-miterlimit="10"/>
<path d="M62.6582 239.157C62.7233 242.058 62.7884 244.96 62.8864 247.86" stroke="white" stroke-width="4" stroke-miterlimit="10"/>
<path d="M66.5366 174.163C66.3084 176.51 66.0803 178.824 65.8199 181.171" stroke="white" stroke-width="4" stroke-miterlimit="10"/>
<path d="M68.5902 141.601C68.5902 152.488 67.6775 163.31 66.5366 174.13" stroke="white" stroke-width="4" stroke-miterlimit="10"/>
<path d="M75.8911 211.288C73.0557 216.667 70.3505 222.371 68.1667 227.977C66.6017 231.953 65.2005 237.69 62.8536 241.015" stroke="white" stroke-width="4" stroke-miterlimit="10"/>
<path d="M65.7218 175.826C65.9499 175.271 66.211 174.718 66.5365 174.163V174.131C69.2746 169.372 74.7501 164.287 75.7279 158.844" stroke="white" stroke-width="4" stroke-miterlimit="10"/>
<path d="M75.8911 156.66C75.924 157.377 75.8911 158.095 75.7281 158.811" stroke="white" stroke-width="4" stroke-miterlimit="10"/>
<path d="M242.286 68.6553C242.254 68.5251 242.188 68.3942 242.156 68.264" stroke="white" stroke-width="4" stroke-miterlimit="10"/>
<path d="M173.674 167.71C171.784 165.038 169.86 162.365 167.938 159.725C158.55 146.784 152.879 131.726 145.415 117.678C142.253 111.746 128.759 95.6766 114.124 78.0433H245.349C247.599 85.5724 249.587 93.8519 251.054 102.945C252.781 113.474 259.137 137.919 265.623 158.095C268.72 167.776 271.849 176.446 274.522 182.15C280.454 194.862 288.44 206.465 296.165 218.134C304.574 230.78 313.374 243.199 324.13 253.988C340.819 270.774 359.071 286.777 368.85 308.844C371.882 315.688 374.619 321.23 374.946 328.922C375.239 334.887 375.207 341.177 374.554 347.045C372.957 361.321 368.72 373.055 362.592 385.767C360.115 390.884 357.149 396.229 354.118 400.923C351.575 404.801 350.239 408.55 348.055 412.494C343.557 411.842 339.939 409.267 336.256 406.887C327.553 401.216 317.938 397.011 308.942 391.894C298.805 386.092 304.053 383.191 307.019 374.228C308.486 369.795 309.496 365.199 309.92 360.538C311.126 347.012 306.139 333.876 301.413 321.426C296.621 308.812 291.276 296.263 283.616 285.116C278.694 277.944 272.273 272.273 265.623 266.83V266.797C261.712 263.57 257.735 260.409 253.954 257.084C253.921 257.051 253.921 257.051 253.889 257.018C252.879 256.106 251.868 255.193 250.857 254.215" stroke="white" stroke-width="4" stroke-miterlimit="10"/>
<path d="M250.858 254.215C248.674 258.713 249.88 256.757 244.958 258.909C242.254 260.082 239.417 261.19 236.418 261.646C234.951 261.875 233.485 261.94 231.953 261.809C222.924 260.962 216.764 256.04 211.256 249.163C206.073 242.709 203.824 235.179 197.794 229.182C194.209 225.597 190.754 221.457 187.918 217.025C185.799 213.831 184.039 210.473 182.768 207.117C181.366 203.434 181.595 196.295 178.693 193.459C177.487 192.253 173.251 191.079 171.621 192.905C170.317 194.437 171.588 197.892 170.448 199.815C162.983 198.512 159.268 187.526 151.673 187.299C150.89 189.189 149.521 192.221 147.925 194.601C146.947 196.035 145.871 197.241 144.763 197.795C142.71 194.633 142.644 189.94 143.557 186.452C144.568 182.607 147.403 177.945 150.891 175.826C157.41 171.915 165.885 169.014 173.674 167.71C183.192 180.911 192.709 194.242 203.107 206.693C212.592 218.101 224.228 227.521 234.626 238.114C240.004 243.557 245.252 249.065 250.858 254.215Z" stroke="white" stroke-width="4" stroke-miterlimit="10"/>
<path d="M174.555 167.547C174.261 167.579 173.968 167.645 173.674 167.71" stroke="white" stroke-width="4" stroke-miterlimit="10"/>
<path d="M251.054 253.792C250.988 253.954 250.924 254.085 250.858 254.215" stroke="white" stroke-width="4" stroke-miterlimit="10"/>
<path d="M149.229 194.991C151.902 198.512 148.544 204.737 150.076 208.812C150.826 210.898 154.574 214.32 156.464 216.243C158.909 218.753 162.657 221.49 166.373 221.458C167.221 221.458 167.971 221.296 168.687 221.002C171.719 219.763 173.609 216.308 175.727 213.701" stroke="white" stroke-width="4" stroke-miterlimit="10"/>
<path d="M90.9829 366.894C91.2111 366.503 91.5043 366.112 91.7976 365.688C93.4599 363.407 96.1001 360.831 98.4798 358.517" stroke="white" stroke-width="4" stroke-miterlimit="10"/>
<path d="M127.847 319.176C128.401 318.361 128.987 317.579 129.639 316.862C132.801 313.276 136.94 310.701 139.515 306.66C144.209 299.326 144.795 289.809 144.762 281.367C144.73 271.589 145.447 261.485 147.239 251.999C148.837 243.492 158.028 224.946 168.752 221.133C172.174 219.894 175.727 220.188 179.248 222.73C179.573 222.958 179.867 223.219 180.193 223.479" stroke="white" stroke-width="4" stroke-miterlimit="10"/>
<path d="M106.726 366.112C106.954 365.982 107.182 365.818 107.41 365.688C115.917 360.277 126.25 354.508 133.551 347.337C134.399 346.489 135.246 345.675 136.061 344.795C142.482 338.211 148.284 331.137 153.727 324.228C156.53 320.675 158.812 316.927 160.8 313.015" stroke="white" stroke-width="4" stroke-miterlimit="10"/>
<path d="M172.404 286.679C174.424 281.66 176.249 276.673 177.879 271.556C178.01 271.099 178.14 270.675 178.303 270.252C180.324 263.668 181.986 257.345 189.581 256.074" stroke="white" stroke-width="4" stroke-miterlimit="10"/>
<path d="M172.404 286.679C181.366 287.429 192.384 295.708 187.788 306.204C185.474 311.451 179.999 313.407 174.621 313.538C170.97 313.636 164.125 314.58 160.801 313.016C163.702 307.345 166.016 301.446 168.656 295.546C169.991 292.579 171.23 289.613 172.404 286.679Z" stroke="white" stroke-width="4" stroke-miterlimit="10"/>
<path d="M160.8 313.015C160.604 312.917 160.409 312.82 160.246 312.722" stroke="white" stroke-width="4" stroke-miterlimit="10"/>
<path d="M172.404 286.679C172.274 286.646 172.175 286.646 172.046 286.646" stroke="white" stroke-width="4" stroke-miterlimit="10"/>
<path d="M176.935 219.013C180.129 219.535 183.355 217.677 186.712 217.807" stroke="white" stroke-width="4" stroke-miterlimit="10"/>
<path d="M236.451 261.809C240.916 268.72 243.198 274.326 245.578 280.649C247.663 286.287 248.61 292.676 249.228 298.642C251.607 321.49 247.989 346.034 235.473 365.687C235.408 365.818 235.31 365.981 235.212 366.112" stroke="white" stroke-width="4" stroke-miterlimit="10"/>
<path d="M136.191 344.926C139.451 345.545 144.503 352.488 146.687 355.193C147.632 356.334 149.001 357.963 150.566 359.593C152.945 362.038 155.748 364.548 157.964 365.688C158.291 365.884 158.584 366.014 158.877 366.112" stroke="white" stroke-width="4" stroke-miterlimit="10"/>
<path d="M127.847 319.176C125.337 322.826 123.61 327.162 121.295 330.91C115.82 339.645 109.203 347.534 102.098 354.965C101.12 355.975 99.8482 357.214 98.4798 358.518C94.5358 350.923 94.927 335.538 99.6207 329.085C102.717 324.88 107.02 323.413 111.746 322.11C115.494 321.034 125.011 318.72 127.847 319.176Z" stroke="white" stroke-width="4" stroke-miterlimit="10"/>
<path d="M98.7072 358.974C98.6421 358.844 98.5441 358.681 98.479 358.518" stroke="white" stroke-width="4" stroke-miterlimit="10"/>
<path d="M132.475 358.354C133.942 360.799 135.8 362.885 137.038 365.688" stroke="white" stroke-width="4" stroke-miterlimit="10"/>
<path d="M130.716 354.704C131.172 356.073 131.791 357.246 132.443 358.354" stroke="white" stroke-width="4" stroke-miterlimit="10"/>
<path d="M179.802 270.349C182.801 271.198 185.245 271.49 188.374 271.165C192.155 270.741 193.393 269.405 196.099 266.862C201.054 262.234 200.663 258.094 199.359 251.608C198.055 245.22 197.598 239.581 193.752 234.04C190.591 229.477 185.474 224.327 180.356 221.002C179.216 220.22 178.075 219.568 176.934 219.013" stroke="white" stroke-width="4" stroke-miterlimit="10"/>
<path d="M132.443 358.354H132.476C137.789 359.43 145.025 359.593 150.566 359.593" stroke="white" stroke-width="4" stroke-miterlimit="10"/>
<path d="M203.433 20.1875H215.265H253.955" stroke="white" stroke-width="4" stroke-miterlimit="10"/>
<path d="M93.427 20.1875H94.2424" stroke="white" stroke-width="4" stroke-miterlimit="10"/>
<path d="M31.4977 20.1875H71.8498H82.8344" stroke="white" stroke-width="4" stroke-miterlimit="10"/>
<path d="M94.2424 20.1875H192.84" stroke="white" stroke-width="4" stroke-miterlimit="10"/>
<path d="M106.041 68.2639H94.2424V53.662" stroke="white" stroke-width="4" stroke-miterlimit="10"/>
<path d="M245.35 78.0508H253.955V114.816L245.35 78.0508Z" fill="white"/>
<path d="M192.84 20.1875H93.4177V68.2647H192.84V20.1875Z" stroke="white" stroke-width="4" stroke-miterlimit="10"/>
<path d="M82.8337 20.1875H31.4977V68.2647H82.8337V20.1875Z" stroke="white" stroke-width="4" stroke-miterlimit="10"/>
<path d="M252.65 20.1875H203.433V68.2647H252.65V20.1875Z" stroke="white" stroke-width="4" stroke-miterlimit="10"/>
</svg>
