<svg width="19" height="18" viewBox="0 0 19 18" fill="none" xmlns="http://www.w3.org/2000/svg">
<path d="M7.94768 7.6875L7.43224 5.79359C7.32125 5.38578 7.15017 5.03227 7.00218 4.75372C6.93167 4.62101 6.85779 4.48975 6.79301 4.37467L6.78221 4.35548C6.71176 4.23029 6.65015 4.12037 6.59195 4.01024C6.3679 3.58628 6.24999 3.25803 6.24999 2.86355C6.24999 2.389 6.3317 2.11134 6.40265 1.95857C6.46938 1.81491 6.54546 1.73936 6.61723 1.68868C6.70909 1.62381 6.83024 1.57602 6.97101 1.54476C7.07176 1.79813 7.152 2.10458 7.22708 2.40053L7.94768 7.6875ZM7.94768 7.6875H5.98488M7.94768 7.6875H5.98488M5.98488 7.6875H2.21C1.99117 7.6875 1.80588 7.77222 1.67589 7.89578C1.54016 8.02481 1.50043 8.15833 1.5 8.23815L2.47955e-05 8.23001M5.98488 7.6875L11.5625 8.83915M11.5625 8.83915C10.8912 8.15473 10.39 7.47287 9.96306 6.88403C9.94468 6.85868 9.92648 6.83355 9.90844 6.80867C9.42065 6.13557 9.05527 5.63138 8.59085 5.19065L8.59074 5.19055C7.71801 4.36219 7.42488 3.19061 7.25472 2.5105C7.24516 2.47231 7.23599 2.43566 7.22713 2.40071L11.5625 8.83915ZM11.5625 8.83915V14.9733C11.4305 15.0081 11.3056 15.0456 11.1907 15.0826C10.783 15.2137 10.3903 15.3753 10.0888 15.5024C8.89877 16.004 7.68814 16.4995 6.2341 16.5L6.12901 16.5C6.12885 16.5 6.12869 16.5 6.12853 16.5C5.3116 16.5 4.57666 16.4926 3.96356 16.386C3.31711 16.2737 3.14406 16.1049 3.11579 16.0665L1.90697 16.9546L3.11579 16.0664C3.10719 16.0547 3.10379 16.0486 3.10072 16.0275C3.09649 15.9983 3.09128 15.9153 3.13132 15.7599L3.34636 14.9258L2.73432 14.3197C2.65436 14.2405 2.54279 14.0673 2.48261 13.8256C2.42353 13.5883 2.4392 13.387 2.48497 13.2577L2.76125 12.4769L2.24771 11.8272C1.97479 11.4819 1.93547 10.9339 2.09596 10.5732L2.52706 9.60418L1.75725 8.87467L1.75552 8.87304C1.62518 8.74899 1.49885 8.47116 1.50001 8.23742L2.47955e-05 8.23001M2.47955e-05 8.23001C-0.00309181 8.86064 0.280054 9.53954 0.721395 9.95959L2.21 6.1875C0.970657 6.1875 0.0058136 7.16295 2.47955e-05 8.23001ZM15.75 9.375V13.5708C16.0259 13.4639 16.3227 13.4062 16.625 13.4062C16.9273 13.4062 17.2241 13.4639 17.5 13.5708V9.375H15.75Z" fill="#FFC32D" stroke="#FFC32D" stroke-width="3"/>
</svg>
