<svg width="44" height="41" viewBox="0 0 44 41" fill="none" xmlns="http://www.w3.org/2000/svg">
<path d="M15.8311 15.5938L15.3054 13.6937C15.104 12.9657 14.7851 12.3056 14.4677 11.7181C14.3159 11.437 14.1555 11.1566 14.0031 10.8903L13.9809 10.8515C13.8187 10.5681 13.6641 10.297 13.5157 10.0209C12.9309 8.9323 12.5 7.86388 12.5 6.52252C12.5 3.97761 13.363 2.85224 14.176 2.28751C15.0833 1.65734 16.2477 1.50244 17.1656 1.50003C17.1838 1.5103 17.2184 1.53442 17.2715 1.58643C17.4201 1.73196 17.6042 1.99718 17.7992 2.40523C18.1902 3.22341 18.4534 4.23634 18.6511 5.0027C18.6647 5.05556 18.6784 5.10908 18.6924 5.16322C19.108 6.78064 19.6656 8.95075 21.2621 10.4412L21.2622 10.4413C22.4727 11.5712 23.4167 12.8531 24.5067 14.3333C24.5631 14.4099 24.62 14.4871 24.6773 14.5648C25.7842 16.0667 27.0265 17.7202 28.75 19.3402V35.69C27.9954 35.7596 27.2225 35.9569 26.5266 36.1771C25.671 36.4479 24.8293 36.7873 24.1383 37.0738L24.7127 38.4594L24.1383 37.0738C21.3986 38.2095 18.2547 39.4987 14.4375 39.4999L14.1935 39.5C14.1933 39.5 14.1932 39.5 14.193 39.5C12.332 39.5 10.4553 39.4881 8.83674 39.2114C7.18176 38.9285 6.14159 38.4222 5.61789 37.7211C5.22814 37.1993 5.05807 36.4959 5.33878 35.425L5.56029 34.5798L4.93444 33.9702C3.91689 32.979 3.36131 31.0395 3.89139 29.5661L4.17618 28.7745L3.64923 28.1187C2.52738 26.7226 2.41265 24.7146 3.04675 23.3127L3.49058 22.3315L2.70273 21.5972L2.69571 21.5907C1.9876 20.9278 1.49509 19.7854 1.50004 18.7544L15.8311 15.5938ZM15.8311 15.5938H13.8597M15.8311 15.5938H13.8597M13.8597 15.5938H5.1179M13.8597 15.5938H5.1179M5.1179 15.5938C2.98509 15.5938 1.50889 17.2341 1.50004 18.7537L5.1179 15.5938ZM29.2117 35.6642C29.2111 35.6642 29.2105 35.6642 29.2099 35.6642C29.2105 35.6642 29.2111 35.6642 29.2117 35.6642L29.2117 35.6642ZM17.1503 1.49338C17.1504 1.49384 17.1537 1.49553 17.1601 1.49709C17.1535 1.4937 17.1503 1.49292 17.1503 1.49338ZM41.9375 19.4375H35.0625C34.6503 19.4375 34.5 19.7244 34.5 19.8594V39.0781C34.5 39.2131 34.6503 39.5 35.0625 39.5H41.9375C42.3497 39.5 42.5 39.2131 42.5 39.0781V19.8594C42.5 19.7244 42.3497 19.4375 41.9375 19.4375ZM42.0625 35.875C42.0625 37.8629 40.366 39.2969 38.5 39.2969C36.634 39.2969 34.9375 37.8629 34.9375 35.875C34.9375 33.8871 36.634 32.4531 38.5 32.4531C40.366 32.4531 42.0625 33.8871 42.0625 35.875Z" fill="#FFC32D" stroke="#FFC32D" stroke-width="3"/>
</svg>
