<svg width="219" height="37" viewBox="0 0 219 37" fill="none" xmlns="http://www.w3.org/2000/svg">
<path d="M218.985 5.16241L215.686 28.1728L211.373 27.557L212.916 4.81671L218.985 5.16241Z" fill="#FFC32D"/>
<path d="M215.644 30.0466C216.253 30.7137 216.594 31.5825 216.662 32.6566C216.593 33.6554 216.253 34.4901 215.644 35.1536C215.038 35.8206 214.288 36.1935 213.402 36.2685C212.465 36.1932 211.668 35.8069 211.015 35.116C210.406 34.4764 210.104 33.6554 210.104 32.6566C210.104 31.61 210.407 30.7377 211.015 30.0466C211.646 29.407 212.443 29.0853 213.402 29.0853C214.267 29.0853 215.013 29.407 215.644 30.0466Z" fill="#FFC32D"/>
<path d="M205.633 31.8905L200.317 33.1048C199.726 30.495 199.236 28.1722 198.842 26.1542L193.857 26.3969L193.711 27.324C193.464 28.8359 193.096 30.7652 192.605 33.1048L187.289 31.6133C187.314 31.528 187.708 30.0329 188.47 27.1256L194.598 4.08411C195.285 1.36128 196.051 0 196.884 0C197.574 0 198.337 1.83352 199.174 5.4969L200.798 12.3727C202.791 21.0232 204.402 27.5292 205.633 31.8905ZM197.072 20.6196H197.884C197.834 20.161 197.734 19.4565 197.587 18.5156L196.666 13.1008C196.516 12.2081 196.444 11.4965 196.444 10.956L196.11 13.0151L194.858 20.5748C195.298 20.6025 196.038 20.6196 197.072 20.6196Z" fill="#FFC32D"/>
<path d="M177.276 0.365847L182.701 1.86065C181.964 4.9597 180.98 9.51604 179.749 15.5227C178.05 23.5817 177.167 27.714 177.091 27.9292C176.354 31.1139 175.333 32.8377 174.028 33.1045C173.756 33.053 173.387 32.8377 172.922 32.4615C172.035 31.5993 171.345 29.8893 170.854 27.3238L165.613 1.01247L171.039 0L171.926 6.22888C172.466 10.4056 173.341 16.3708 174.546 24.1323C174.94 20.4964 175.159 18.5568 175.208 18.3105C175.995 11.1167 176.685 5.13745 177.276 0.365847Z" fill="#FFC32D"/>
<path d="M112.197 31.8909L106.881 33.0985C106.291 30.4885 105.8 28.1726 105.407 26.1477L100.425 26.3906L100.275 27.3245C100.029 28.8296 99.66 30.7589 99.1697 33.0985L93.8535 31.607C93.8786 31.5284 94.2722 30.0266 95.0341 27.119L101.162 4.07781C101.849 1.3617 102.615 0.000427246 103.452 0.000427246C104.139 0.000427246 104.901 1.83393 105.738 5.49731L107.362 12.3658C109.355 21.0166 110.966 27.5229 112.197 31.8909ZM103.636 20.613H104.448C104.398 20.1545 104.298 19.4569 104.151 18.5093L103.23 13.0945C103.08 12.2018 103.008 11.4902 103.008 10.9497L102.674 13.0158L101.422 20.5685C101.862 20.5959 102.602 20.613 103.636 20.613Z" fill="#FFC32D"/>
<path d="M160.4 0.157031L160.178 21.7409C160.131 25.654 160.144 29.4237 160.216 33.06L153.572 32.9813C153.966 29.9371 154.312 24.3717 154.606 16.2888L155.234 0L160.4 0.157031Z" fill="#FFC32D"/>
<path d="M92.9331 26.5547L92.5269 32.2909C89.6721 32.8622 87.1141 33.1256 84.8497 33.0985C81.5298 33.047 79.2404 32.3766 77.9846 31.0802C76.7542 29.8385 76.1387 28.2376 76.1387 26.2708C76.1387 23.791 76.201 21.3246 76.323 18.8721L77.3193 0.000427246L83.0411 0.15774C82.7694 2.3126 82.5977 4.48482 82.5258 6.66376L82.0448 21.6221C82.0198 22.1078 81.9824 22.8056 81.9354 23.7257C81.9104 24.4508 81.8981 24.9639 81.8981 25.2581C81.8981 26.0141 82.0949 26.5544 82.4883 26.876C82.8569 27.1974 83.6438 27.3583 84.8495 27.3583C87.533 27.3379 90.2253 27.0678 92.9331 26.5547Z" fill="#FFC32D"/>
<path d="M144.121 0.365847L149.547 1.86065C148.81 4.9597 147.826 9.51604 146.595 15.5227C144.896 23.5817 144.012 27.714 143.937 27.9292C143.2 31.1139 142.179 32.8377 140.873 33.1045C140.602 33.053 140.233 32.8377 139.768 32.4615C138.88 31.5993 138.19 29.8893 137.7 27.3238L132.459 1.01247L137.884 0L138.771 6.22888C139.312 10.4056 140.186 16.3708 141.392 24.1323C141.785 20.4964 142.004 18.5568 142.054 18.3105C142.841 11.1167 143.531 5.13745 144.121 0.365847Z" fill="#FFC32D"/>
<path d="M73.5935 25.8263L73.2249 32.2912C71.2573 32.8625 68.5993 33.1259 65.254 33.0987C61.4372 33.0747 59.0509 32.2402 58.0921 30.5948C57.1334 29.4899 56.6523 26.8628 56.6523 22.7138C56.6523 22.122 56.8492 19.8199 57.2428 15.8008C57.6144 12.0039 57.8082 8.55239 57.8332 5.45333C57.8583 3.43172 57.7614 1.76253 57.5398 0.44548L73.3721 0.117126L73.1878 6.10304C68.0937 6.20914 64.9453 6.4006 63.7396 6.66401L63.4462 13.3786C67.1848 13.3204 70.0521 13.2145 72.0448 13.0502V19.3203L63.1494 19.5221L63.0745 21.6599C63.0244 23.1205 63.1369 24.3041 63.4089 25.2208C63.6524 26.1068 64.2677 26.5549 65.2548 26.5549C67.787 26.5272 70.5669 26.2845 73.5935 25.8263Z" fill="#FFC32D"/>
<path d="M54.7715 0.359585L54.4375 5.97964C54.2657 8.91801 54.0814 15.9643 53.8846 27.119C53.8348 29.2467 53.6627 30.8647 53.3693 31.9696C53.0976 32.6985 52.7789 33.0744 52.4072 33.0985C51.8168 33.0198 51.3141 32.469 50.8954 31.4427L43.9927 15.6804L44.1051 33.0985L38.3457 32.7769C38.5676 28.6586 38.7644 24.1023 38.9362 19.1148L39.3423 7.9979C39.4673 4.44733 39.6513 2.30255 39.8982 1.57726C40.217 0.684579 40.6354 0.24314 41.1507 0.24314C41.5443 0.24314 41.9034 0.400455 42.2219 0.721809C42.4936 1.05016 42.934 1.92577 43.5492 3.35227L49.3804 16.85L49.087 0.116333L54.7715 0.359585Z" fill="#FFC32D"/>
<path d="M36.6112 31.8909L31.2952 33.0985C30.705 30.4885 30.2145 28.1726 29.8209 26.1477L24.8393 26.3906L24.6893 27.3245C24.4426 28.8296 24.074 30.7589 23.5835 33.0985L18.2676 31.607C18.2926 31.5284 18.686 30.0266 19.4482 27.119L25.5762 4.07781C26.2632 1.3617 27.0285 0.000427246 27.8656 0.000427246C28.5526 0.000427246 29.3148 1.83393 30.1519 5.49731L31.776 12.3658C33.7689 21.0166 35.3805 27.5229 36.6112 31.8909ZM28.0499 20.613H28.8619C28.8121 20.1545 28.7121 19.4569 28.5652 18.5093L27.6437 13.0945C27.4939 12.2018 27.4219 11.4902 27.4219 10.9497L27.0875 13.0158L25.8351 20.5685C26.276 20.5959 27.0162 20.613 28.0499 20.613Z" fill="#FFC32D"/>
<path d="M16.7944 0.359423L16.4977 7.96331C16.3757 11.3258 16.2883 15.516 16.2385 20.5342C16.2134 24.7585 15.4638 27.9161 13.9897 29.9887C12.5374 32.0615 10.6291 33.0981 8.26762 33.0981C5.80645 33.0981 3.85112 32.1572 2.3988 30.2725C0.874663 28.3057 0.0751462 25.7436 0 22.593L5.68453 22.186C5.75635 23.9101 6.06563 25.2201 6.60571 26.1061C7.07422 26.8622 7.62708 27.2829 8.26736 27.3579C8.8077 27.3579 9.31378 26.8381 9.77923 25.7845C10.1729 24.9226 10.407 23.1744 10.4821 20.5339C10.6789 14.4965 10.7789 11.2331 10.7789 10.7477C10.7789 5.63041 10.7883 2.04569 10.8131 0L16.7944 0.359423Z" fill="#FFC32D"/>
</svg>
