<svg width="244" height="438" viewBox="0 0 244 438" fill="none" xmlns="http://www.w3.org/2000/svg">
<path d="M123.648 183.735C122.999 183.742 122.357 183.728 121.735 183.537C120.826 183.264 119.924 182.71 119.146 182.232C117.848 181.433 116.214 179.294 118.299 178.461C119.159 178.119 120.854 178.57 121.79 178.55C123.04 178.522 124.277 178.393 125.521 178.352C127.413 178.283 128.786 177.826 130.358 176.855C133.48 174.935 135.693 173.59 137.819 170.59C143.1 163.102 142.888 152.82 136.343 146.151C135.284 145.079 134.273 143.862 133.119 142.871C131.978 141.901 126.744 138.868 125.098 138.519C117.37 136.887 107.491 138.26 101.486 143.589C99.0259 145.768 97.728 149.185 96.6145 152.205C95.5277 155.136 94.5173 158.36 94.2571 161.387C93.977 164.578 94.7284 168.527 96.9424 170.959C98.1242 172.264 99.7574 173.467 101.151 174.587C101.965 175.243 102.88 176.479 103.782 176.883C103.741 177.942 104.13 178.905 104.11 179.944C101.868 180.012 99.6345 179.876 97.4001 179.671C92.6517 179.24 87.8966 178.536 83.1067 178.946C79.0415 179.294 75.1334 181.768 72.2295 184.37C65.9646 189.98 62.4049 198.199 57.4448 204.71C56.1606 206.405 55.0601 208.202 54.0833 210.066C52.1227 213.783 50.6397 217.753 49.089 221.668C48.4264 223.341 47.6675 224.961 46.8546 226.546V44.385V43.6814C46.8546 -10.7989 195.114 -12.978 195.114 43.6814V271.864V272.089H188.296C187.154 269.855 178.354 265.728 176.947 264.738C173.614 262.394 171.564 259.504 169.057 256.416C163.467 249.529 158.712 241.576 156.376 232.961C155.454 229.593 155.282 226.84 155.282 223.294C155.282 221.907 155.357 220.486 155.351 219.078C155.351 218.422 155.337 217.766 155.282 217.124C154.954 212.868 154.353 208.926 152.106 205.202C151.012 203.377 149.926 201.567 148.751 199.805C147.705 198.227 146.449 197.018 145.198 195.535C141.966 191.695 137.614 188.887 133.207 186.591C132.101 186.017 130.823 185.56 129.737 185.109C128.569 184.617 127.148 184.166 125.932 183.872C125.185 183.687 124.413 183.721 123.648 183.735Z" fill="white"/>
<path d="M191.766 283.021H165.967V416.803H191.766V283.021Z" fill="white"/>
<path d="M169.144 272.09H150.082C149.555 269.856 148.791 267.656 147.663 265.504C145.845 262.047 143.181 259.082 140.202 256.588C137.681 254.47 134.784 252.878 132.892 250.091C130.665 246.804 129.134 242.889 128.601 238.948C128.054 234.855 128.656 232.805 131.614 229.97C132.072 229.526 132.488 229.088 132.857 228.651C132.953 228.952 133.049 229.245 133.158 229.54C133.67 230.845 134.217 231.972 135.023 233.263C135.262 233.639 135.481 234.028 135.692 234.418C139.156 240.813 139.361 248.56 144.683 254.047C150.183 259.717 156.885 264.677 164.237 267.608C165.515 268.121 167.551 268.777 168.377 269.891C168.864 270.539 168.953 271.331 169.144 272.09Z" fill="white"/>
<path d="M161.546 283.021V416.803H135.905V373.036C138.125 366.463 140.209 360.137 140.667 358.032C141.158 355.764 141.473 353.489 141.964 351.275C142.449 349.095 143.31 347.305 143.529 345.01C144.034 339.763 142.934 332.841 142.914 327.554C145.517 327.806 149.487 328.34 150.915 327.069C151.994 326.112 151.489 323.126 151.55 321.815C152.137 310.494 152.424 299.282 151.652 287.947C151.536 286.294 151.461 284.654 151.372 283.021H161.546Z" fill="white"/>
<path d="M131.813 384.992V410.421H131.389C130.754 409.649 129.654 409.424 128.212 408.693C126.19 407.668 124.167 407.921 123.949 405.926C123.901 405.523 123.935 405.024 124.051 404.402C124.543 401.854 126.129 399.627 127.222 397.318C128.465 394.701 129.442 391.996 130.337 389.324C130.699 388.245 131.211 386.749 131.813 384.992Z" fill="white"/>
<path d="M104.108 179.943C104.128 178.905 103.739 177.941 103.78 176.882C102.878 176.479 101.963 175.242 101.149 174.586C100.309 173.603 100.698 169.128 100.821 167.781C100.999 165.752 101.272 163.484 101.819 161.489C102.468 159.118 104.224 157.069 105.747 155.183C106.847 153.816 108.569 151.405 110.373 151.042L110.475 151.001C111.247 152.86 112.805 153.659 114.212 154.998C115.709 156.42 119.275 157.506 121.209 158.428C121.844 158.824 124.222 168.3 127.098 168.362L127.084 168.649C127.358 173.752 117.533 174.176 118.298 178.46C116.215 179.293 117.847 181.432 119.145 182.231C119.924 182.709 120.826 183.263 121.734 183.536C122.356 183.727 122.999 183.741 123.648 183.734C122.828 187.075 122.391 189.671 119.958 191.209C117.041 193.046 113.359 194.597 109.737 194.468C105.631 194.311 101.621 192.849 98.9906 189.569C96.681 186.693 96.7015 183.12 97.3989 179.669C99.6327 179.875 101.867 180.012 104.108 179.943Z" fill="white"/>
<path d="M114.473 405.947C114.459 406.179 114.439 406.412 114.411 406.644C114.24 407.963 113.127 408.837 112.778 410.122C112.512 411.106 112.58 415.184 112.601 416.804H106.978V327.807C109.424 327.847 111.856 327.868 114.296 327.868C114.897 329.249 115.553 332.173 116.044 333.552C116.639 335.206 117.452 336.456 118.278 337.973C119.918 340.965 118.34 344.231 116.769 346.875C115.074 349.731 113.865 352.362 113.229 355.655C112.608 358.838 111.733 361.968 111.453 365.213C111.153 368.575 111.33 371.964 111.262 375.339C111.194 378.598 111.61 381.864 111.767 385.116C111.952 388.826 112.027 392.597 112.717 396.252C113.311 399.442 114.663 402.661 114.473 405.947Z" fill="white"/>
<path d="M89.8901 403.036C90.2316 404.287 90.9011 406.015 90.7098 407.32C90.6552 407.702 90.5254 408.044 90.3 408.331C89.1182 409.8 86.631 410.442 85.0114 411.283C83.5017 412.068 81.8547 412.827 80.4133 413.633C79.1216 414.364 77.8516 415.369 77.4958 416.802H76.9151V336.019C76.9902 337.966 77.1337 339.893 77.3797 341.738C78.1447 347.463 79.5315 353.093 80.4133 358.804C81.3219 364.693 82.0255 370.61 83.1123 376.472C83.7202 379.745 84.4444 383.004 85.3939 386.201C87.0408 391.777 88.3524 397.434 89.8901 403.036Z" fill="white"/>
<path d="M67.3776 234.813C68.0949 233.822 68.8941 232.9 69.8443 232.114C70.1722 231.841 70.6025 231.581 70.9373 231.335C71.8663 233.432 72.7208 235.537 72.8295 237.819C72.9115 239.52 72.9661 241.453 72.0234 242.847C70.2678 245.444 67.5415 247.535 65.5673 250.007C63.4223 252.699 61.5226 255.575 59.8284 258.575C57.4096 262.866 56.2483 267.416 55.8452 272.089H46.8541V271.864V259.668C48.9109 257.755 50.8578 255.733 52.7917 253.635C55.9887 250.165 59.5285 246.96 62.3156 243.127C64.2004 240.539 65.4853 237.422 67.3776 234.813Z" fill="white"/>
<path d="M71.3746 327.109V416.803H47.995V283.021H56.0503C56.7129 289.621 58.1202 296.248 58.961 302.513C59.7398 308.307 60.5459 314.087 62.6226 319.587C63.4765 321.849 64.4738 325.306 66.6126 326.741C68.1633 327.78 69.7282 327.321 71.3746 327.109Z" fill="white"/>
<path d="M46.8533 43.6814C46.8533 -10.7989 195.113 -12.978 195.113 43.6814V271.864" stroke="white" stroke-width="4" stroke-linecap="round" stroke-linejoin="round"/>
<path d="M46.8533 259.669V271.864" stroke="white" stroke-width="4" stroke-linecap="round" stroke-linejoin="round"/>
<path d="M46.8533 44.3851V226.547" stroke="white" stroke-width="4" stroke-miterlimit="10"/>
<path d="M2.3349 435.605H241.497V416.803" stroke="white" stroke-width="4" stroke-miterlimit="10"/>
<path d="M241.497 416.803H230.764" stroke="white" stroke-width="4" stroke-miterlimit="10"/>
<path d="M230.764 416.803V282.953" stroke="white" stroke-width="4" stroke-miterlimit="10"/>
<path d="M230.764 282.953H238.559" stroke="white" stroke-width="4" stroke-miterlimit="10"/>
<path d="M238.559 282.953V272.09" stroke="white" stroke-width="4" stroke-miterlimit="10"/>
<path d="M12.9522 272.09H3.13391" stroke="white" stroke-width="4" stroke-miterlimit="10"/>
<path d="M31.4607 272.09H22.3733H20.2078" stroke="white" stroke-width="4" stroke-miterlimit="10"/>
<path d="M169.144 272.09H150.082H55.8445H46.8534H35.444" stroke="white" stroke-width="4" stroke-miterlimit="10"/>
<path d="M180.021 272.09H173.338" stroke="white" stroke-width="4" stroke-miterlimit="10"/>
<path d="M238.559 272.09H195.113H188.294" stroke="white" stroke-width="4" stroke-miterlimit="10"/>
<path d="M3.13391 272.09V283.021" stroke="white" stroke-width="4" stroke-miterlimit="10"/>
<path d="M3.13391 283.021H13.3683" stroke="white" stroke-width="4" stroke-miterlimit="10"/>
<path d="M13.3684 283.021V416.803" stroke="white" stroke-width="4" stroke-miterlimit="10"/>
<path d="M13.3684 416.803H2" stroke="white" stroke-width="4" stroke-miterlimit="10"/>
<path d="M2 416.803V435.605" stroke="white" stroke-width="4" stroke-miterlimit="10"/>
<path d="M42.611 283.021H17.9329V416.803H42.611V283.021Z" stroke="white" stroke-width="4" stroke-miterlimit="10"/>
<path d="M71.3744 327.109V416.803H47.9949V283.021H56.0495H71.3744V327.109Z" stroke="white" stroke-width="4" stroke-miterlimit="10"/>
<path d="M102.079 406.698V416.803H77.4963H76.9157V336.019V326.966V283.021H102.079V327.69V406.698Z" stroke="white" stroke-width="4" stroke-miterlimit="10"/>
<path d="M131.813 410.422V416.803H112.6H106.977V327.806V283.021H131.813V327.608V384.992V410.422Z" stroke="white" stroke-width="4" stroke-miterlimit="10"/>
<path d="M151.373 283.021H161.546V416.803H135.904V373.036V327.52V283.021H151.373Z" stroke="white" stroke-width="4" stroke-miterlimit="10"/>
<path d="M191.765 283.021H165.967V416.803H191.765V283.021Z" stroke="white" stroke-width="4" stroke-miterlimit="10"/>
<path d="M226.09 283.021H196.712V416.803H226.09V283.021Z" stroke="white" stroke-width="4" stroke-miterlimit="10"/>
<path d="M40.3904 264.944C42.7068 263.325 44.8313 261.547 46.8539 259.669C48.9108 257.756 50.8577 255.733 52.7915 253.636C55.9885 250.165 59.5284 246.961 62.3155 243.128C64.2015 240.539 65.4858 237.422 67.3781 234.813C68.0953 233.822 68.8946 232.9 69.8448 232.114C70.1727 231.841 70.603 231.581 70.9377 231.335C70.9651 231.315 70.9992 231.294 71.0265 231.273" stroke="white" stroke-width="4" stroke-miterlimit="10"/>
<path d="M104.251 179.943C104.203 179.943 104.155 179.943 104.108 179.943C101.866 180.012 99.6326 179.875 97.3982 179.67C92.6498 179.24 87.8947 178.535 83.1048 178.945C79.0396 179.294 75.1315 181.767 72.2276 184.37C65.9627 189.979 62.403 198.199 57.4429 204.709C56.1587 206.404 55.0582 208.201 54.0813 210.066C52.1208 213.783 50.6378 217.752 49.0871 221.667C48.4245 223.341 47.6656 224.96 46.8527 226.545C46.8527 226.552 46.8527 226.552 46.8527 226.552C44.7207 230.76 42.2205 234.764 40.1096 238.994C37.2672 244.691 35.3545 250.813 31.665 256.156" stroke="white" stroke-width="4" stroke-miterlimit="10"/>
<path d="M150.082 272.09C149.555 269.856 148.791 267.655 147.663 265.504C145.845 262.047 143.181 259.082 140.202 256.588C137.681 254.47 134.784 252.878 132.891 250.091C130.664 246.804 129.134 242.889 128.601 238.948C128.054 234.855 128.655 232.805 131.614 229.97C132.072 229.525 132.488 229.088 132.857 228.651C135.426 225.625 135.946 222.577 135.297 218.198C135.119 217.016 134.361 215.362 135.139 214.31" stroke="white" stroke-width="4" stroke-miterlimit="10"/>
<path d="M135.904 327.52C137.722 327.479 139.546 327.458 141.37 327.458C141.78 327.458 142.307 327.499 142.914 327.554C145.517 327.806 149.487 328.34 150.914 327.069C151.994 326.112 151.489 323.126 151.55 321.815C152.137 310.494 152.424 299.282 151.652 287.947C151.535 286.294 151.461 284.654 151.372 283.021" stroke="white" stroke-width="4" stroke-miterlimit="10"/>
<path d="M106.977 327.807C109.423 327.847 111.855 327.868 114.295 327.868C119.405 327.868 124.509 327.779 129.681 327.656C130.392 327.643 131.102 327.622 131.813 327.608" stroke="white" stroke-width="4" stroke-miterlimit="10"/>
<path d="M76.7921 326.966H76.799C76.84 326.966 76.8741 326.966 76.9151 326.966C84.7108 326.946 92.486 327.336 100.281 327.629C100.882 327.649 101.484 327.67 102.078 327.69" stroke="white" stroke-width="4" stroke-miterlimit="10"/>
<path d="M56.0493 283.021C56.7119 289.621 58.1192 296.248 58.96 302.513C59.7388 308.307 60.5449 314.087 62.6216 319.587C63.4755 321.849 64.4728 325.306 66.6116 326.741C68.1623 327.78 69.7273 327.322 71.3736 327.11" stroke="white" stroke-width="4" stroke-miterlimit="10"/>
<path d="M71.429 208.98C70.0491 213.736 67.9649 218.894 68.4506 223.922C68.7033 226.547 69.8715 228.93 70.9372 231.336C71.8662 233.433 72.7207 235.538 72.8294 237.819C72.9114 239.52 72.9661 241.454 72.0233 242.848C70.2677 245.444 67.5414 247.535 65.5672 250.008C63.4222 252.7 61.5225 255.576 59.8284 258.576C57.4095 262.866 56.2482 267.417 55.8451 272.09" stroke="white" stroke-width="4" stroke-miterlimit="10"/>
<path d="M54.082 210.066C56.1388 220.342 59.7463 229.832 67.3774 234.813C67.3979 234.833 67.4252 234.847 67.4457 234.861" stroke="white" stroke-width="4" stroke-miterlimit="10"/>
<path d="M31.6382 255.952C31.6177 256.007 31.5904 256.061 31.5631 256.109C29.9031 259.935 26.9241 262.327 23.0843 264.629C21.0275 265.858 19.1694 266.795 16.9145 267.649C14.9607 268.387 14.0311 270.088 13.0952 272.158C13.0474 272.261 12.9996 272.37 12.9518 272.48C14.9806 273.244 18.7247 272.65 22.3732 272.09C26.213 271.503 29.9435 270.956 31.46 272.09C31.5352 272.138 31.6035 272.2 31.665 272.261C33.2771 273.866 35.0265 274.878 35.3749 272.664C35.4091 272.459 35.4296 272.267 35.4432 272.089C35.7233 268.756 33.5025 268.4 40.3896 264.943" stroke="white" stroke-width="4" stroke-miterlimit="10"/>
<path d="M104.101 180.141C104.107 180.073 104.107 180.005 104.107 179.943C104.128 178.905 103.739 177.941 103.78 176.882C102.878 176.479 101.962 175.242 101.149 174.586C99.7553 173.466 98.1221 172.264 96.9403 170.958C94.7269 168.526 93.9755 164.577 94.2549 161.387C94.5145 158.36 95.5256 155.135 96.6124 152.204C97.7258 149.184 99.0238 145.768 101.484 143.589C107.489 138.259 117.369 136.886 125.095 138.519C126.742 138.868 131.976 141.901 133.117 142.871C134.271 143.861 135.282 145.078 136.341 146.151C142.886 152.819 143.098 163.101 137.816 170.59C135.692 173.589 133.478 174.935 130.356 176.855C128.784 177.825 127.411 178.283 125.518 178.351C124.275 178.392 123.038 178.522 121.788 178.549C120.852 178.57 119.157 178.119 118.297 178.46C116.213 179.294 117.846 181.433 119.144 182.232C119.922 182.71 120.825 183.263 121.733 183.537C122.354 183.728 122.997 183.742 123.646 183.735C124.411 183.721 125.184 183.687 125.928 183.871C127.144 184.165 128.566 184.616 129.734 185.108C130.82 185.559 132.097 186.017 133.204 186.591C137.611 188.886 141.963 191.694 145.195 195.534C146.446 197.017 147.702 198.226 148.748 199.804C149.923 201.567 151.009 203.378 152.102 205.201C154.35 208.925 154.951 212.867 155.279 217.124C155.334 217.766 155.347 218.422 155.347 219.078C155.354 220.485 155.279 221.906 155.279 223.293C155.279 226.839 155.45 229.593 156.373 232.96C158.709 241.576 163.464 249.529 169.053 256.416C171.56 259.504 173.61 262.394 176.944 264.737C178.352 265.728 187.152 269.855 188.292 272.088C188.395 272.293 188.435 272.479 188.402 272.649C187.253 273.55 182.451 273.073 181.275 272.614C180.872 272.457 180.449 272.28 180.019 272.088C179.247 271.761 178.454 271.391 177.661 271.036C176.882 270.681 174.45 269.977 173.658 270.851C173.487 271.043 173.391 271.528 173.336 272.088C173.248 272.949 173.248 273.994 173.159 274.418C171.567 274.5 170.665 274.698 169.708 273.427C169.408 273.018 169.257 272.56 169.141 272.088C168.95 271.33 168.861 270.537 168.376 269.888C167.55 268.775 165.514 268.118 164.236 267.606C156.884 264.675 150.182 259.715 144.682 254.044C139.36 248.557 139.155 240.81 135.691 234.416C135.48 234.026 135.261 233.636 135.022 233.261C134.216 231.969 133.669 230.842 133.157 229.537C133.048 229.243 132.952 228.95 132.856 228.649C132.822 228.546 132.781 228.437 132.747 228.335" stroke="white" stroke-width="4" stroke-miterlimit="10"/>
<path d="M97.3982 179.67C96.7014 183.121 96.6809 186.694 98.9898 189.57C101.62 192.849 105.63 194.311 109.737 194.468C113.358 194.598 117.04 193.048 119.957 191.209C122.39 189.672 122.827 187.076 123.647 183.735V183.728" stroke="white" stroke-width="4" stroke-miterlimit="10"/>
<path d="M118.298 178.461C117.533 174.177 127.357 173.753 127.084 168.65" stroke="white" stroke-width="4" stroke-miterlimit="10"/>
<path d="M110.373 151.043C108.569 151.405 106.847 153.817 105.748 155.183C104.224 157.069 102.468 159.119 101.819 161.49C101.273 163.484 100.999 165.753 100.822 167.782C100.699 169.128 100.309 173.603 101.15 174.587" stroke="white" stroke-width="4" stroke-miterlimit="10"/>
<path d="M127.228 168.356C127.187 168.363 127.139 168.363 127.098 168.363C124.222 168.302 121.844 158.826 121.209 158.429" stroke="white" stroke-width="4" stroke-miterlimit="10"/>
<path d="M110.373 150.75C110.407 150.839 110.435 150.921 110.476 151.003C111.248 152.861 112.805 153.66 114.213 154.999C115.71 156.421 119.275 157.507 121.209 158.429" stroke="white" stroke-width="4" stroke-miterlimit="10"/>
<path d="M154.98 219.085C154.407 219.693 154.024 220.602 153.45 221.285C152.486 222.434 151.38 223.424 150.184 224.299C147.998 225.884 145.921 227.38 144.029 229.225C141.692 231.5 138.815 233.146 135.885 234.308" stroke="white" stroke-width="4" stroke-miterlimit="10"/>
<path d="M76.7993 326.966C76.7993 329.884 76.7788 332.979 76.9154 336.019C76.9906 337.966 77.134 339.893 77.3799 341.738C78.145 347.463 79.5318 353.093 80.4136 358.804C81.3222 364.693 82.0258 370.61 83.1126 376.472C83.7206 379.745 84.4447 383.004 85.3942 386.201C87.0405 391.777 88.3527 397.434 89.8898 403.036C90.2313 404.286 90.9008 406.015 90.7095 407.32C90.6549 407.701 90.5251 408.044 90.2997 408.331C89.1178 409.799 86.6307 410.441 85.011 411.282C83.5013 412.068 81.8544 412.826 80.413 413.632C79.1213 414.364 77.8513 415.368 77.4954 416.802C77.4203 417.075 77.3861 417.369 77.393 417.684" stroke="white" stroke-width="4" stroke-miterlimit="10"/>
<path d="M102.052 395.37C101.327 397.795 100.876 399.982 101.3 402.462" stroke="white" stroke-width="4" stroke-miterlimit="10"/>
<path d="M90.8256 407.334C93.3196 407.334 99.5161 407.996 102.078 406.698C102.147 406.664 102.215 406.631 102.283 406.589" stroke="white" stroke-width="4" stroke-miterlimit="10"/>
<path d="M114.295 327.861V327.868C114.896 329.248 115.552 332.173 116.044 333.552C116.638 335.206 117.451 336.456 118.278 337.972C119.918 340.965 118.339 344.231 116.768 346.875C115.073 349.731 113.864 352.361 113.229 355.655C112.607 358.838 111.732 361.967 111.453 365.213C111.152 368.574 111.33 371.963 111.261 375.339C111.193 378.598 111.61 381.864 111.767 385.115C111.951 388.825 112.027 392.597 112.716 396.252C113.311 399.443 114.663 402.66 114.473 405.947C114.459 406.179 114.439 406.411 114.411 406.644C114.24 407.963 113.127 408.837 112.779 410.122C112.512 411.106 112.58 415.184 112.601 416.804C112.608 416.981 112.608 417.125 112.608 417.234" stroke="white" stroke-width="4" stroke-miterlimit="10"/>
<path d="M131.812 384.992C131.211 386.748 130.699 388.244 130.337 389.324C129.442 391.996 128.465 394.701 127.221 397.318C126.128 399.627 124.543 401.854 124.051 404.402C123.935 405.024 123.901 405.523 123.948 405.926C124.167 407.921 126.19 407.668 128.212 408.693C129.653 409.424 130.754 409.649 131.389 410.421" stroke="white" stroke-width="4" stroke-miterlimit="10"/>
<path d="M142.915 327.41C142.915 327.458 142.915 327.506 142.915 327.554C142.935 332.842 144.036 339.763 143.53 345.01C143.311 347.305 142.45 349.096 141.965 351.275C141.473 353.488 141.159 355.764 140.667 358.032C140.21 360.137 138.125 366.463 135.905 373.036" stroke="white" stroke-width="4" stroke-miterlimit="10"/>
<path d="M114.445 405.947C114.451 405.947 114.458 405.947 114.472 405.947C116.562 405.954 121.988 407.101 123.75 405.947" stroke="white" stroke-width="4" stroke-miterlimit="10"/>
</svg>
