<svg width="279" height="409" viewBox="0 0 279 409" fill="none" xmlns="http://www.w3.org/2000/svg">
<path d="M217.538 368.981V399.198H210.392V363.767C211.907 365.423 212.253 365.371 214.353 366.943C215.377 367.713 216.444 368.373 217.538 368.976V368.981H217.538Z" fill="white"/>
<path d="M217.538 264.386V339.414C216.892 338.665 216.261 337.895 215.663 337.082C214.222 335.133 212.352 332.491 210.392 331.003V263.888C213.029 263.663 212.408 260.843 212.262 258.328C214.919 261.074 213.857 264.79 213.951 268.321C215.035 267.541 216.327 266.152 217.538 264.386Z" fill="white"/>
<path d="M159.569 195.117C160.874 193.529 162.067 191.957 163.25 190.249C164.69 188.168 166.223 185.899 167.753 183.525C171.765 177.305 175.754 170.356 177.938 164.141C180.996 155.442 187.482 148.975 191.547 140.37C194.993 133.075 200.862 121.944 206.768 117.542C210.018 115.121 214.194 115.184 217.538 113.009V238.566L217.14 238.682C215.807 236.8 214.227 234.594 213.619 232.618C212.866 230.182 213.685 227.084 214.175 224.758C215.522 218.307 217.388 212.584 214.03 206.557C212.87 204.472 211.711 202.396 210.42 200.41C209.181 198.497 207.305 197.434 206.431 195.264C206.019 194.143 206.997 192.025 207.151 190.621C207.315 189.206 207.254 187.482 207.165 186.062C207.02 183.735 206.623 180.69 205.945 178.547C204.051 172.552 201.03 168.543 195.273 167.594C193.075 167.233 189.69 166.027 187.538 166.557C185.485 167.06 183.975 169.523 182.511 171.058C180.861 172.788 178.326 172.95 176.778 174.491C175.169 176.089 174.763 179.139 173.28 181.125C171.419 183.614 170.236 183.981 171.354 187.377C172.162 189.824 173.144 190.993 170.933 193.089C168.674 195.233 160.575 199.781 159.569 195.117ZM159.626 195.102C159.71 195.075 159.672 195.091 159.626 195.102V195.102Z" fill="white"/>
<path d="M201.18 350.44C202.312 352.929 202.788 354.177 204.112 356.1V399.198H175.512V333.644C176.943 334.331 178.046 334.409 179.819 335.211C182.62 336.474 185.851 338.114 188.54 338.984C191.121 339.828 194.385 339.717 196.686 341.405C199.169 343.224 199.847 347.49 201.18 350.44Z" fill="white"/>
<path d="M198.766 251.274C200.511 253.239 200.913 252.616 202.559 254.529C203.284 255.372 203.728 256.289 204.111 257.107V318.52C201.469 314.28 201.586 311.157 201.114 305.916C200.642 300.66 200.352 295.32 199.426 290.206C198.187 283.387 195.129 276.926 192.841 270.506C191.013 265.392 189.255 258.873 189.283 253.171C189.288 251.724 189.166 252.668 189.283 251.274H196.933C197.027 251.395 198.945 251.536 198.766 251.274Z" fill="white"/>
<path d="M195.016 311.314C195.231 311.833 195.414 312.357 195.568 312.886C189.218 303.799 182.039 297.285 175.511 288.429V251.274H176.526C177.312 254.911 177.63 257.306 178.602 260.958C180.375 267.619 180.505 274.363 182.03 281.008C184.503 291.762 190.868 301.336 195.016 311.314Z" fill="white"/>
<path d="M190.49 236.392C190.49 230.685 191.369 223.668 189.395 218.391C187.74 213.951 182.432 210.068 178.453 208.774C178.167 206.814 178.855 204.602 179.603 203.072C180.202 203.538 181.053 203.816 182.035 203.958C185 204.393 189.166 203.643 191.317 203.444C196.405 202.978 200.399 201.484 202.751 196.364C203.925 197.947 203.705 201.128 203.537 203.119C203.106 208.124 199.062 212.641 196.976 216.891C194.526 221.885 191.996 226.738 191.939 232.618C191.897 236.758 191.813 239.535 193.506 243.304H189.896C190.125 241.249 190.335 240.196 190.433 238.572C190.471 237.959 190.49 237.256 190.49 236.392Z" fill="white"/>
<path d="M169.235 251.274V278.645C167.622 276.737 166.967 276.229 164.9 274.762C160.622 271.722 157.03 267.2 155.725 261.592C155.229 259.47 154.631 257.432 154.453 255.283C154.346 253.999 154.397 252.673 154.71 251.274H169.235Z" fill="white"/>
<path d="M144.787 311.173C150.268 316.346 156.394 319.961 162.492 324.154C165.377 326.14 166.416 327.005 169.235 328.917V399.198H142.426V309.087C143.683 310.209 143.384 309.847 144.787 311.173Z" fill="white"/>
<path d="M136.145 302.568V399.198H109.336V307.305C114.1 306.535 116.603 305.665 121.162 303.191C123.206 302.091 125.132 300.99 127.017 299.618C129.318 297.935 130.253 295.41 133.003 297.548C134.504 298.722 135.238 300.744 136.145 302.568Z" fill="white"/>
<path d="M75.2822 308.946C85.8368 309.119 92.4118 309.941 102.952 307.814C102.952 307.814 102.971 307.809 102.994 307.803H103.008C103.022 307.798 103.041 307.798 103.055 307.792V399.197H75.2822V308.946Z" fill="white"/>
<path d="M103.055 251.274V263.836C98.4537 267.472 95.6619 270.04 90.5085 272.587C85.0699 275.27 80.9453 275.721 75.2822 277.739V251.274H103.055Z" fill="white"/>
<path d="M68.9363 221.927C76.3484 227.147 85.5562 239.839 94.1327 243.303H83.7371C78.1582 239.64 67.1266 229.95 68.9363 221.927Z" fill="white"/>
<path d="M83.2554 222.493C80.6133 212.185 89.0962 218.578 93.291 214.743C95.5543 212.667 94.1701 209.927 95.9097 207.689C97.7943 205.263 102.144 206.693 101.531 202.359C96.5831 201.951 97.0928 201.542 93.5154 198.445C91.3923 196.611 88.68 196.254 86.1501 195.243C84.4713 193.168 82.1331 191.344 79.9399 190.437C80.7162 199.346 71.8731 194.52 68.8709 192.518C64.3909 189.546 60.8929 187.565 55.7162 187.188V76.5141C55.7162 -23.1077 217.538 -22.568 217.538 76.5141V102.02V102.025C211.103 105.07 203.233 112.453 200.169 114.806C192.121 120.99 183.414 126.215 176.1 133.735C171.877 138.079 169.455 143.902 165.461 148.419C162.099 152.224 159.078 154.739 156.295 159.298C151.904 166.504 146.821 173.285 143.22 181.078C143 181.555 142.785 182.037 142.575 182.519C139.296 190.149 135.121 196.092 131.192 203.402C128.695 208.045 124.561 211.525 122.471 216.687C120.025 222.735 120.376 230.271 119.006 236.774C118.403 239.646 118.473 240.411 118.052 243.304H102.19C101.278 237.523 85.6871 232 83.2554 222.493Z" fill="white"/>
<path d="M64.0355 235.175C67.1593 239.257 71.3119 240.111 74.9081 243.303H55.7162V222.766C59.6163 225.297 60.9771 231.187 64.0355 235.175Z" fill="white"/>
<path d="M69.0065 308.941V399.197H55.7162V371.533V371.527C56.745 369.311 57.8299 367.167 58.8681 365.15C62.1228 358.808 64.5545 353.532 66.4017 346.562C68.0151 340.487 68.5201 333.812 68.5201 327.292C68.5248 321.098 69.0065 315.177 69.0065 308.941Z" fill="white"/>
<path d="M69.0065 280.17C69.0065 280.186 69.0065 280.207 69.0065 280.223C59.0224 287.476 58.8119 288.964 55.7162 292.58V251.275H69.0065C68.9176 251.336 69.0065 264.931 69.0065 280.17Z" fill="white"/>
<path d="M159.569 195.117C160.874 193.529 162.067 191.957 163.25 190.249C164.69 188.168 166.223 185.899 167.753 183.525C171.765 177.305 175.754 170.356 177.938 164.141C180.996 155.441 187.482 148.975 191.547 140.37C194.993 133.075 200.862 121.944 206.768 117.542C210.018 115.121 214.194 115.184 217.538 113.009C218.085 112.653 218.609 112.239 219.104 111.746C220.943 109.907 225.707 104.079 225.675 101.171C225.353 101.134 224.567 101.223 224.296 101.087C222.565 100.248 220.171 100.773 217.538 102.02" stroke="white" stroke-width="4" stroke-miterlimit="10"/>
<path d="M118.053 243.303C118.048 243.34 118.043 243.378 118.038 243.42" stroke="white" stroke-width="4" stroke-miterlimit="10"/>
<path d="M116.738 250.717C116.738 250.709 116.738 250.708 116.738 250.708" stroke="white" stroke-width="4" stroke-miterlimit="10"/>
<path d="M116.603 251.274C116.598 251.289 116.593 251.306 116.593 251.321C115.527 255.87 114.825 255.514 110.771 258.102C109.939 258.637 109.831 258.296 109.336 258.474C109.195 258.527 109.022 258.621 108.793 258.789" stroke="white" stroke-width="4" stroke-miterlimit="10"/>
<path d="M116.593 251.322C116.593 251.322 116.593 251.311 116.604 251.274" stroke="white" stroke-width="4" stroke-miterlimit="10"/>
<path d="M55.7162 371.528C52.1622 371.502 46.7376 369.951 43.913 367.519C44.362 362.792 44.6098 358.008 44.6098 353.171C44.6098 342.512 45.2365 332.439 47.0228 322.336C47.8459 317.682 47.9534 312.63 47.9908 307.274C48.0283 301.584 50.1794 298.381 53.7989 294.671C54.5658 293.885 55.1831 293.198 55.7162 292.58" stroke="white" stroke-width="4" stroke-miterlimit="10"/>
<path d="M41.7198 383.272C41.963 381.92 42.1968 380.563 42.4119 379.2C43.0339 375.337 43.5436 371.449 43.913 367.519" stroke="white" stroke-width="4" stroke-miterlimit="10"/>
<path d="M41.7105 383.319C41.7152 383.303 41.7151 383.287 41.7198 383.272C41.9583 382.617 41.7993 383.335 41.7105 383.591" stroke="white" stroke-width="4" stroke-miterlimit="10"/>
<path d="M23.3556 399.774C23.3369 399.575 23.3229 399.387 23.3089 399.197C22.7945 391.714 26.8162 393.684 32.18 393.134C33.3958 393.014 34.4714 392.783 35.4301 392.437C35.5891 392.385 35.7434 392.322 35.8977 392.259" stroke="white" stroke-width="4" stroke-miterlimit="10"/>
<path d="M159.625 195.102C159.713 195.075 159.674 195.091 159.625 195.102V195.102Z" stroke="white" stroke-width="4" stroke-miterlimit="10"/>
<path d="M206.431 195.264C206.02 194.143 206.997 192.025 207.152 190.621C207.315 189.206 207.254 187.482 207.165 186.062C207.02 183.735 206.623 180.69 205.945 178.547C204.051 172.552 201.03 168.543 195.274 167.594C193.076 167.233 189.69 166.027 187.539 166.557C185.486 167.06 183.975 169.523 182.512 171.058C180.861 172.788 178.326 172.95 176.778 174.491C175.17 176.089 174.763 179.139 173.281 181.125C171.42 183.614 170.236 183.981 171.354 187.377C172.163 189.824 173.145 190.993 170.933 193.089C168.675 195.233 160.575 199.781 159.57 195.117C159.57 195.117 159.598 195.107 159.626 195.102" stroke="white" stroke-width="4" stroke-miterlimit="10"/>
<path d="M174.417 243.303C173.655 241.437 172.789 240.499 172.135 238.571" stroke="white" stroke-width="4" stroke-miterlimit="10"/>
<path d="M176.526 251.274C177.312 254.911 177.63 257.306 178.602 260.958C180.375 267.619 180.505 274.363 182.03 281.008C184.503 291.762 190.868 301.336 195.016 311.314C195.231 311.833 195.414 312.357 195.568 312.886C189.218 303.799 182.039 297.285 175.511 288.429" stroke="white" stroke-width="4" stroke-miterlimit="10"/>
<path d="M204.453 329.693C204.336 329.619 204.225 329.556 204.112 329.504C200.834 327.801 198.37 330.856 197.308 325.767C196.42 321.491 196.784 317.005 195.573 312.892" stroke="white" stroke-width="4" stroke-miterlimit="10"/>
<path d="M175.511 250.1C175.521 250.142 176.517 251.232 176.526 251.274" stroke="white" stroke-width="4" stroke-miterlimit="10"/>
<path d="M196.934 251.274C197.027 251.394 198.945 251.536 198.767 251.274" stroke="white" stroke-width="4" stroke-miterlimit="10"/>
<path d="M204.112 318.52C201.47 314.28 201.587 311.157 201.114 305.916C200.642 300.66 200.352 295.32 199.426 290.206C198.187 283.387 195.129 276.926 192.842 270.506C191.014 265.392 189.255 258.873 189.284 253.171C189.288 251.724 189.167 252.668 189.284 251.274" stroke="white" stroke-width="4" stroke-miterlimit="10"/>
<path d="M204.112 318.52C204.187 318.636 204.261 318.751 204.336 318.871C204.621 319.312 204.336 318.871 204.631 319.348" stroke="white" stroke-width="4" stroke-miterlimit="10"/>
<path d="M189.896 243.304C190.125 241.249 190.335 240.196 190.433 238.572C190.471 237.959 190.49 237.256 190.49 236.392C190.49 230.685 191.369 223.668 189.395 218.391C187.74 213.951 182.432 210.068 178.453 208.774C178.167 206.814 178.855 204.602 179.603 203.072C180.202 203.538 181.053 203.816 182.035 203.958C185 204.393 189.166 203.643 191.317 203.444C196.405 202.978 200.399 201.484 202.751 196.364C203.925 197.947 203.705 201.128 203.537 203.119C203.106 208.124 199.062 212.641 196.976 216.891C194.526 221.885 191.996 226.738 191.939 232.618C191.897 236.758 191.813 239.535 193.506 243.304" stroke="white" stroke-width="4" stroke-miterlimit="10"/>
<path d="M189.896 243.303C189.882 243.423 189.868 243.55 189.854 243.681" stroke="white" stroke-width="4" stroke-miterlimit="10"/>
<path d="M193.679 243.681C193.618 243.555 193.562 243.429 193.506 243.303" stroke="white" stroke-width="4" stroke-miterlimit="10"/>
<path d="M204.264 256.953C204.256 256.944 204.256 256.944 204.256 256.944" stroke="white" stroke-width="4" stroke-miterlimit="10"/>
<path d="M204.257 256.939C204.257 256.939 204.257 256.939 204.257 256.945C204.257 257.008 204.495 257.919 204.453 257.83C204.342 257.6 204.229 257.359 204.112 257.107" stroke="white" stroke-width="4" stroke-miterlimit="10"/>
<path d="M221.536 251.274C222.004 255.938 219.927 260.9 217.538 264.386" stroke="white" stroke-width="4" stroke-miterlimit="10"/>
<path d="M206.431 195.264C207.306 197.433 209.181 198.497 210.42 200.41C211.711 202.396 212.87 204.471 214.031 206.557C217.388 212.584 215.522 218.306 214.176 224.757C213.685 227.084 212.866 230.182 213.62 232.618C214.227 234.594 215.808 236.8 217.14 238.681C217.449 239.116 217.744 239.53 218.01 239.923C219.161 241.606 219.521 241.627 219.984 243.304C220.016 243.419 220.05 243.545 220.082 243.681" stroke="white" stroke-width="4" stroke-miterlimit="10"/>
<path d="M195.575 312.895L195.568 312.886" stroke="white" stroke-width="4" stroke-miterlimit="10"/>
<path d="M175.511 288.429C175.343 288.199 175.174 287.968 175.006 287.738" stroke="white" stroke-width="4" stroke-miterlimit="10"/>
<path d="M172.135 238.572C169.451 238.456 166.238 240.138 163.975 241.632C162.791 242.413 162.127 242.481 160.626 243.304" stroke="white" stroke-width="4" stroke-miterlimit="10"/>
<path d="M103.055 307.793C103.079 307.788 103.098 307.783 103.116 307.783C103.149 307.771 103.164 307.771 103.164 307.771" stroke="white" stroke-width="4" stroke-miterlimit="10"/>
<path d="M175.511 333.644C175.193 333.492 174.861 333.314 174.501 333.088" stroke="white" stroke-width="4" stroke-miterlimit="10"/>
<path d="M204.631 356.828C204.444 356.571 204.271 356.33 204.112 356.099" stroke="white" stroke-width="4" stroke-miterlimit="10"/>
<path d="M217.538 368.981C221.162 370.988 225.034 372.346 228.354 374.757C228.756 375.045 229.14 375.375 229.519 375.731C232.138 378.252 234.167 382.271 236.379 385.185" stroke="white" stroke-width="4" stroke-miterlimit="10"/>
<path d="M210.392 363.766C210.261 363.624 210.116 363.462 209.962 363.29" stroke="white" stroke-width="4" stroke-miterlimit="10"/>
<path d="M236.716 385.624C236.716 385.624 236.716 385.63 236.72 385.63C236.744 385.662 236.763 385.687 236.773 385.698C236.777 385.704 236.782 385.709 236.782 385.709" stroke="white" stroke-width="4" stroke-miterlimit="10"/>
<path d="M236.571 385.441C236.585 385.457 236.595 385.474 236.609 385.489C236.614 385.5 236.623 385.505 236.628 385.516" stroke="white" stroke-width="4" stroke-miterlimit="10"/>
<path d="M236.258 385.044C236.225 385.007 236.196 384.969 236.177 384.944" stroke="white" stroke-width="4" stroke-miterlimit="10"/>
<path d="M236.38 385.206C236.366 385.18 236.347 385.158 236.328 385.132" stroke="white" stroke-width="4" stroke-miterlimit="10"/>
<path d="M236.117 384.865C236.117 384.865 236.122 384.87 236.131 384.88C236.136 384.891 236.145 384.896 236.15 384.907C236.154 384.917 236.164 384.928 236.178 384.938C236.178 384.944 236.178 384.944 236.178 384.944C236.202 384.97 236.229 385.001 236.258 385.043C236.281 385.069 236.305 385.1 236.328 385.132C236.346 385.153 236.36 385.174 236.379 385.195" stroke="white" stroke-width="4" stroke-miterlimit="10"/>
<path d="M242.659 375.988C244.203 378.068 245.521 379.724 246.891 381.338C248.383 383.099 249.936 384.802 251.9 386.94C254.224 389.466 256.59 391.285 259.2 393.37C260.953 394.78 263.249 396.483 263.352 398.758C259.101 399.004 254.795 399.198 250.497 399.198C248.294 399.198 246.092 399.145 243.903 399.025C244.057 396.525 244.188 396.221 242.659 393.879" stroke="white" stroke-width="4" stroke-miterlimit="10"/>
<path d="M217.538 339.414C218.838 340.939 220.185 342.401 221.363 344.073C224.828 348.989 228.845 353.741 231.675 359.009C233.461 362.331 234.387 364.002 236.379 367.032" stroke="white" stroke-width="4" stroke-miterlimit="10"/>
<path d="M210.392 331.003C210.201 330.851 210.004 330.715 209.812 330.594" stroke="white" stroke-width="4" stroke-miterlimit="10"/>
<path d="M52.5831 399.229C52.5784 399.218 52.569 399.208 52.5643 399.197C51.5355 397.562 51.601 392.741 51.1895 390.498C50.619 387.375 50.8762 385.63 51.6151 382.611C52.5316 378.906 54.0468 375.128 55.7162 371.532" stroke="white" stroke-width="4" stroke-miterlimit="10"/>
<path d="M142.426 253.47C144.306 253.606 143.468 253.554 145.377 253.79C148.131 254.125 151.119 255.556 153.78 255.351" stroke="white" stroke-width="4" stroke-miterlimit="10"/>
<path d="M117.187 251.274C122.939 251.327 128.298 252.637 133.971 252.92C135.392 252.993 134.756 252.951 136.145 253.035" stroke="white" stroke-width="4" stroke-miterlimit="10"/>
<path d="M116.219 251.274C116.018 251.274 115.817 251.285 115.616 251.29" stroke="white" stroke-width="4" stroke-miterlimit="10"/>
<path d="M159.569 195.117C158.195 199.289 158.98 204.403 162.721 206.374C166.561 208.397 174.122 208.774 178.453 208.774" stroke="white" stroke-width="4" stroke-miterlimit="10"/>
<path d="M195.274 167.594C193.497 170.565 190.948 175.533 190.275 178.756C189.578 182.089 187.291 184.374 187.674 188.184C190.125 188.021 193.071 190.118 190.607 192.895C189.461 194.19 185.631 194.174 184.004 194.493C183.685 197.79 182.04 200.331 182.04 203.926" stroke="white" stroke-width="4" stroke-miterlimit="10"/>
<path d="M167.753 183.525C162.955 183.651 156.787 181.46 151.881 181.46C148.973 181.46 146.134 181.078 143.221 181.078" stroke="white" stroke-width="4" stroke-miterlimit="10"/>
<path d="M190.438 238.566L190.433 238.571C187.267 241.349 185.967 241.689 181.749 243.303" stroke="white" stroke-width="4" stroke-miterlimit="10"/>
<path d="M236.379 370.925C234.564 373.294 232.441 373.844 230.098 375.521" stroke="white" stroke-width="4" stroke-miterlimit="10"/>
<path d="M42.4119 379.2C45.2972 379.043 48.5754 382.611 51.615 382.611" stroke="white" stroke-width="4" stroke-miterlimit="10"/>
<path d="M246.765 381.474C245.156 382.591 244.74 383.214 242.659 384.372" stroke="white" stroke-width="4" stroke-miterlimit="10"/>
<path d="M116.219 251.274H116.603H117.187" stroke="white" stroke-width="4" stroke-miterlimit="10"/>
<path d="M198.763 251.274H198.734" stroke="white" stroke-width="4" stroke-miterlimit="10"/>
<path d="M6.53935 251.274H5.48248" stroke="white" stroke-width="4" stroke-miterlimit="10"/>
<path d="M47.3034 243.303H46.2606" stroke="white" stroke-width="4" stroke-miterlimit="10"/>
<path d="M242.659 399.197H250.497H266.326" stroke="white" stroke-width="4" stroke-miterlimit="10"/>
<path d="M217.538 399.197H236.379" stroke="white" stroke-width="4" stroke-miterlimit="10"/>
<path d="M41.7105 399.197H52.5644H55.7162" stroke="white" stroke-width="4" stroke-miterlimit="10"/>
<path d="M11.7582 399.197H23.3089H35.4301" stroke="white" stroke-width="4" stroke-miterlimit="10"/>
<path d="M272.602 399.197H276.47V406.917H2.10149V399.197H5.4825" stroke="white" stroke-width="4" stroke-miterlimit="10"/>
<path d="M11.7582 251.274H10.0466" stroke="white" stroke-width="4" stroke-miterlimit="10"/>
<path d="M204.453 329.693C203.976 329.121 205.033 330.048 204.453 329.693V329.693Z" stroke="white" stroke-width="4" stroke-miterlimit="10"/>
<path d="M55.7162 243.303H47.3034C46.9573 243.393 46.6113 243.393 46.2606 243.303" stroke="white" stroke-width="4" stroke-miterlimit="10"/>
<path d="M210.392 263.888V251.274H221.536H236.379V367.032V370.925V385.185C236.44 385.274 236.505 385.358 236.571 385.441C236.51 385.368 236.444 385.284 236.379 385.206V399.198H242.659V393.879V384.372V375.988V251.274H266.327V399.198H272.602V251.274H276.47V243.303H219.984H193.506H189.896H181.75H174.417H160.626H118.052" stroke="white" stroke-width="4" stroke-miterlimit="10"/>
<path d="M210.392 263.888C210.242 264.81 210.191 262.861 210.392 263.888V263.888Z" stroke="white" stroke-width="4" stroke-miterlimit="10"/>
<path d="M210.392 363.766V331.003" stroke="white" stroke-width="4" stroke-miterlimit="10"/>
<path d="M204.112 399.197H210.392" stroke="white" stroke-width="4" stroke-miterlimit="10"/>
<path d="M204.112 257.107V318.52V329.504V356.099" stroke="white" stroke-width="4" stroke-miterlimit="10"/>
<path d="M175.511 333.645V288.43V251.275H176.526H189.283H196.933H198.734C198.649 251.165 198.584 251.065 198.762 251.275H198.767" stroke="white" stroke-width="4" stroke-miterlimit="10"/>
<path d="M169.235 399.197H175.511" stroke="white" stroke-width="4" stroke-miterlimit="10"/>
<path d="M136.145 399.197H142.426" stroke="white" stroke-width="4" stroke-miterlimit="10"/>
<path d="M109.336 307.306V258.474V251.274H116.219C116.35 251.269 116.481 251.269 116.607 251.269H116.715C116.874 251.269 117.033 251.269 117.187 251.274H136.145V253.035V302.568" stroke="white" stroke-width="4" stroke-miterlimit="10"/>
<path d="M103.055 399.197H109.336" stroke="white" stroke-width="4" stroke-miterlimit="10"/>
<path d="M69.0065 399.197H75.2822" stroke="white" stroke-width="4" stroke-miterlimit="10"/>
<path d="M69.0065 251.274V280.17C69.1515 280.076 69.3853 279.95 69.0065 280.223V308.941" stroke="white" stroke-width="4" stroke-miterlimit="10"/>
<path d="M28.0928 243.303H2.10149V251.274H5.4825V399.198H11.7582V251.274H35.4301V392.437V399.197H41.7105V383.591C41.6637 383.738 41.6357 383.743 41.7105 383.319V251.274H55.7162" stroke="white" stroke-width="4" stroke-miterlimit="10"/>
<path d="M39.4097 243.303H34.2844" stroke="white" stroke-width="4" stroke-miterlimit="10"/>
<path d="M198.766 251.274H204.112V257.107C203.728 256.289 203.284 255.372 202.559 254.529C200.913 252.616 200.511 253.239 198.766 251.274Z" stroke="white" stroke-width="4" stroke-miterlimit="10"/>
<path d="M204.112 356.1V399.197H175.511V333.644C176.942 334.331 178.046 334.409 179.818 335.211C182.619 336.474 185.851 338.114 188.54 338.984C191.121 339.827 194.385 339.717 196.686 341.405C199.169 343.224 199.847 347.489 201.179 350.439C202.312 352.93 202.789 354.177 204.112 356.1Z" stroke="white" stroke-width="4" stroke-miterlimit="10"/>
<path d="M136.145 302.568V399.198H109.336V307.305C114.1 306.535 116.603 305.665 121.162 303.191C123.206 302.091 125.132 300.99 127.017 299.618C129.318 297.935 130.253 295.41 133.003 297.548C134.504 298.722 135.238 300.744 136.145 302.568Z" stroke="white" stroke-width="4" stroke-miterlimit="10"/>
<path d="M169.235 328.917V399.198H142.426V309.087" stroke="white" stroke-width="4" stroke-miterlimit="10"/>
<path d="M154.71 251.274H169.235V278.645" stroke="white" stroke-width="4" stroke-miterlimit="10"/>
<path d="M169.235 278.645V328.917C166.416 327.005 165.377 326.14 162.492 324.154C156.394 319.961 150.268 316.346 144.787 311.173C143.384 309.847 143.684 310.209 142.426 309.087V253.47V251.275H154.711C154.397 252.674 154.346 253.999 154.453 255.283C154.631 257.432 155.23 259.47 155.725 261.593C157.03 267.2 160.622 271.723 164.9 274.762C166.967 276.229 167.622 276.738 169.235 278.645Z" stroke="white" stroke-width="4" stroke-miterlimit="10"/>
<path d="M103.055 307.793V399.198H75.2822V308.946" stroke="white" stroke-width="4" stroke-miterlimit="10"/>
<path d="M75.2822 277.739V251.274H103.055V263.836" stroke="white" stroke-width="4" stroke-miterlimit="10"/>
<path d="M103.055 263.836V307.793C103.042 307.798 103.023 307.798 103.008 307.804H102.994C102.971 307.809 102.952 307.815 102.952 307.815C92.4118 309.942 85.8368 309.12 75.2822 308.947V277.74C80.9453 275.721 85.0699 275.271 90.5085 272.588C95.6619 270.041 98.4537 267.472 103.055 263.836Z" stroke="white" stroke-width="4" stroke-miterlimit="10"/>
<path d="M236.379 385.184V385.195V385.206" stroke="white" stroke-width="4" stroke-miterlimit="10"/>
<path d="M137.011 251.274H136.145" stroke="white" stroke-width="4" stroke-miterlimit="10"/>
<path d="M103.808 251.274H103.055" stroke="white" stroke-width="4" stroke-miterlimit="10"/>
<path d="M109.336 251.274H108.251" stroke="white" stroke-width="4" stroke-miterlimit="10"/>
<path d="M75.2822 251.274H74.347" stroke="white" stroke-width="4" stroke-miterlimit="10"/>
<path d="M41.7105 383.592V383.319" stroke="white" stroke-width="4" stroke-miterlimit="10"/>
<path d="M55.7162 187.188V76.5141C55.7162 -23.1077 217.538 -22.568 217.538 76.5141V102.02V102.025C211.103 105.07 203.233 112.453 200.169 114.806C192.121 120.99 183.414 126.215 176.1 133.735C171.877 138.079 169.455 143.902 165.461 148.419C162.099 152.224 159.078 154.739 156.295 159.298C151.904 166.504 146.821 173.285 143.22 181.078C143 181.555 142.785 182.037 142.575 182.519C139.296 190.149 135.121 196.092 131.192 203.402C128.695 208.045 124.561 211.525 122.471 216.687C120.025 222.735 120.376 230.271 119.006 236.774C118.403 239.646 118.473 240.411 118.052 243.304H102.19" stroke="white" stroke-width="4" stroke-miterlimit="10"/>
<path d="M217.538 76.5142V76.0006" stroke="white" stroke-width="4" stroke-miterlimit="10"/>
<path d="M217.538 238.566V113.009" stroke="white" stroke-width="4" stroke-miterlimit="10"/>
<path d="M217.538 264.386V339.414C216.892 338.665 216.261 337.895 215.663 337.082C214.222 335.133 212.352 332.491 210.392 331.003V263.888C213.029 263.663 212.408 260.843 212.262 258.328C214.919 261.074 213.857 264.79 213.951 268.321C215.035 267.541 216.327 266.152 217.538 264.386Z" stroke="white" stroke-width="4" stroke-miterlimit="10"/>
<path d="M210.392 363.766C211.907 365.422 212.253 365.37 214.353 366.943C215.377 367.713 216.444 368.373 217.538 368.976V368.981V399.198H210.393V363.766H210.392Z" stroke="white" stroke-width="4" stroke-miterlimit="10"/>
<path d="M55.7162 76.5142V76.0006" stroke="white" stroke-width="4" stroke-miterlimit="10"/>
<path d="M55.7162 243.42V243.303" stroke="white" stroke-width="4" stroke-miterlimit="10"/>
<path d="M69.0065 251.274C68.9176 251.337 69.0065 264.931 69.0065 280.17C69.0065 280.186 69.0065 280.207 69.0065 280.223C59.0224 287.476 58.812 288.964 55.7162 292.58V251.275H69.0065V251.274Z" stroke="white" stroke-width="4" stroke-miterlimit="10"/>
<path d="M55.7162 292.606V292.58" stroke="white" stroke-width="4" stroke-miterlimit="10"/>
<path d="M69.0065 308.941V399.197H55.7162V371.533V371.527C56.745 369.311 57.8299 367.167 58.8681 365.15C62.1229 358.808 64.5546 353.532 66.4017 346.562C68.0151 340.487 68.5201 333.812 68.5201 327.292C68.5248 321.098 69.0065 315.177 69.0065 308.941Z" stroke="white" stroke-width="4" stroke-miterlimit="10"/>
<path d="M26.2503 201.196C26.4047 201.458 26.255 202.328 26.3485 202.737" stroke="white" stroke-width="4" stroke-miterlimit="10"/>
<path d="M102.209 243.42C102.204 243.383 102.199 243.341 102.19 243.303" stroke="white" stroke-width="4" stroke-miterlimit="10"/>
<path d="M83.916 243.419C83.8595 243.383 83.7983 243.34 83.7371 243.303" stroke="white" stroke-width="4" stroke-miterlimit="10"/>
<path d="M94.4234 243.419C94.3249 243.382 94.2311 243.345 94.1327 243.303" stroke="white" stroke-width="4" stroke-miterlimit="10"/>
<path d="M34.3648 243.42C34.3412 243.383 34.3128 243.345 34.2844 243.303" stroke="white" stroke-width="4" stroke-miterlimit="10"/>
<path d="M75.0407 243.42C74.9981 243.378 74.9508 243.341 74.9081 243.303" stroke="white" stroke-width="4" stroke-miterlimit="10"/>
<path d="M28.3037 243.419C28.2381 243.387 28.1678 243.351 28.0928 243.303" stroke="white" stroke-width="4" stroke-miterlimit="10"/>
<path d="M74.9081 243.303H55.7162V222.766" stroke="white" stroke-width="4" stroke-miterlimit="10"/>
<path d="M94.1327 243.303H83.7371" stroke="white" stroke-width="4" stroke-miterlimit="10"/>
<path d="M94.1327 243.303C85.5562 239.839 76.3484 227.147 68.9364 221.927C67.1266 229.951 78.1582 239.64 83.7371 243.303H74.9081C71.312 240.111 67.1594 239.257 64.0355 235.175C60.9772 231.187 59.6163 225.297 55.7162 222.765C54.9961 222.299 54.1917 221.943 53.2752 221.738C48.3275 220.622 41.5842 221.062 39.6622 227.015C38.3856 230.956 42.3324 242.344 46.2606 243.303H39.4097C36.0614 238.193 29.8278 229.651 32.6523 222.975C31.2681 225.741 26.8396 228.073 26.7133 230.94C26.5964 233.634 32.6663 240.997 34.2844 243.303H28.0928C24.9784 241.374 16.6684 226.559 18.394 223.226C21.2372 217.739 32.8581 211.686 26.3579 202.778C26.3579 202.762 26.3579 202.751 26.3485 202.736C26.0212 201.981 16.7105 199.004 14.3115 197.259C10.0654 194.162 7.01635 190.515 5.97819 184.86C4.04685 174.343 8.53151 162.295 2.10148 154.099C1.8396 151.919 2.10615 149.613 2.65329 147.684C30.1738 145.431 2.77487 195.142 29.0749 194.073C27.5176 185.977 48.5941 187.135 53.7849 187.119C54.4536 187.119 55.0989 187.14 55.7162 187.187C60.893 187.564 64.3909 189.545 68.8709 192.517C71.8731 194.519 80.7162 199.345 79.9399 190.436C82.1331 191.343 84.4713 193.167 86.1501 195.242C88.6801 196.253 91.3924 196.61 93.5154 198.444C97.0929 201.541 96.5832 201.95 101.531 202.358C102.144 206.692 97.7943 205.262 95.9098 207.688C94.1701 209.926 95.5544 212.666 93.291 214.742C89.0963 218.577 80.6133 212.184 83.2555 222.492C85.6872 231.999 101.278 237.522 102.19 243.302H94.1327V243.303Z" stroke="white" stroke-width="4" stroke-miterlimit="10"/>
</svg>
